G04*
G04 #@! TF.GenerationSoftware,Altium Limited,Altium Designer,22.2.1 (43)*
G04*
G04 Layer_Physical_Order=4*
G04 Layer_Color=16711680*
%FSLAX44Y44*%
%MOMM*%
G71*
G04*
G04 #@! TF.SameCoordinates,09C73F61-2481-4693-A516-3075C6E7F38E*
G04*
G04*
G04 #@! TF.FilePolarity,Positive*
G04*
G01*
G75*
%ADD14C,0.2000*%
%ADD92C,1.5700*%
%ADD99C,0.2540*%
%ADD101C,1.5240*%
%ADD102C,1.5000*%
%ADD103R,1.5000X1.5000*%
%ADD104R,1.5000X1.5000*%
%ADD105C,5.0000*%
%ADD106C,0.5000*%
%ADD107R,1.1781X1.3562*%
%ADD108R,1.2065X1.0682*%
G36*
X1000000Y1000000D02*
X1000000Y-0D01*
X-0Y-0D01*
X-0Y1000000D01*
X1000000Y1000000D01*
D02*
G37*
%LPC*%
G36*
X950000Y976126D02*
X944903Y975624D01*
X940002Y974137D01*
X935485Y971723D01*
X931526Y968474D01*
X928277Y964515D01*
X925863Y959998D01*
X924376Y955097D01*
X923874Y950000D01*
X924376Y944903D01*
X925863Y940002D01*
X928277Y935485D01*
X931526Y931526D01*
X935485Y928277D01*
X940002Y925863D01*
X944903Y924376D01*
X950000Y923874D01*
X955097Y924376D01*
X959998Y925863D01*
X964515Y928277D01*
X968474Y931526D01*
X971723Y935485D01*
X974137Y940002D01*
X975624Y944903D01*
X976126Y950000D01*
X975624Y955097D01*
X974137Y959998D01*
X971723Y964515D01*
X968474Y968474D01*
X964515Y971723D01*
X959998Y974137D01*
X955097Y975624D01*
X950000Y976126D01*
D02*
G37*
G36*
X49000D02*
X43903Y975624D01*
X39002Y974137D01*
X34485Y971723D01*
X30526Y968474D01*
X27277Y964515D01*
X24863Y959998D01*
X23376Y955097D01*
X22874Y950000D01*
X23376Y944903D01*
X24863Y940002D01*
X27277Y935485D01*
X30526Y931526D01*
X34485Y928277D01*
X39002Y925863D01*
X43903Y924376D01*
X49000Y923874D01*
X54097Y924376D01*
X58998Y925863D01*
X63515Y928277D01*
X67474Y931526D01*
X70723Y935485D01*
X73137Y940002D01*
X74624Y944903D01*
X75126Y950000D01*
X74624Y955097D01*
X73137Y959998D01*
X70723Y964515D01*
X67474Y968474D01*
X63515Y971723D01*
X58998Y974137D01*
X54097Y975624D01*
X49000Y976126D01*
D02*
G37*
G36*
X579000Y729568D02*
X577634Y729297D01*
X576477Y728523D01*
X575703Y727366D01*
X575431Y726000D01*
X575703Y724634D01*
X576477Y723477D01*
X577634Y722703D01*
X579000Y722431D01*
X580366Y722703D01*
X581523Y723477D01*
X582297Y724634D01*
X582569Y726000D01*
X582297Y727366D01*
X581523Y728523D01*
X580366Y729297D01*
X579000Y729568D01*
D02*
G37*
G36*
X492500Y672500D02*
X475500D01*
Y655500D01*
X492500D01*
Y672500D01*
D02*
G37*
G36*
X458600Y672573D02*
X456381Y672281D01*
X454313Y671425D01*
X452538Y670062D01*
X451175Y668287D01*
X450319Y666219D01*
X450027Y664000D01*
X450319Y661781D01*
X451175Y659713D01*
X452538Y657938D01*
X454313Y656575D01*
X456381Y655719D01*
X458600Y655427D01*
X460819Y655719D01*
X462887Y656575D01*
X464662Y657938D01*
X466025Y659713D01*
X466881Y661781D01*
X467173Y664000D01*
X466881Y666219D01*
X466025Y668287D01*
X464662Y670062D01*
X462887Y671425D01*
X460819Y672281D01*
X458600Y672573D01*
D02*
G37*
G36*
X703550Y765633D02*
X637350D01*
X636584Y765316D01*
X636267Y764550D01*
Y637450D01*
X636584Y636685D01*
X637350Y636368D01*
X703550D01*
X704315Y636685D01*
X704632Y637450D01*
Y764550D01*
X704315Y765316D01*
X703550Y765633D01*
D02*
G37*
G36*
X651000Y621568D02*
X649634Y621297D01*
X648477Y620523D01*
X647703Y619366D01*
X647431Y618000D01*
X647703Y616634D01*
X648477Y615477D01*
X649634Y614703D01*
X651000Y614431D01*
X652366Y614703D01*
X653523Y615477D01*
X654297Y616634D01*
X654568Y618000D01*
X654297Y619366D01*
X653523Y620523D01*
X652366Y621297D01*
X651000Y621568D01*
D02*
G37*
G36*
X561000D02*
X559634Y621297D01*
X558477Y620523D01*
X557703Y619366D01*
X557431Y618000D01*
X557703Y616634D01*
X558477Y615477D01*
X559634Y614703D01*
X561000Y614431D01*
X562366Y614703D01*
X563523Y615477D01*
X564297Y616634D01*
X564568Y618000D01*
X564297Y619366D01*
X563523Y620523D01*
X562366Y621297D01*
X561000Y621568D01*
D02*
G37*
G36*
X960509Y607609D02*
Y598920D01*
X969198D01*
X969020Y600271D01*
X968009Y602713D01*
X966400Y604811D01*
X964302Y606420D01*
X961860Y607431D01*
X960509Y607609D01*
D02*
G37*
G36*
X957969D02*
X956618Y607431D01*
X954176Y606420D01*
X952078Y604811D01*
X950469Y602713D01*
X949457Y600271D01*
X949280Y598920D01*
X957969D01*
Y607609D01*
D02*
G37*
G36*
X295170Y603942D02*
X293805Y603670D01*
X292647Y602897D01*
X291873Y601739D01*
X291602Y600373D01*
X291873Y599008D01*
X292647Y597850D01*
X293805Y597077D01*
X295170Y596805D01*
X296536Y597077D01*
X297694Y597850D01*
X298467Y599008D01*
X298739Y600373D01*
X298467Y601739D01*
X297694Y602897D01*
X296536Y603670D01*
X295170Y603942D01*
D02*
G37*
G36*
X969198Y596380D02*
X960509D01*
Y587691D01*
X961860Y587868D01*
X964302Y588880D01*
X966400Y590489D01*
X968009Y592587D01*
X969020Y595029D01*
X969198Y596380D01*
D02*
G37*
G36*
X957969D02*
X949280D01*
X949457Y595029D01*
X950469Y592587D01*
X952078Y590489D01*
X954176Y588880D01*
X956618Y587868D01*
X957969Y587691D01*
Y596380D01*
D02*
G37*
G36*
X519000Y594568D02*
X517634Y594297D01*
X516477Y593523D01*
X515703Y592366D01*
X515431Y591000D01*
X515703Y589634D01*
X516477Y588477D01*
X517634Y587703D01*
X519000Y587431D01*
X520366Y587703D01*
X521523Y588477D01*
X522297Y589634D01*
X522569Y591000D01*
X522297Y592366D01*
X521523Y593523D01*
X520366Y594297D01*
X519000Y594568D01*
D02*
G37*
G36*
X314000D02*
X312634Y594297D01*
X311477Y593523D01*
X310703Y592366D01*
X310431Y591000D01*
X310703Y589634D01*
X311477Y588477D01*
X312634Y587703D01*
X314000Y587431D01*
X315366Y587703D01*
X316523Y588477D01*
X317297Y589634D01*
X317568Y591000D01*
X317297Y592366D01*
X316523Y593523D01*
X315366Y594297D01*
X314000Y594568D01*
D02*
G37*
G36*
X299000Y586568D02*
X297634Y586297D01*
X296477Y585523D01*
X295703Y584366D01*
X295431Y583000D01*
X295703Y581634D01*
X296477Y580477D01*
X297634Y579703D01*
X299000Y579431D01*
X300366Y579703D01*
X301523Y580477D01*
X302297Y581634D01*
X302568Y583000D01*
X302297Y584366D01*
X301523Y585523D01*
X300366Y586297D01*
X299000Y586568D01*
D02*
G37*
G36*
X959239Y580823D02*
X957020Y580531D01*
X954952Y579675D01*
X953177Y578312D01*
X951814Y576537D01*
X950958Y574469D01*
X950666Y572250D01*
X950958Y570031D01*
X951775Y568059D01*
X881030Y497314D01*
X738621D01*
X737730Y499463D01*
X736312Y501312D01*
X734463Y502730D01*
X732310Y503622D01*
X730000Y503926D01*
X727690Y503622D01*
X725537Y502730D01*
X723688Y501312D01*
X722270Y499463D01*
X721378Y497310D01*
X721074Y495000D01*
X721378Y492690D01*
X722270Y490537D01*
X723688Y488688D01*
X725537Y487270D01*
X727690Y486378D01*
X730000Y486074D01*
X732310Y486378D01*
X734463Y487270D01*
X736312Y488688D01*
X737730Y490537D01*
X738621Y492686D01*
X881989D01*
X882875Y492862D01*
X883625Y493363D01*
X955048Y564786D01*
X957020Y563969D01*
X959239Y563677D01*
X961458Y563969D01*
X963526Y564825D01*
X965301Y566188D01*
X966664Y567963D01*
X967520Y570031D01*
X967812Y572250D01*
X967520Y574469D01*
X966664Y576537D01*
X965301Y578312D01*
X963526Y579675D01*
X961458Y580531D01*
X959239Y580823D01*
D02*
G37*
G36*
X788000Y552569D02*
X786634Y552297D01*
X785477Y551523D01*
X784703Y550366D01*
X784431Y549000D01*
X784703Y547634D01*
X785477Y546477D01*
X786634Y545703D01*
X788000Y545431D01*
X789366Y545703D01*
X790523Y546477D01*
X791297Y547634D01*
X791569Y549000D01*
X791297Y550366D01*
X790523Y551523D01*
X789366Y552297D01*
X788000Y552569D01*
D02*
G37*
G36*
X412000Y551568D02*
X410634Y551297D01*
X409477Y550523D01*
X408703Y549366D01*
X408431Y548000D01*
X408703Y546634D01*
X409477Y545477D01*
X410634Y544703D01*
X412000Y544431D01*
X413366Y544703D01*
X414523Y545477D01*
X415297Y546634D01*
X415569Y548000D01*
X415297Y549366D01*
X414523Y550523D01*
X413366Y551297D01*
X412000Y551568D01*
D02*
G37*
G36*
X856000Y561726D02*
X853690Y561422D01*
X851537Y560530D01*
X849688Y559112D01*
X848270Y557263D01*
X847378Y555110D01*
X847074Y552800D01*
X847378Y550489D01*
X848270Y548336D01*
X849688Y546488D01*
X851537Y545069D01*
X853690Y544177D01*
X856000Y543873D01*
X858310Y544177D01*
X860463Y545069D01*
X862312Y546488D01*
X863730Y548336D01*
X864622Y550489D01*
X864926Y552800D01*
X864622Y555110D01*
X863730Y557263D01*
X862312Y559112D01*
X860463Y560530D01*
X858310Y561422D01*
X856000Y561726D01*
D02*
G37*
G36*
X959239Y555423D02*
X957020Y555131D01*
X954952Y554275D01*
X953177Y552912D01*
X951814Y551137D01*
X950958Y549069D01*
X950666Y546850D01*
X950958Y544631D01*
X951775Y542659D01*
X871660Y462544D01*
X738621D01*
X737730Y464692D01*
X736312Y466541D01*
X734463Y467960D01*
X732310Y468852D01*
X730000Y469156D01*
X727690Y468852D01*
X725537Y467960D01*
X723688Y466541D01*
X722270Y464692D01*
X721378Y462540D01*
X721074Y460229D01*
X721378Y457919D01*
X722270Y455766D01*
X723688Y453918D01*
X725537Y452499D01*
X727690Y451607D01*
X730000Y451303D01*
X732310Y451607D01*
X734463Y452499D01*
X736312Y453918D01*
X737730Y455766D01*
X738621Y457915D01*
X872618D01*
X873504Y458091D01*
X874255Y458593D01*
X955048Y539386D01*
X957020Y538569D01*
X959239Y538277D01*
X961458Y538569D01*
X963526Y539425D01*
X965301Y540788D01*
X966664Y542563D01*
X967520Y544631D01*
X967812Y546850D01*
X967520Y549069D01*
X966664Y551137D01*
X965301Y552912D01*
X963526Y554275D01*
X961458Y555131D01*
X959239Y555423D01*
D02*
G37*
G36*
X395480Y539886D02*
X394784Y539748D01*
X393116Y538633D01*
X392514Y537732D01*
X390986D01*
X390384Y538633D01*
X388717Y539748D01*
X388020Y539886D01*
Y535000D01*
X386750D01*
Y533730D01*
X381864D01*
X382002Y533033D01*
X383116Y531366D01*
X384018Y530764D01*
Y529236D01*
X383116Y528634D01*
X382002Y526966D01*
X381864Y526270D01*
X386750D01*
Y525000D01*
X388020D01*
Y520114D01*
X388717Y520252D01*
X390384Y521366D01*
X390986Y522268D01*
X392514D01*
X393116Y521366D01*
X394784Y520252D01*
X395480Y520114D01*
Y525000D01*
X396750D01*
Y526270D01*
X401636D01*
X401497Y526966D01*
X400384Y528634D01*
X399482Y529236D01*
Y530764D01*
X400384Y531366D01*
X401497Y533033D01*
X401636Y533730D01*
X396750D01*
Y535000D01*
X395480D01*
Y539886D01*
D02*
G37*
G36*
X653670Y544959D02*
Y536270D01*
X662359D01*
X662181Y537621D01*
X661170Y540063D01*
X659561Y542161D01*
X657463Y543770D01*
X655021Y544781D01*
X653670Y544959D01*
D02*
G37*
G36*
X651130D02*
X649779Y544781D01*
X647337Y543770D01*
X645239Y542161D01*
X643630Y540063D01*
X642618Y537621D01*
X642440Y536270D01*
X651130D01*
Y544959D01*
D02*
G37*
G36*
X398020Y539886D02*
Y536270D01*
X401636D01*
X401497Y536966D01*
X400384Y538633D01*
X398717Y539748D01*
X398020Y539886D01*
D02*
G37*
G36*
X385480D02*
X384784Y539748D01*
X383116Y538633D01*
X382002Y536966D01*
X381864Y536270D01*
X385480D01*
Y539886D01*
D02*
G37*
G36*
X610100Y543500D02*
X593100D01*
Y526500D01*
X610100D01*
Y543500D01*
D02*
G37*
G36*
X627000Y543573D02*
X624781Y543281D01*
X622713Y542425D01*
X620938Y541062D01*
X619575Y539287D01*
X618719Y537219D01*
X618427Y535000D01*
X618719Y532781D01*
X619575Y530713D01*
X620938Y528938D01*
X622713Y527575D01*
X624781Y526719D01*
X627000Y526427D01*
X629219Y526719D01*
X631287Y527575D01*
X633062Y528938D01*
X634425Y530713D01*
X635281Y532781D01*
X635573Y535000D01*
X635281Y537219D01*
X634425Y539287D01*
X633062Y541062D01*
X631287Y542425D01*
X629219Y543281D01*
X627000Y543573D01*
D02*
G37*
G36*
X662359Y533730D02*
X653670D01*
Y525041D01*
X655021Y525218D01*
X657463Y526230D01*
X659561Y527839D01*
X661170Y529937D01*
X662181Y532379D01*
X662359Y533730D01*
D02*
G37*
G36*
X651130D02*
X642440D01*
X642618Y532379D01*
X643630Y529937D01*
X645239Y527839D01*
X647337Y526230D01*
X649779Y525218D01*
X651130Y525041D01*
Y533730D01*
D02*
G37*
G36*
X401636Y523730D02*
X398020D01*
Y520114D01*
X398717Y520252D01*
X400384Y521366D01*
X401497Y523033D01*
X401636Y523730D01*
D02*
G37*
G36*
X385480D02*
X381864D01*
X382002Y523033D01*
X383116Y521366D01*
X384784Y520252D01*
X385480Y520114D01*
Y523730D01*
D02*
G37*
G36*
X562000Y533926D02*
X559690Y533622D01*
X557537Y532730D01*
X555688Y531312D01*
X554269Y529463D01*
X553378Y527310D01*
X553074Y525000D01*
X553378Y522690D01*
X554269Y520537D01*
X555688Y518688D01*
X557537Y517270D01*
X559690Y516378D01*
X562000Y516073D01*
X564310Y516378D01*
X566463Y517270D01*
X568312Y518688D01*
X569730Y520537D01*
X570622Y522690D01*
X570926Y525000D01*
X570622Y527310D01*
X569730Y529463D01*
X568312Y531312D01*
X566463Y532730D01*
X564310Y533622D01*
X562000Y533926D01*
D02*
G37*
G36*
X297000Y512569D02*
X295634Y512297D01*
X294477Y511523D01*
X293703Y510366D01*
X293431Y509000D01*
X293703Y507634D01*
X294477Y506477D01*
X295634Y505703D01*
X297000Y505431D01*
X298366Y505703D01*
X299523Y506477D01*
X300297Y507634D01*
X300569Y509000D01*
X300297Y510366D01*
X299523Y511523D01*
X298366Y512297D01*
X297000Y512569D01*
D02*
G37*
G36*
X385000Y511568D02*
X383634Y511297D01*
X382477Y510523D01*
X381703Y509366D01*
X381431Y508000D01*
X381703Y506634D01*
X382477Y505477D01*
X383634Y504703D01*
X385000Y504431D01*
X386366Y504703D01*
X387523Y505477D01*
X388297Y506634D01*
X388569Y508000D01*
X388297Y509366D01*
X387523Y510523D01*
X386366Y511297D01*
X385000Y511568D01*
D02*
G37*
G36*
X578469Y502894D02*
X577103Y502623D01*
X575946Y501849D01*
X575172Y500691D01*
X574901Y499326D01*
X575172Y497960D01*
X575946Y496802D01*
X577103Y496029D01*
X578469Y495757D01*
X579835Y496029D01*
X580992Y496802D01*
X581766Y497960D01*
X582038Y499326D01*
X581766Y500691D01*
X580992Y501849D01*
X579835Y502623D01*
X578469Y502894D01*
D02*
G37*
G36*
X631000Y510694D02*
X628750Y510398D01*
X626653Y509529D01*
X624852Y508148D01*
X623470Y506347D01*
X622602Y504250D01*
X622306Y502000D01*
X622602Y499750D01*
X623470Y497653D01*
X624852Y495852D01*
X626653Y494470D01*
X628750Y493602D01*
X631000Y493306D01*
X633250Y493602D01*
X635347Y494470D01*
X637148Y495852D01*
X638530Y497653D01*
X639398Y499750D01*
X639694Y502000D01*
X639398Y504250D01*
X638530Y506347D01*
X637148Y508148D01*
X635347Y509529D01*
X633250Y510398D01*
X631000Y510694D01*
D02*
G37*
G36*
X960509Y490659D02*
Y481970D01*
X969198D01*
X969020Y483321D01*
X968009Y485763D01*
X966399Y487861D01*
X964302Y489470D01*
X961860Y490481D01*
X960509Y490659D01*
D02*
G37*
G36*
X957969D02*
X956618Y490481D01*
X954175Y489470D01*
X952078Y487861D01*
X950469Y485763D01*
X949457Y483321D01*
X949279Y481970D01*
X957969D01*
Y490659D01*
D02*
G37*
G36*
Y479430D02*
X949279D01*
X949457Y478079D01*
X950469Y475637D01*
X952078Y473539D01*
X954175Y471930D01*
X956618Y470918D01*
X957969Y470741D01*
Y479430D01*
D02*
G37*
G36*
X969198D02*
X960509D01*
Y470741D01*
X961860Y470918D01*
X964302Y471930D01*
X966399Y473539D01*
X968009Y475637D01*
X969020Y478079D01*
X969198Y479430D01*
D02*
G37*
G36*
X727000Y589926D02*
X724690Y589622D01*
X722537Y588730D01*
X720688Y587312D01*
X719269Y585463D01*
X718378Y583310D01*
X718074Y581000D01*
X718378Y578690D01*
X719269Y576537D01*
X720688Y574688D01*
X722537Y573270D01*
X724686Y572379D01*
Y543959D01*
X649246Y468520D01*
X649000Y468569D01*
X647634Y468297D01*
X646477Y467523D01*
X645703Y466366D01*
X645431Y465000D01*
X645703Y463634D01*
X646477Y462477D01*
X647634Y461703D01*
X649000Y461431D01*
X650366Y461703D01*
X651523Y462477D01*
X652297Y463634D01*
X652569Y465000D01*
X652520Y465246D01*
X728636Y541363D01*
X729138Y542114D01*
X729314Y543000D01*
Y572379D01*
X731463Y573270D01*
X733312Y574688D01*
X734730Y576537D01*
X735622Y578690D01*
X735926Y581000D01*
X735622Y583310D01*
X734730Y585463D01*
X733312Y587312D01*
X731463Y588730D01*
X729310Y589622D01*
X727000Y589926D01*
D02*
G37*
G36*
X631000Y485926D02*
X628690Y485622D01*
X626537Y484730D01*
X624688Y483312D01*
X623270Y481463D01*
X622378Y479310D01*
X622074Y477000D01*
X622378Y474690D01*
X623270Y472537D01*
X624688Y470688D01*
X626537Y469269D01*
X628690Y468378D01*
X631000Y468074D01*
X633310Y468378D01*
X635463Y469269D01*
X637312Y470688D01*
X638730Y472537D01*
X639622Y474690D01*
X639926Y477000D01*
X639622Y479310D01*
X638730Y481463D01*
X637312Y483312D01*
X635463Y484730D01*
X633310Y485622D01*
X631000Y485926D01*
D02*
G37*
G36*
X579667Y470364D02*
X578301Y470092D01*
X577144Y469319D01*
X577004Y469110D01*
X487795D01*
X486910Y468934D01*
X486159Y468432D01*
X482363Y464636D01*
X481862Y463886D01*
X481685Y463000D01*
Y388000D01*
X481862Y387114D01*
X482363Y386363D01*
X510483Y358243D01*
X511234Y357742D01*
X512120Y357565D01*
X822117D01*
X823003Y357742D01*
X823754Y358243D01*
X830196Y364686D01*
X951532D01*
X952574Y363519D01*
X952427Y362400D01*
X952719Y360181D01*
X953575Y358113D01*
X954938Y356338D01*
X956713Y354975D01*
X958781Y354119D01*
X961000Y353827D01*
X963219Y354119D01*
X965287Y354975D01*
X967062Y356338D01*
X968425Y358113D01*
X969281Y360181D01*
X969573Y362400D01*
X969281Y364619D01*
X968425Y366687D01*
X967062Y368462D01*
X965287Y369825D01*
X963219Y370681D01*
X961000Y370973D01*
X958781Y370681D01*
X956713Y369825D01*
X955025Y368530D01*
X954919Y368637D01*
X954168Y369138D01*
X953282Y369314D01*
X829237D01*
X828352Y369138D01*
X827601Y368637D01*
X821159Y362194D01*
X707452D01*
X707020Y363464D01*
X707312Y363688D01*
X708730Y365537D01*
X709622Y367690D01*
X709926Y370000D01*
X709622Y372310D01*
X708730Y374463D01*
X707312Y376312D01*
X705463Y377730D01*
X703310Y378622D01*
X701000Y378926D01*
X698690Y378622D01*
X696537Y377730D01*
X694688Y376312D01*
X693270Y374463D01*
X692378Y372310D01*
X692074Y370000D01*
X692378Y367690D01*
X693270Y365537D01*
X694688Y363688D01*
X694979Y363464D01*
X694548Y362194D01*
X513079D01*
X486314Y388959D01*
Y462041D01*
X488754Y464481D01*
X577004D01*
X577144Y464272D01*
X578301Y463498D01*
X579667Y463227D01*
X581032Y463498D01*
X582190Y464272D01*
X582964Y465430D01*
X583235Y466795D01*
X582964Y468161D01*
X582190Y469319D01*
X581032Y470092D01*
X579667Y470364D01*
D02*
G37*
G36*
X553000Y460569D02*
X551634Y460297D01*
X550477Y459523D01*
X549703Y458366D01*
X549431Y457000D01*
X549703Y455634D01*
X550477Y454477D01*
X551634Y453703D01*
X553000Y453431D01*
X554366Y453703D01*
X555523Y454477D01*
X556297Y455634D01*
X556568Y457000D01*
X556297Y458366D01*
X555523Y459523D01*
X554366Y460297D01*
X553000Y460569D01*
D02*
G37*
G36*
X959239Y463873D02*
X957020Y463581D01*
X954952Y462725D01*
X953176Y461362D01*
X951814Y459587D01*
X950958Y457519D01*
X950665Y455300D01*
X950958Y453081D01*
X951814Y451013D01*
X953176Y449238D01*
X954952Y447875D01*
X957020Y447019D01*
X959239Y446727D01*
X961458Y447019D01*
X963525Y447875D01*
X965301Y449238D01*
X966664Y451013D01*
X967520Y453081D01*
X967812Y455300D01*
X967520Y457519D01*
X966664Y459587D01*
X965301Y461362D01*
X963525Y462725D01*
X961458Y463581D01*
X959239Y463873D01*
D02*
G37*
G36*
X613000Y452214D02*
X611634Y451942D01*
X610477Y451169D01*
X609703Y450011D01*
X609431Y448646D01*
X609703Y447280D01*
X610477Y446122D01*
X611634Y445349D01*
X613000Y445077D01*
X614366Y445349D01*
X615523Y446122D01*
X616297Y447280D01*
X616569Y448646D01*
X616297Y450011D01*
X615523Y451169D01*
X614366Y451942D01*
X613000Y452214D01*
D02*
G37*
G36*
X967739Y529950D02*
X950739D01*
Y516223D01*
X876830Y442314D01*
X874621D01*
X873730Y444463D01*
X872312Y446312D01*
X870463Y447730D01*
X868310Y448622D01*
X866000Y448926D01*
X863690Y448622D01*
X861537Y447730D01*
X859688Y446312D01*
X858270Y444463D01*
X857378Y442310D01*
X857074Y440000D01*
X857378Y437690D01*
X858270Y435537D01*
X859688Y433688D01*
X861537Y432270D01*
X863690Y431378D01*
X866000Y431074D01*
X868310Y431378D01*
X870463Y432270D01*
X872312Y433688D01*
X873730Y435537D01*
X874621Y437686D01*
X877789D01*
X878675Y437862D01*
X879426Y438363D01*
X954012Y512950D01*
X967739D01*
Y529950D01*
D02*
G37*
G36*
X428000Y447569D02*
X426634Y447297D01*
X425477Y446523D01*
X424703Y445366D01*
X424431Y444000D01*
X424703Y442634D01*
X425477Y441477D01*
X426634Y440703D01*
X428000Y440431D01*
X429366Y440703D01*
X430523Y441477D01*
X431297Y442634D01*
X431568Y444000D01*
X431297Y445366D01*
X430523Y446523D01*
X429366Y447297D01*
X428000Y447569D01*
D02*
G37*
G36*
X586071Y445321D02*
X578911D01*
Y437270D01*
X586571D01*
X586748Y437533D01*
X586886Y438230D01*
X582000D01*
Y440770D01*
X586886D01*
X586748Y441466D01*
X586071Y442479D01*
Y445321D01*
D02*
G37*
G36*
X385000Y442569D02*
X383634Y442297D01*
X382477Y441523D01*
X381703Y440366D01*
X381431Y439000D01*
X381703Y437634D01*
X382477Y436477D01*
X383634Y435703D01*
X385000Y435431D01*
X386366Y435703D01*
X387523Y436477D01*
X388297Y437634D01*
X388568Y439000D01*
X388297Y440366D01*
X387523Y441523D01*
X386366Y442297D01*
X385000Y442569D01*
D02*
G37*
G36*
X614000Y441569D02*
X612634Y441297D01*
X611477Y440523D01*
X610703Y439366D01*
X610431Y438000D01*
X610703Y436634D01*
X611477Y435477D01*
X612634Y434703D01*
X614000Y434431D01*
X615366Y434703D01*
X616523Y435477D01*
X617297Y436634D01*
X617569Y438000D01*
X617297Y439366D01*
X616523Y440523D01*
X615366Y441297D01*
X614000Y441569D01*
D02*
G37*
G36*
X398354Y433999D02*
X396989Y433728D01*
X395831Y432954D01*
X395057Y431796D01*
X394786Y430431D01*
X395057Y429065D01*
X395831Y427907D01*
X396989Y427134D01*
X398354Y426862D01*
X399720Y427134D01*
X400878Y427907D01*
X401651Y429065D01*
X401923Y430431D01*
X401651Y431796D01*
X400878Y432954D01*
X399720Y433728D01*
X398354Y433999D01*
D02*
G37*
G36*
X269170Y432940D02*
Y424251D01*
X277859D01*
X277682Y425602D01*
X276670Y428044D01*
X275061Y430141D01*
X272963Y431751D01*
X270521Y432762D01*
X269170Y432940D01*
D02*
G37*
G36*
X266630D02*
X265279Y432762D01*
X262837Y431751D01*
X260739Y430141D01*
X259130Y428044D01*
X258118Y425602D01*
X257941Y424251D01*
X266630D01*
Y432940D01*
D02*
G37*
G36*
X959239Y438473D02*
X957020Y438181D01*
X954952Y437325D01*
X953176Y435962D01*
X951814Y434187D01*
X950958Y432119D01*
X950665Y429900D01*
X950958Y427681D01*
X951814Y425613D01*
X953176Y423838D01*
X954952Y422475D01*
X957020Y421619D01*
X959239Y421327D01*
X961458Y421619D01*
X963525Y422475D01*
X965301Y423838D01*
X966664Y425613D01*
X967520Y427681D01*
X967812Y429900D01*
X967520Y432119D01*
X966664Y434187D01*
X965301Y435962D01*
X963525Y437325D01*
X961458Y438181D01*
X959239Y438473D01*
D02*
G37*
G36*
X333000Y438926D02*
X330690Y438622D01*
X328537Y437730D01*
X326688Y436312D01*
X325270Y434463D01*
X324378Y432310D01*
X324074Y430000D01*
X324378Y427690D01*
X325270Y425537D01*
X326688Y423688D01*
X328537Y422270D01*
X330690Y421378D01*
X333000Y421074D01*
X335310Y421378D01*
X337463Y422270D01*
X339312Y423688D01*
X340730Y425537D01*
X341622Y427690D01*
X341926Y430000D01*
X341622Y432310D01*
X340730Y434463D01*
X339312Y436312D01*
X337463Y437730D01*
X335310Y438622D01*
X333000Y438926D01*
D02*
G37*
G36*
X405000Y427569D02*
X403634Y427297D01*
X402477Y426523D01*
X401703Y425366D01*
X401431Y424000D01*
X401703Y422634D01*
X402477Y421477D01*
X403634Y420703D01*
X405000Y420431D01*
X406366Y420703D01*
X407523Y421477D01*
X408297Y422634D01*
X408569Y424000D01*
X408297Y425366D01*
X407523Y426523D01*
X406366Y427297D01*
X405000Y427569D01*
D02*
G37*
G36*
X801000Y426568D02*
X799634Y426297D01*
X798477Y425523D01*
X797703Y424366D01*
X797431Y423000D01*
X797703Y421634D01*
X798477Y420477D01*
X799634Y419703D01*
X801000Y419431D01*
X802366Y419703D01*
X803523Y420477D01*
X804297Y421634D01*
X804568Y423000D01*
X804297Y424366D01*
X803523Y425523D01*
X802366Y426297D01*
X801000Y426568D01*
D02*
G37*
G36*
X433995Y422573D02*
X432630Y422302D01*
X431472Y421528D01*
X430698Y420370D01*
X430426Y419005D01*
X430698Y417639D01*
X431472Y416481D01*
X432630Y415708D01*
X433995Y415436D01*
X435361Y415708D01*
X436519Y416481D01*
X437292Y417639D01*
X437564Y419005D01*
X437292Y420370D01*
X436519Y421528D01*
X435361Y422302D01*
X433995Y422573D01*
D02*
G37*
G36*
X301800Y431481D02*
X284800D01*
Y414481D01*
X301800D01*
Y431481D01*
D02*
G37*
G36*
X277859Y421711D02*
X269170D01*
Y413021D01*
X270521Y413199D01*
X272963Y414211D01*
X275061Y415820D01*
X276670Y417917D01*
X277682Y420360D01*
X277859Y421711D01*
D02*
G37*
G36*
X266630D02*
X257941D01*
X258118Y420360D01*
X259130Y417917D01*
X260739Y415820D01*
X262837Y414211D01*
X265279Y413199D01*
X266630Y413021D01*
Y421711D01*
D02*
G37*
G36*
X476010Y418698D02*
X474645Y418426D01*
X473487Y417652D01*
X472713Y416495D01*
X472441Y415129D01*
X472713Y413763D01*
X473487Y412606D01*
X474645Y411832D01*
X476010Y411560D01*
X477376Y411832D01*
X478534Y412606D01*
X479307Y413763D01*
X479579Y415129D01*
X479307Y416495D01*
X478534Y417652D01*
X477376Y418426D01*
X476010Y418698D01*
D02*
G37*
G36*
X501000Y455926D02*
X498690Y455622D01*
X496537Y454730D01*
X494688Y453312D01*
X493270Y451463D01*
X492378Y449310D01*
X492074Y447000D01*
X492378Y444690D01*
X493270Y442537D01*
X494688Y440688D01*
X496537Y439269D01*
X498690Y438378D01*
X501000Y438074D01*
X503310Y438378D01*
X505463Y439269D01*
X507312Y440688D01*
X508730Y442537D01*
X509620Y444685D01*
X547541D01*
X552918Y439309D01*
Y416000D01*
X552918Y416000D01*
X553234Y415234D01*
X553235Y415234D01*
X556235Y412235D01*
X557000Y411917D01*
X556978Y410656D01*
X555692D01*
X549042Y417306D01*
X548291Y417808D01*
X547406Y417984D01*
X542024D01*
X541138Y417808D01*
X540388Y417306D01*
X539815Y416733D01*
X539485Y416668D01*
X538734Y416166D01*
X537882Y415314D01*
X529663D01*
X529523Y415523D01*
X528366Y416297D01*
X527000Y416568D01*
X525634Y416297D01*
X524477Y415523D01*
X523703Y414366D01*
X523431Y413000D01*
X523703Y411634D01*
X524477Y410477D01*
X525634Y409703D01*
X527000Y409431D01*
X528366Y409703D01*
X529523Y410477D01*
X529663Y410686D01*
X538841D01*
X539261Y410769D01*
X539762Y410825D01*
X540624Y409934D01*
X540703Y409534D01*
X541477Y408376D01*
X542634Y407603D01*
X544000Y407331D01*
X545366Y407603D01*
X546523Y408376D01*
X547297Y409534D01*
X547492Y410514D01*
X548555Y410992D01*
X548788Y411014D01*
X553097Y406705D01*
X553847Y406204D01*
X554733Y406027D01*
X571305D01*
X571984Y404757D01*
X571713Y404352D01*
X571441Y402987D01*
X571713Y401621D01*
X572487Y400463D01*
X573644Y399690D01*
X575010Y399418D01*
X575257Y399467D01*
X579427Y395297D01*
Y393341D01*
X574709D01*
Y386314D01*
X524959D01*
X514850Y396423D01*
X514926Y397000D01*
X514622Y399310D01*
X513730Y401463D01*
X512312Y403312D01*
X510463Y404730D01*
X508310Y405622D01*
X506000Y405926D01*
X503690Y405622D01*
X501537Y404730D01*
X499688Y403312D01*
X498270Y401463D01*
X497378Y399310D01*
X497074Y397000D01*
X497378Y394690D01*
X498270Y392537D01*
X499688Y390688D01*
X501537Y389269D01*
X503690Y388378D01*
X506000Y388074D01*
X508310Y388378D01*
X510463Y389269D01*
X512312Y390688D01*
X512475Y390901D01*
X513743Y390984D01*
X522363Y382363D01*
X523114Y381862D01*
X524000Y381685D01*
X574709D01*
Y380659D01*
X588416D01*
X588774Y380659D01*
X589686Y379795D01*
Y379119D01*
X596988D01*
Y387000D01*
Y394881D01*
X589686D01*
Y394205D01*
X588774Y393341D01*
X588416Y393341D01*
X584056D01*
Y396255D01*
X583880Y397141D01*
X583378Y397892D01*
X578530Y402740D01*
X578579Y402987D01*
X578307Y404352D01*
X578036Y404757D01*
X578715Y406027D01*
X595150D01*
X595593Y404852D01*
X595575Y404757D01*
X594477Y404023D01*
X593703Y402866D01*
X593431Y401500D01*
X593703Y400134D01*
X594477Y398977D01*
X595634Y398203D01*
X597000Y397931D01*
X598366Y398203D01*
X599523Y398977D01*
X600297Y400134D01*
X600569Y401500D01*
X600297Y402866D01*
X599523Y404023D01*
X598424Y404757D01*
X598407Y404852D01*
X598850Y406027D01*
X613685D01*
X616849Y402863D01*
X617600Y402362D01*
X618486Y402186D01*
X950739D01*
Y396000D01*
X967739D01*
Y413000D01*
X950739D01*
Y406814D01*
X619445D01*
X616280Y409978D01*
X615530Y410480D01*
X614644Y410656D01*
X614665Y411917D01*
X668000D01*
X668765Y412235D01*
X669082Y413000D01*
Y436000D01*
X668765Y436765D01*
X668000Y437082D01*
X629000D01*
X629000Y437082D01*
X628234Y436765D01*
X628234Y436765D01*
X618651Y427182D01*
X617481Y427807D01*
X617569Y428250D01*
X617297Y429616D01*
X616523Y430773D01*
X615366Y431547D01*
X614000Y431819D01*
X612634Y431547D01*
X611477Y430773D01*
X610703Y429616D01*
X610431Y428250D01*
X610660Y427102D01*
X609995Y425832D01*
X587690D01*
X586861Y427102D01*
X586886Y427230D01*
X582000D01*
Y429770D01*
X586886D01*
X586748Y430466D01*
X586071Y431479D01*
Y434730D01*
X577641D01*
Y436000D01*
X576371D01*
Y445321D01*
X569210D01*
Y445082D01*
X554000D01*
X553781Y444992D01*
X550137Y448637D01*
X549386Y449138D01*
X548500Y449314D01*
X509620D01*
X508730Y451463D01*
X507312Y453312D01*
X505463Y454730D01*
X503310Y455622D01*
X501000Y455926D01*
D02*
G37*
G36*
X606831Y394881D02*
X599529D01*
Y388270D01*
X606831D01*
Y394881D01*
D02*
G37*
G36*
X814000Y386568D02*
X812634Y386297D01*
X811477Y385523D01*
X810703Y384366D01*
X810431Y383000D01*
X810703Y381634D01*
X811477Y380477D01*
X812634Y379703D01*
X814000Y379431D01*
X815366Y379703D01*
X816523Y380477D01*
X817297Y381634D01*
X817569Y383000D01*
X817297Y384366D01*
X816523Y385523D01*
X815366Y386297D01*
X814000Y386568D01*
D02*
G37*
G36*
X606831Y385730D02*
X599529D01*
Y379119D01*
X606831D01*
Y385730D01*
D02*
G37*
G36*
X961000Y345573D02*
X958781Y345281D01*
X956713Y344425D01*
X954938Y343062D01*
X953575Y341287D01*
X952719Y339219D01*
X952427Y337000D01*
X952719Y334781D01*
X953575Y332713D01*
X954938Y330938D01*
X956713Y329575D01*
X958781Y328719D01*
X961000Y328427D01*
X963219Y328719D01*
X965287Y329575D01*
X967062Y330938D01*
X968425Y332713D01*
X969281Y334781D01*
X969573Y337000D01*
X969281Y339219D01*
X968425Y341287D01*
X967062Y343062D01*
X965287Y344425D01*
X963219Y345281D01*
X961000Y345573D01*
D02*
G37*
G36*
Y320173D02*
X958781Y319881D01*
X956713Y319025D01*
X954938Y317662D01*
X953575Y315887D01*
X952719Y313819D01*
X952427Y311600D01*
X952719Y309381D01*
X953575Y307313D01*
X954938Y305538D01*
X956713Y304175D01*
X958781Y303319D01*
X961000Y303027D01*
X963219Y303319D01*
X965287Y304175D01*
X967062Y305538D01*
X968425Y307313D01*
X969281Y309381D01*
X969573Y311600D01*
X969281Y313819D01*
X968425Y315887D01*
X967062Y317662D01*
X965287Y319025D01*
X963219Y319881D01*
X961000Y320173D01*
D02*
G37*
G36*
X969500Y294700D02*
X952500D01*
Y277700D01*
X969500D01*
Y294700D01*
D02*
G37*
G36*
X407111Y294283D02*
X404800Y293978D01*
X402647Y293087D01*
X400799Y291668D01*
X399380Y289819D01*
X398488Y287666D01*
X398184Y285356D01*
X398488Y283046D01*
X399380Y280893D01*
X400799Y279044D01*
X402647Y277626D01*
X404800Y276734D01*
X407111Y276430D01*
X409421Y276734D01*
X411574Y277626D01*
X413423Y279044D01*
X414841Y280893D01*
X415733Y283046D01*
X416037Y285356D01*
X415733Y287666D01*
X414841Y289819D01*
X413423Y291668D01*
X411574Y293087D01*
X409421Y293978D01*
X407111Y294283D01*
D02*
G37*
G36*
X960509Y250658D02*
Y241969D01*
X969198D01*
X969020Y243320D01*
X968009Y245762D01*
X966400Y247860D01*
X964302Y249469D01*
X961860Y250481D01*
X960509Y250658D01*
D02*
G37*
G36*
X957969D02*
X956618Y250481D01*
X954176Y249469D01*
X952078Y247860D01*
X950469Y245762D01*
X949457Y243320D01*
X949280Y241969D01*
X957969D01*
Y250658D01*
D02*
G37*
G36*
X969198Y239429D02*
X960509D01*
Y230740D01*
X961860Y230917D01*
X964302Y231929D01*
X966400Y233538D01*
X968009Y235636D01*
X969020Y238078D01*
X969198Y239429D01*
D02*
G37*
G36*
X957969D02*
X949280D01*
X949457Y238078D01*
X950469Y235636D01*
X952078Y233538D01*
X954176Y231929D01*
X956618Y230917D01*
X957969Y230740D01*
Y239429D01*
D02*
G37*
G36*
X185560Y336312D02*
X150000D01*
X149220Y336157D01*
X148558Y335715D01*
X148487Y335608D01*
X148238Y335442D01*
X147796Y334780D01*
X147641Y334000D01*
Y308600D01*
Y283200D01*
Y257800D01*
Y232400D01*
X147796Y231620D01*
X148238Y230958D01*
X148900Y230516D01*
X149680Y230361D01*
X185240D01*
X186020Y230516D01*
X186682Y230958D01*
X186753Y231064D01*
X187002Y231231D01*
X187444Y231892D01*
X187599Y232673D01*
Y258073D01*
Y283473D01*
Y308873D01*
Y334273D01*
X187444Y335053D01*
X187002Y335715D01*
X186340Y336157D01*
X185560Y336312D01*
D02*
G37*
G36*
X959239Y223872D02*
X957020Y223580D01*
X954952Y222724D01*
X953177Y221361D01*
X951814Y219586D01*
X950958Y217518D01*
X950666Y215299D01*
X950958Y213080D01*
X951814Y211012D01*
X953177Y209237D01*
X954952Y207874D01*
X957020Y207018D01*
X959239Y206726D01*
X961458Y207018D01*
X963526Y207874D01*
X965301Y209237D01*
X966664Y211012D01*
X967520Y213080D01*
X967812Y215299D01*
X967520Y217518D01*
X966664Y219586D01*
X965301Y221361D01*
X963526Y222724D01*
X961458Y223580D01*
X959239Y223872D01*
D02*
G37*
G36*
Y198472D02*
X957020Y198180D01*
X954952Y197324D01*
X953177Y195961D01*
X951814Y194186D01*
X950958Y192118D01*
X950666Y189899D01*
X950958Y187680D01*
X951814Y185612D01*
X953177Y183837D01*
X954952Y182474D01*
X957020Y181618D01*
X959239Y181326D01*
X961458Y181618D01*
X963526Y182474D01*
X965301Y183837D01*
X966664Y185612D01*
X967520Y187680D01*
X967812Y189899D01*
X967520Y192118D01*
X966664Y194186D01*
X965301Y195961D01*
X963526Y197324D01*
X961458Y198180D01*
X959239Y198472D01*
D02*
G37*
G36*
X967739Y172999D02*
X950739D01*
Y155999D01*
X967739D01*
Y172999D01*
D02*
G37*
G36*
X725500Y161500D02*
X708500D01*
Y144500D01*
X725500D01*
Y161500D01*
D02*
G37*
G36*
X778728Y162168D02*
X776418Y161864D01*
X774265Y160972D01*
X772416Y159553D01*
X770998Y157704D01*
X770106Y155552D01*
X769802Y153241D01*
X770106Y150931D01*
X770998Y148778D01*
X772416Y146929D01*
X774265Y145511D01*
X776418Y144619D01*
X778728Y144315D01*
X781039Y144619D01*
X783192Y145511D01*
X785040Y146929D01*
X786459Y148778D01*
X787350Y150931D01*
X787655Y153241D01*
X787350Y155552D01*
X786459Y157704D01*
X785040Y159553D01*
X783192Y160972D01*
X781039Y161864D01*
X778728Y162168D01*
D02*
G37*
G36*
X718270Y137559D02*
Y128870D01*
X726959D01*
X726781Y130221D01*
X725770Y132663D01*
X724161Y134761D01*
X722063Y136370D01*
X719621Y137381D01*
X718270Y137559D01*
D02*
G37*
G36*
X715730D02*
X714379Y137381D01*
X711937Y136370D01*
X709839Y134761D01*
X708230Y132663D01*
X707218Y130221D01*
X707040Y128870D01*
X715730D01*
Y137559D01*
D02*
G37*
G36*
X726959Y126330D02*
X718270D01*
Y117640D01*
X719621Y117818D01*
X722063Y118830D01*
X724161Y120439D01*
X725770Y122537D01*
X726781Y124979D01*
X726959Y126330D01*
D02*
G37*
G36*
X715730D02*
X707040D01*
X707218Y124979D01*
X708230Y122537D01*
X709839Y120439D01*
X711937Y118830D01*
X714379Y117818D01*
X715730Y117640D01*
Y126330D01*
D02*
G37*
G36*
X950000Y76126D02*
X944903Y75624D01*
X940002Y74137D01*
X935485Y71723D01*
X931526Y68474D01*
X928277Y64515D01*
X925863Y59998D01*
X924376Y55097D01*
X923874Y50000D01*
X924376Y44903D01*
X925863Y40002D01*
X928277Y35485D01*
X931526Y31526D01*
X935485Y28277D01*
X940002Y25863D01*
X944903Y24376D01*
X950000Y23874D01*
X955097Y24376D01*
X959998Y25863D01*
X964515Y28277D01*
X968474Y31526D01*
X971723Y35485D01*
X974137Y40002D01*
X975624Y44903D01*
X976126Y50000D01*
X975624Y55097D01*
X974137Y59998D01*
X971723Y64515D01*
X968474Y68474D01*
X964515Y71723D01*
X959998Y74137D01*
X955097Y75624D01*
X950000Y76126D01*
D02*
G37*
G36*
X49000D02*
X43903Y75624D01*
X39002Y74137D01*
X34485Y71723D01*
X30526Y68474D01*
X27277Y64515D01*
X24863Y59998D01*
X23376Y55097D01*
X22874Y50000D01*
X23376Y44903D01*
X24863Y40002D01*
X27277Y35485D01*
X30526Y31526D01*
X34485Y28277D01*
X39002Y25863D01*
X43903Y24376D01*
X49000Y23874D01*
X54097Y24376D01*
X58998Y25863D01*
X63515Y28277D01*
X67474Y31526D01*
X70723Y35485D01*
X73137Y40002D01*
X74624Y44903D01*
X75126Y50000D01*
X74624Y55097D01*
X73137Y59998D01*
X70723Y64515D01*
X67474Y68474D01*
X63515Y71723D01*
X58998Y74137D01*
X54097Y75624D01*
X49000Y76126D01*
D02*
G37*
%LPD*%
G36*
X570750Y424750D02*
X617750D01*
X629000Y436000D01*
X668000D01*
Y413000D01*
X557000D01*
X554000Y416000D01*
Y444000D01*
X570750D01*
Y424750D01*
D02*
G37*
G36*
X183201Y310912D02*
X152039D01*
Y331961D01*
X183201D01*
Y310912D01*
D02*
G37*
G36*
Y285512D02*
X152039D01*
Y306561D01*
X183201D01*
Y285512D01*
D02*
G37*
G36*
Y260112D02*
X152039D01*
Y281161D01*
X183201D01*
Y260112D01*
D02*
G37*
G36*
Y234712D02*
X177151D01*
X176000Y235000D01*
X176000Y235982D01*
Y253996D01*
X161336D01*
Y235982D01*
X161336Y235000D01*
X160186Y234712D01*
X152039D01*
Y255761D01*
X183201D01*
Y234712D01*
D02*
G37*
D14*
X185560Y308873D02*
Y334273D01*
Y258073D02*
Y283473D01*
X185240Y232400D02*
Y257800D01*
X185560Y283473D02*
Y308873D01*
Y232673D02*
Y258073D01*
X185240Y257800D02*
Y283200D01*
Y232400D02*
Y257800D01*
Y283200D01*
Y308600D02*
Y334000D01*
Y283200D02*
Y308600D01*
Y334000D01*
Y283200D02*
Y308600D01*
Y257800D02*
Y283200D01*
Y232400D02*
Y257800D01*
Y283200D02*
Y308600D01*
Y334000D01*
X149680Y232400D02*
X185240D01*
X149680D02*
Y257800D01*
X185240D01*
X150000Y334273D02*
X185560D01*
X150000Y308873D02*
X185560D01*
X150000Y283473D02*
X185560D01*
X150000Y308873D02*
Y334273D01*
Y258073D02*
Y283473D01*
Y308873D01*
Y258073D02*
X185560D01*
X150000Y232673D02*
Y258073D01*
Y232673D02*
X185560D01*
X149680Y232400D02*
Y257800D01*
X185240D01*
X149680D02*
Y283200D01*
Y257800D02*
Y283200D01*
Y334000D02*
X185240D01*
X149680Y283200D02*
X185240D01*
X149680Y308600D02*
X185240D01*
X149680Y283200D02*
X185240D01*
X149680Y308600D02*
X185240D01*
X149680Y334000D02*
X185240D01*
X149680Y283200D02*
Y308600D01*
Y334000D01*
Y283200D02*
Y308600D01*
Y334000D01*
X185240D01*
X149680Y308600D02*
X185240D01*
X149680Y283200D02*
X185240D01*
X149680Y232400D02*
X185240D01*
X149680Y308600D02*
Y334000D01*
Y257800D02*
Y283200D01*
Y308600D01*
Y257800D02*
X185240D01*
X149680Y232400D02*
Y257800D01*
Y232400D02*
X185240D01*
X166502Y238000D02*
Y250996D01*
X173000Y244498D01*
X164336D01*
D92*
X631000Y477000D02*
D03*
X506000Y397000D02*
D03*
X407111Y285356D02*
D03*
X501000Y447000D02*
D03*
X701000Y370000D02*
D03*
X333000Y430000D02*
D03*
X562000Y525000D02*
D03*
X778728Y153241D02*
D03*
X730000Y495000D02*
D03*
Y460229D02*
D03*
X727000Y581000D02*
D03*
X856000Y552800D02*
D03*
X866000Y440000D02*
D03*
D99*
X649000Y465000D02*
X727000Y543000D01*
Y581000D01*
X542024Y415669D02*
X547406D01*
X554733Y408342D01*
X540884Y414529D02*
X542024Y415669D01*
X540370Y414529D02*
X540884D01*
X581741Y387000D02*
Y396255D01*
X575010Y402987D02*
X581741Y396255D01*
X578741Y384000D02*
X581741Y387000D01*
X524000Y384000D02*
X578741D01*
X527000Y413000D02*
X538841D01*
X540370Y414529D01*
X501000Y447000D02*
X548500D01*
X559000Y436500D01*
X510000Y398000D02*
X524000Y384000D01*
X957882Y362400D02*
X961000D01*
X822117Y359880D02*
X829237Y367000D01*
X953282D02*
X957882Y362400D01*
X829237Y367000D02*
X953282D01*
X487795Y466795D02*
X579667D01*
X484000Y463000D02*
X487795Y466795D01*
X484000Y388000D02*
Y463000D01*
X512120Y359880D02*
X822117D01*
X484000Y388000D02*
X512120Y359880D01*
X554733Y408342D02*
X614644D01*
X618486Y404500D02*
X959239D01*
X614644Y408342D02*
X618486Y404500D01*
X881989Y495000D02*
X959239Y572250D01*
X730000Y495000D02*
X881989D01*
X877789Y440000D02*
X959239Y521450D01*
X866000Y440000D02*
X877789D01*
X730000Y460229D02*
X872618D01*
X959239Y546850D01*
D101*
X631000Y502000D02*
D03*
D102*
X717000Y127600D02*
D03*
X959239Y189899D02*
D03*
Y215299D02*
D03*
Y240699D02*
D03*
X961000Y311600D02*
D03*
Y337000D02*
D03*
Y362400D02*
D03*
X959239Y429900D02*
D03*
Y455300D02*
D03*
Y480700D02*
D03*
X959239Y546850D02*
D03*
Y572250D02*
D03*
Y597650D02*
D03*
X652400Y535000D02*
D03*
X627000D02*
D03*
X267900Y422981D02*
D03*
X458600Y664000D02*
D03*
D103*
X717000Y153000D02*
D03*
X959239Y164499D02*
D03*
X961000Y286200D02*
D03*
X959239Y404500D02*
D03*
X959239Y521450D02*
D03*
D104*
X601600Y535000D02*
D03*
X293300Y422981D02*
D03*
X484000Y664000D02*
D03*
D105*
X950000Y50000D02*
D03*
Y950000D02*
D03*
X49000Y50000D02*
D03*
X49000Y950000D02*
D03*
D106*
X649000Y465000D02*
D03*
X614000Y438000D02*
D03*
X613000Y448646D02*
D03*
X295170Y600373D02*
D03*
X544000Y410899D02*
D03*
X527000Y413000D02*
D03*
X657000Y419000D02*
D03*
X656000Y430000D02*
D03*
X643000Y429500D02*
D03*
Y418500D02*
D03*
X559000Y436500D02*
D03*
X575010Y402987D02*
D03*
X614000Y428250D02*
D03*
X597000Y401500D02*
D03*
X297000Y509000D02*
D03*
X385000Y508000D02*
D03*
X582000Y428500D02*
D03*
Y439500D02*
D03*
X386750Y525000D02*
D03*
Y535000D02*
D03*
X396750Y525000D02*
D03*
Y535000D02*
D03*
X561000Y618000D02*
D03*
X428000Y444000D02*
D03*
X519000Y591000D02*
D03*
X788000Y549000D02*
D03*
X579667Y466795D02*
D03*
X476010Y415129D02*
D03*
X398354Y430431D02*
D03*
X405000Y424000D02*
D03*
X385000Y439000D02*
D03*
X412000Y548000D02*
D03*
X579000Y726000D02*
D03*
X651000Y618000D02*
D03*
X553000Y457000D02*
D03*
X433995Y419005D02*
D03*
X578469Y499326D02*
D03*
X801000Y423000D02*
D03*
X814000Y383000D02*
D03*
X299000Y583000D02*
D03*
X314000Y591000D02*
D03*
D107*
X577641Y436000D02*
D03*
X564359D02*
D03*
D108*
X581741Y387000D02*
D03*
X598259D02*
D03*
M02*
