G04*
G04 #@! TF.GenerationSoftware,Altium Limited,Altium Designer,22.2.1 (43)*
G04*
G04 Layer_Color=32896*
%FSLAX44Y44*%
%MOMM*%
G71*
G04*
G04 #@! TF.SameCoordinates,09C73F61-2481-4693-A516-3075C6E7F38E*
G04*
G04*
G04 #@! TF.FilePolarity,Positive*
G04*
G01*
G75*
%ADD14C,0.2000*%
G36*
X574066Y456631D02*
X574302Y456594D01*
X574509Y456550D01*
X574605Y456520D01*
X574694Y456491D01*
X574775Y456461D01*
X574849Y456432D01*
X574908Y456410D01*
X574968Y456387D01*
X575005Y456365D01*
X575034Y456350D01*
X575056Y456343D01*
X575064Y456336D01*
X575263Y456210D01*
X575433Y456062D01*
X575581Y455914D01*
X575707Y455766D01*
X575803Y455634D01*
X575840Y455574D01*
X575869Y455523D01*
X575899Y455486D01*
X575914Y455456D01*
X575921Y455434D01*
X575928Y455426D01*
X576032Y455197D01*
X576106Y454961D01*
X576158Y454724D01*
X576195Y454510D01*
X576209Y454414D01*
X576217Y454318D01*
X576224Y454244D01*
Y454170D01*
X576231Y454118D01*
Y454074D01*
Y454044D01*
Y454037D01*
X576217Y453771D01*
X576187Y453512D01*
X576150Y453283D01*
X576121Y453172D01*
X576099Y453076D01*
X576076Y452987D01*
X576047Y452906D01*
X576025Y452832D01*
X576010Y452773D01*
X575988Y452729D01*
X575980Y452692D01*
X575965Y452669D01*
Y452662D01*
X575855Y452440D01*
X575729Y452241D01*
X575596Y452071D01*
X575529Y452004D01*
X575470Y451938D01*
X575411Y451879D01*
X575352Y451827D01*
X575300Y451782D01*
X575256Y451753D01*
X575226Y451723D01*
X575197Y451701D01*
X575182Y451694D01*
X575174Y451686D01*
X575071Y451627D01*
X574968Y451576D01*
X574746Y451494D01*
X574524Y451435D01*
X574310Y451398D01*
X574206Y451383D01*
X574118Y451369D01*
X574036Y451361D01*
X573970D01*
X573911Y451354D01*
X573829D01*
X573681Y451361D01*
X573541Y451376D01*
X573408Y451391D01*
X573282Y451420D01*
X573164Y451457D01*
X573053Y451494D01*
X572950Y451531D01*
X572854Y451576D01*
X572772Y451613D01*
X572691Y451650D01*
X572632Y451686D01*
X572573Y451723D01*
X572536Y451753D01*
X572499Y451768D01*
X572484Y451782D01*
X572477Y451790D01*
X572373Y451879D01*
X572285Y451967D01*
X572203Y452071D01*
X572122Y452174D01*
X571989Y452381D01*
X571885Y452588D01*
X571841Y452684D01*
X571804Y452773D01*
X571774Y452854D01*
X571752Y452921D01*
X571730Y452980D01*
X571715Y453024D01*
X571708Y453054D01*
Y453061D01*
X572388Y453231D01*
X572417Y453113D01*
X572454Y453002D01*
X572491Y452899D01*
X572528Y452803D01*
X572573Y452714D01*
X572617Y452640D01*
X572669Y452566D01*
X572713Y452500D01*
X572750Y452440D01*
X572794Y452396D01*
X572831Y452352D01*
X572861Y452315D01*
X572891Y452293D01*
X572913Y452270D01*
X572920Y452263D01*
X572928Y452256D01*
X573002Y452197D01*
X573083Y452152D01*
X573245Y452071D01*
X573401Y452012D01*
X573556Y451975D01*
X573689Y451945D01*
X573741Y451938D01*
X573792D01*
X573837Y451930D01*
X573888D01*
X574058Y451938D01*
X574221Y451967D01*
X574369Y452004D01*
X574502Y452049D01*
X574605Y452093D01*
X574650Y452115D01*
X574687Y452130D01*
X574716Y452145D01*
X574738Y452160D01*
X574753Y452167D01*
X574761D01*
X574901Y452270D01*
X575019Y452381D01*
X575123Y452507D01*
X575204Y452625D01*
X575271Y452729D01*
X575315Y452817D01*
X575330Y452854D01*
X575345Y452877D01*
X575352Y452891D01*
Y452899D01*
X575411Y453091D01*
X575455Y453283D01*
X575492Y453475D01*
X575514Y453653D01*
X575522Y453734D01*
X575529Y453808D01*
Y453874D01*
X575537Y453926D01*
Y453970D01*
Y454007D01*
Y454030D01*
Y454037D01*
X575529Y454229D01*
X575514Y454407D01*
X575485Y454569D01*
X575455Y454717D01*
X575433Y454843D01*
X575419Y454894D01*
X575404Y454939D01*
X575396Y454976D01*
X575389Y454998D01*
X575382Y455013D01*
Y455020D01*
X575308Y455190D01*
X575226Y455345D01*
X575138Y455471D01*
X575042Y455582D01*
X574960Y455670D01*
X574894Y455729D01*
X574842Y455766D01*
X574835Y455781D01*
X574827D01*
X574672Y455877D01*
X574502Y455951D01*
X574339Y456003D01*
X574184Y456033D01*
X574044Y456055D01*
X573984Y456062D01*
X573933D01*
X573896Y456069D01*
X573837D01*
X573652Y456062D01*
X573482Y456033D01*
X573341Y455988D01*
X573216Y455944D01*
X573120Y455892D01*
X573046Y455855D01*
X573002Y455826D01*
X572987Y455811D01*
X572868Y455700D01*
X572758Y455574D01*
X572669Y455441D01*
X572595Y455308D01*
X572536Y455190D01*
X572514Y455131D01*
X572499Y455087D01*
X572484Y455050D01*
X572469Y455020D01*
X572462Y455005D01*
Y454998D01*
X571797Y455153D01*
X571841Y455286D01*
X571885Y455404D01*
X571945Y455515D01*
X571996Y455626D01*
X572055Y455722D01*
X572122Y455811D01*
X572181Y455900D01*
X572240Y455974D01*
X572299Y456033D01*
X572351Y456092D01*
X572403Y456143D01*
X572440Y456180D01*
X572477Y456217D01*
X572506Y456240D01*
X572521Y456247D01*
X572528Y456254D01*
X572632Y456321D01*
X572735Y456387D01*
X572839Y456439D01*
X572950Y456483D01*
X573172Y456550D01*
X573371Y456594D01*
X573467Y456617D01*
X573548Y456624D01*
X573630Y456631D01*
X573696Y456639D01*
X573748Y456646D01*
X573822D01*
X574066Y456631D01*
D02*
G37*
G36*
X569587Y456572D02*
X569705Y456565D01*
X569912Y456520D01*
X570008Y456491D01*
X570097Y456461D01*
X570178Y456424D01*
X570252Y456387D01*
X570311Y456350D01*
X570370Y456314D01*
X570422Y456284D01*
X570459Y456254D01*
X570488Y456232D01*
X570511Y456210D01*
X570525Y456203D01*
X570533Y456195D01*
X570599Y456121D01*
X570666Y456047D01*
X570718Y455966D01*
X570762Y455885D01*
X570836Y455729D01*
X570880Y455582D01*
X570910Y455456D01*
X570917Y455397D01*
X570924Y455353D01*
X570932Y455308D01*
Y455279D01*
Y455264D01*
Y455257D01*
X570924Y455123D01*
X570902Y454998D01*
X570873Y454887D01*
X570836Y454791D01*
X570806Y454717D01*
X570777Y454658D01*
X570755Y454628D01*
X570747Y454613D01*
X570666Y454525D01*
X570577Y454443D01*
X570481Y454370D01*
X570385Y454310D01*
X570296Y454266D01*
X570230Y454236D01*
X570200Y454222D01*
X570178Y454214D01*
X570171Y454207D01*
X570163D01*
X570333Y454155D01*
X570474Y454089D01*
X570599Y454007D01*
X570703Y453933D01*
X570784Y453859D01*
X570843Y453800D01*
X570873Y453763D01*
X570887Y453756D01*
Y453749D01*
X570969Y453616D01*
X571035Y453475D01*
X571080Y453342D01*
X571109Y453209D01*
X571124Y453091D01*
X571131Y453039D01*
Y452995D01*
X571139Y452965D01*
Y452936D01*
Y452921D01*
Y452913D01*
X571131Y452795D01*
X571117Y452677D01*
X571095Y452566D01*
X571065Y452455D01*
X570991Y452270D01*
X570954Y452182D01*
X570910Y452108D01*
X570865Y452034D01*
X570828Y451975D01*
X570784Y451923D01*
X570755Y451879D01*
X570725Y451842D01*
X570703Y451819D01*
X570688Y451805D01*
X570681Y451797D01*
X570592Y451716D01*
X570496Y451650D01*
X570392Y451590D01*
X570289Y451539D01*
X570193Y451502D01*
X570089Y451465D01*
X569890Y451413D01*
X569801Y451391D01*
X569720Y451376D01*
X569646Y451369D01*
X569579Y451361D01*
X569528Y451354D01*
X569454D01*
X569313Y451361D01*
X569188Y451376D01*
X569062Y451398D01*
X568944Y451420D01*
X568840Y451457D01*
X568737Y451494D01*
X568641Y451531D01*
X568559Y451576D01*
X568485Y451620D01*
X568419Y451657D01*
X568367Y451694D01*
X568315Y451731D01*
X568278Y451753D01*
X568256Y451775D01*
X568241Y451790D01*
X568234Y451797D01*
X568153Y451886D01*
X568079Y451975D01*
X568020Y452063D01*
X567968Y452160D01*
X567916Y452248D01*
X567879Y452344D01*
X567827Y452514D01*
X567805Y452596D01*
X567790Y452669D01*
X567783Y452736D01*
X567776Y452788D01*
X567768Y452832D01*
Y452869D01*
Y452891D01*
Y452899D01*
X567776Y453069D01*
X567805Y453224D01*
X567850Y453364D01*
X567894Y453483D01*
X567938Y453579D01*
X567983Y453653D01*
X568012Y453697D01*
X568020Y453704D01*
Y453712D01*
X568123Y453830D01*
X568234Y453933D01*
X568352Y454015D01*
X568463Y454089D01*
X568567Y454140D01*
X568655Y454177D01*
X568685Y454192D01*
X568707Y454199D01*
X568722Y454207D01*
X568729D01*
X568596Y454266D01*
X568485Y454333D01*
X568389Y454399D01*
X568308Y454466D01*
X568249Y454525D01*
X568204Y454569D01*
X568175Y454599D01*
X568167Y454613D01*
X568101Y454717D01*
X568057Y454820D01*
X568020Y454924D01*
X567998Y455027D01*
X567983Y455109D01*
X567975Y455175D01*
Y455219D01*
Y455227D01*
Y455234D01*
X567983Y455338D01*
X567990Y455434D01*
X568042Y455619D01*
X568108Y455781D01*
X568182Y455922D01*
X568256Y456033D01*
X568293Y456077D01*
X568323Y456121D01*
X568352Y456151D01*
X568374Y456173D01*
X568382Y456180D01*
X568389Y456188D01*
X568470Y456254D01*
X568552Y456321D01*
X568641Y456373D01*
X568729Y456417D01*
X568907Y456483D01*
X569084Y456528D01*
X569158Y456550D01*
X569232Y456557D01*
X569298Y456565D01*
X569357Y456572D01*
X569402Y456580D01*
X569468D01*
X569587Y456572D01*
D02*
G37*
G36*
X616738Y390444D02*
X616863Y390437D01*
X616982Y390414D01*
X617093Y390392D01*
X617196Y390363D01*
X617292Y390333D01*
X617381Y390296D01*
X617462Y390259D01*
X617536Y390222D01*
X617595Y390185D01*
X617647Y390156D01*
X617691Y390126D01*
X617728Y390104D01*
X617750Y390082D01*
X617765Y390074D01*
X617773Y390067D01*
X617846Y389993D01*
X617913Y389912D01*
X617980Y389823D01*
X618031Y389734D01*
X618120Y389557D01*
X618179Y389380D01*
X618201Y389298D01*
X618223Y389217D01*
X618238Y389151D01*
X618253Y389091D01*
X618260Y389040D01*
Y389003D01*
X618268Y388980D01*
Y388973D01*
X617625Y388907D01*
X617610Y389077D01*
X617580Y389224D01*
X617536Y389357D01*
X617484Y389461D01*
X617440Y389550D01*
X617396Y389609D01*
X617366Y389646D01*
X617351Y389660D01*
X617240Y389749D01*
X617122Y389816D01*
X616996Y389867D01*
X616886Y389897D01*
X616782Y389919D01*
X616693Y389927D01*
X616664Y389934D01*
X616619D01*
X616464Y389927D01*
X616324Y389897D01*
X616206Y389853D01*
X616102Y389808D01*
X616021Y389757D01*
X615969Y389720D01*
X615932Y389690D01*
X615917Y389675D01*
X615829Y389572D01*
X615762Y389468D01*
X615710Y389365D01*
X615681Y389261D01*
X615659Y389180D01*
X615651Y389106D01*
X615644Y389062D01*
Y389054D01*
Y389047D01*
X615659Y388914D01*
X615688Y388773D01*
X615740Y388648D01*
X615792Y388530D01*
X615851Y388433D01*
X615902Y388352D01*
X615917Y388323D01*
X615932Y388301D01*
X615947Y388293D01*
Y388286D01*
X616006Y388204D01*
X616080Y388123D01*
X616161Y388034D01*
X616250Y387946D01*
X616435Y387768D01*
X616619Y387591D01*
X616716Y387510D01*
X616797Y387436D01*
X616878Y387369D01*
X616945Y387310D01*
X616996Y387266D01*
X617041Y387229D01*
X617070Y387206D01*
X617078Y387199D01*
X617262Y387044D01*
X617433Y386896D01*
X617573Y386763D01*
X617684Y386652D01*
X617780Y386556D01*
X617846Y386490D01*
X617883Y386445D01*
X617898Y386438D01*
Y386430D01*
X618002Y386305D01*
X618083Y386186D01*
X618157Y386068D01*
X618216Y385965D01*
X618260Y385876D01*
X618290Y385810D01*
X618305Y385765D01*
X618312Y385758D01*
Y385750D01*
X618342Y385669D01*
X618357Y385595D01*
X618371Y385521D01*
X618379Y385455D01*
X618386Y385396D01*
Y385351D01*
Y385322D01*
Y385314D01*
X614993D01*
Y385920D01*
X617514D01*
X617425Y386046D01*
X617381Y386098D01*
X617344Y386150D01*
X617307Y386194D01*
X617277Y386223D01*
X617255Y386246D01*
X617248Y386253D01*
X617211Y386290D01*
X617166Y386327D01*
X617063Y386423D01*
X616945Y386534D01*
X616819Y386645D01*
X616701Y386741D01*
X616649Y386785D01*
X616605Y386830D01*
X616568Y386859D01*
X616538Y386881D01*
X616523Y386896D01*
X616516Y386903D01*
X616398Y387007D01*
X616279Y387103D01*
X616176Y387199D01*
X616080Y387281D01*
X615991Y387362D01*
X615917Y387436D01*
X615843Y387502D01*
X615784Y387561D01*
X615725Y387621D01*
X615681Y387665D01*
X615644Y387702D01*
X615607Y387739D01*
X615570Y387783D01*
X615555Y387798D01*
X615452Y387924D01*
X615363Y388034D01*
X615289Y388145D01*
X615230Y388234D01*
X615186Y388315D01*
X615156Y388374D01*
X615141Y388411D01*
X615134Y388426D01*
X615089Y388537D01*
X615060Y388648D01*
X615030Y388751D01*
X615016Y388840D01*
X615008Y388921D01*
X615001Y388980D01*
Y389017D01*
Y389032D01*
X615008Y389143D01*
X615023Y389247D01*
X615038Y389350D01*
X615067Y389439D01*
X615141Y389616D01*
X615215Y389757D01*
X615260Y389823D01*
X615296Y389875D01*
X615333Y389927D01*
X615370Y389963D01*
X615400Y389993D01*
X615415Y390023D01*
X615429Y390030D01*
X615437Y390037D01*
X615518Y390111D01*
X615607Y390178D01*
X615703Y390230D01*
X615799Y390274D01*
X615991Y390348D01*
X616183Y390400D01*
X616265Y390414D01*
X616346Y390429D01*
X616420Y390437D01*
X616479Y390444D01*
X616531Y390451D01*
X616605D01*
X616738Y390444D01*
D02*
G37*
G36*
X621232Y390503D02*
X621468Y390466D01*
X621675Y390422D01*
X621771Y390392D01*
X621860Y390363D01*
X621941Y390333D01*
X622015Y390303D01*
X622074Y390281D01*
X622133Y390259D01*
X622170Y390237D01*
X622200Y390222D01*
X622222Y390215D01*
X622230Y390207D01*
X622429Y390082D01*
X622599Y389934D01*
X622747Y389786D01*
X622873Y389638D01*
X622969Y389505D01*
X623006Y389446D01*
X623035Y389394D01*
X623065Y389357D01*
X623080Y389328D01*
X623087Y389306D01*
X623094Y389298D01*
X623198Y389069D01*
X623272Y388833D01*
X623324Y388596D01*
X623360Y388382D01*
X623375Y388286D01*
X623383Y388190D01*
X623390Y388116D01*
Y388042D01*
X623397Y387990D01*
Y387946D01*
Y387916D01*
Y387909D01*
X623383Y387643D01*
X623353Y387384D01*
X623316Y387155D01*
X623287Y387044D01*
X623264Y386948D01*
X623242Y386859D01*
X623213Y386778D01*
X623190Y386704D01*
X623176Y386645D01*
X623153Y386600D01*
X623146Y386563D01*
X623131Y386541D01*
Y386534D01*
X623020Y386312D01*
X622895Y386113D01*
X622762Y385943D01*
X622695Y385876D01*
X622636Y385810D01*
X622577Y385750D01*
X622518Y385699D01*
X622466Y385654D01*
X622422Y385625D01*
X622392Y385595D01*
X622363Y385573D01*
X622348Y385566D01*
X622340Y385558D01*
X622237Y385499D01*
X622133Y385447D01*
X621912Y385366D01*
X621690Y385307D01*
X621476Y385270D01*
X621372Y385255D01*
X621283Y385240D01*
X621202Y385233D01*
X621136D01*
X621077Y385226D01*
X620995D01*
X620847Y385233D01*
X620707Y385248D01*
X620574Y385263D01*
X620448Y385292D01*
X620330Y385329D01*
X620219Y385366D01*
X620116Y385403D01*
X620019Y385447D01*
X619938Y385484D01*
X619857Y385521D01*
X619798Y385558D01*
X619739Y385595D01*
X619702Y385625D01*
X619665Y385640D01*
X619650Y385654D01*
X619643Y385662D01*
X619539Y385750D01*
X619450Y385839D01*
X619369Y385943D01*
X619288Y386046D01*
X619155Y386253D01*
X619051Y386460D01*
X619007Y386556D01*
X618970Y386645D01*
X618940Y386726D01*
X618918Y386793D01*
X618896Y386852D01*
X618881Y386896D01*
X618874Y386926D01*
Y386933D01*
X619554Y387103D01*
X619583Y386985D01*
X619620Y386874D01*
X619657Y386770D01*
X619694Y386674D01*
X619739Y386586D01*
X619783Y386512D01*
X619835Y386438D01*
X619879Y386371D01*
X619916Y386312D01*
X619960Y386268D01*
X619997Y386223D01*
X620027Y386186D01*
X620056Y386164D01*
X620079Y386142D01*
X620086Y386135D01*
X620093Y386127D01*
X620167Y386068D01*
X620249Y386024D01*
X620411Y385943D01*
X620566Y385883D01*
X620722Y385846D01*
X620855Y385817D01*
X620906Y385810D01*
X620958D01*
X621003Y385802D01*
X621054D01*
X621224Y385810D01*
X621387Y385839D01*
X621535Y385876D01*
X621668Y385920D01*
X621771Y385965D01*
X621816Y385987D01*
X621853Y386002D01*
X621882Y386017D01*
X621904Y386031D01*
X621919Y386039D01*
X621926D01*
X622067Y386142D01*
X622185Y386253D01*
X622289Y386379D01*
X622370Y386497D01*
X622436Y386600D01*
X622481Y386689D01*
X622496Y386726D01*
X622510Y386748D01*
X622518Y386763D01*
Y386770D01*
X622577Y386963D01*
X622621Y387155D01*
X622658Y387347D01*
X622680Y387524D01*
X622688Y387606D01*
X622695Y387680D01*
Y387746D01*
X622703Y387798D01*
Y387842D01*
Y387879D01*
Y387901D01*
Y387909D01*
X622695Y388101D01*
X622680Y388278D01*
X622651Y388441D01*
X622621Y388589D01*
X622599Y388714D01*
X622584Y388766D01*
X622570Y388811D01*
X622562Y388847D01*
X622555Y388870D01*
X622547Y388884D01*
Y388892D01*
X622473Y389062D01*
X622392Y389217D01*
X622304Y389343D01*
X622207Y389454D01*
X622126Y389542D01*
X622060Y389601D01*
X622008Y389638D01*
X622000Y389653D01*
X621993D01*
X621838Y389749D01*
X621668Y389823D01*
X621505Y389875D01*
X621350Y389904D01*
X621210Y389927D01*
X621150Y389934D01*
X621099D01*
X621062Y389941D01*
X621003D01*
X620818Y389934D01*
X620648Y389904D01*
X620507Y389860D01*
X620382Y389816D01*
X620286Y389764D01*
X620212Y389727D01*
X620167Y389697D01*
X620153Y389683D01*
X620034Y389572D01*
X619923Y389446D01*
X619835Y389313D01*
X619761Y389180D01*
X619702Y389062D01*
X619679Y389003D01*
X619665Y388958D01*
X619650Y388921D01*
X619635Y388892D01*
X619628Y388877D01*
Y388870D01*
X618963Y389025D01*
X619007Y389158D01*
X619051Y389276D01*
X619110Y389387D01*
X619162Y389498D01*
X619221Y389594D01*
X619288Y389683D01*
X619347Y389771D01*
X619406Y389845D01*
X619465Y389904D01*
X619517Y389963D01*
X619569Y390015D01*
X619606Y390052D01*
X619643Y390089D01*
X619672Y390111D01*
X619687Y390119D01*
X619694Y390126D01*
X619798Y390193D01*
X619901Y390259D01*
X620005Y390311D01*
X620116Y390355D01*
X620337Y390422D01*
X620537Y390466D01*
X620633Y390488D01*
X620714Y390496D01*
X620796Y390503D01*
X620862Y390510D01*
X620914Y390518D01*
X620988D01*
X621232Y390503D01*
D02*
G37*
G36*
X612850Y390437D02*
X613035Y390407D01*
X613190Y390355D01*
X613323Y390303D01*
X613434Y390244D01*
X613478Y390222D01*
X613515Y390193D01*
X613545Y390178D01*
X613567Y390163D01*
X613574Y390148D01*
X613582D01*
X613715Y390030D01*
X613825Y389890D01*
X613922Y389749D01*
X613996Y389616D01*
X614055Y389491D01*
X614084Y389439D01*
X614099Y389387D01*
X614114Y389350D01*
X614129Y389320D01*
X614136Y389306D01*
Y389298D01*
X614165Y389187D01*
X614195Y389077D01*
X614240Y388833D01*
X614276Y388589D01*
X614299Y388360D01*
X614306Y388249D01*
X614313Y388153D01*
Y388064D01*
X614321Y387983D01*
Y387924D01*
Y387872D01*
Y387842D01*
Y387835D01*
X614313Y387576D01*
X614299Y387332D01*
X614276Y387110D01*
X614240Y386903D01*
X614202Y386711D01*
X614158Y386541D01*
X614114Y386386D01*
X614070Y386253D01*
X614025Y386135D01*
X613973Y386031D01*
X613936Y385943D01*
X613899Y385876D01*
X613862Y385817D01*
X613840Y385780D01*
X613825Y385758D01*
X613818Y385750D01*
X613737Y385662D01*
X613648Y385580D01*
X613552Y385507D01*
X613456Y385447D01*
X613360Y385396D01*
X613264Y385351D01*
X613168Y385322D01*
X613079Y385292D01*
X612990Y385270D01*
X612909Y385255D01*
X612835Y385240D01*
X612776Y385233D01*
X612724Y385226D01*
X612650D01*
X612451Y385240D01*
X612266Y385270D01*
X612111Y385322D01*
X611978Y385373D01*
X611867Y385425D01*
X611830Y385455D01*
X611793Y385477D01*
X611763Y385492D01*
X611741Y385507D01*
X611734Y385521D01*
X611726D01*
X611593Y385647D01*
X611483Y385780D01*
X611386Y385928D01*
X611312Y386061D01*
X611253Y386186D01*
X611224Y386238D01*
X611209Y386290D01*
X611194Y386327D01*
X611179Y386357D01*
X611172Y386371D01*
Y386379D01*
X611135Y386490D01*
X611105Y386600D01*
X611061Y386837D01*
X611024Y387081D01*
X611002Y387317D01*
X610995Y387421D01*
X610987Y387517D01*
Y387606D01*
X610980Y387687D01*
Y387746D01*
Y387798D01*
Y387827D01*
Y387835D01*
Y387975D01*
X610987Y388108D01*
Y388227D01*
X610995Y388345D01*
X611009Y388448D01*
X611017Y388552D01*
X611024Y388641D01*
X611039Y388722D01*
X611046Y388796D01*
X611061Y388862D01*
X611069Y388914D01*
X611076Y388958D01*
X611083Y388995D01*
X611091Y389017D01*
X611098Y389032D01*
Y389040D01*
X611143Y389202D01*
X611194Y389350D01*
X611253Y389476D01*
X611298Y389587D01*
X611349Y389683D01*
X611379Y389749D01*
X611409Y389786D01*
X611416Y389801D01*
X611497Y389912D01*
X611579Y390008D01*
X611667Y390089D01*
X611749Y390163D01*
X611823Y390215D01*
X611882Y390252D01*
X611919Y390274D01*
X611926Y390281D01*
X611933D01*
X612052Y390340D01*
X612177Y390378D01*
X612295Y390407D01*
X612406Y390429D01*
X612503Y390444D01*
X612584Y390451D01*
X612650D01*
X612850Y390437D01*
D02*
G37*
%LPC*%
G36*
X569513Y456062D02*
X569454D01*
X569328Y456055D01*
X569210Y456025D01*
X569114Y455988D01*
X569025Y455944D01*
X568958Y455900D01*
X568907Y455863D01*
X568870Y455833D01*
X568862Y455826D01*
X568781Y455729D01*
X568722Y455634D01*
X568677Y455537D01*
X568648Y455449D01*
X568633Y455367D01*
X568618Y455301D01*
Y455257D01*
Y455249D01*
Y455242D01*
X568626Y455123D01*
X568655Y455013D01*
X568692Y454916D01*
X568737Y454835D01*
X568781Y454769D01*
X568818Y454724D01*
X568848Y454687D01*
X568855Y454680D01*
X568944Y454606D01*
X569047Y454547D01*
X569143Y454510D01*
X569239Y454480D01*
X569328Y454466D01*
X569394Y454458D01*
X569439Y454451D01*
X569454D01*
X569587Y454458D01*
X569705Y454488D01*
X569808Y454525D01*
X569897Y454569D01*
X569964Y454606D01*
X570015Y454643D01*
X570052Y454673D01*
X570060Y454680D01*
X570134Y454769D01*
X570193Y454872D01*
X570230Y454968D01*
X570259Y455064D01*
X570274Y455146D01*
X570281Y455212D01*
X570289Y455257D01*
Y455264D01*
Y455271D01*
X570281Y455390D01*
X570252Y455493D01*
X570215Y455589D01*
X570171Y455670D01*
X570134Y455737D01*
X570097Y455789D01*
X570067Y455818D01*
X570060Y455826D01*
X569964Y455907D01*
X569868Y455966D01*
X569764Y456003D01*
X569668Y456033D01*
X569579Y456047D01*
X569513Y456062D01*
D02*
G37*
G36*
X569520Y453941D02*
X569476D01*
X569313Y453926D01*
X569165Y453896D01*
X569032Y453845D01*
X568921Y453793D01*
X568833Y453734D01*
X568766Y453682D01*
X568729Y453653D01*
X568714Y453638D01*
X568611Y453520D01*
X568537Y453394D01*
X568485Y453268D01*
X568448Y453157D01*
X568426Y453046D01*
X568419Y452965D01*
X568411Y452936D01*
Y452913D01*
Y452899D01*
Y452891D01*
X568426Y452736D01*
X568456Y452588D01*
X568507Y452463D01*
X568559Y452359D01*
X568611Y452278D01*
X568663Y452211D01*
X568692Y452174D01*
X568707Y452160D01*
X568825Y452063D01*
X568944Y451990D01*
X569069Y451945D01*
X569188Y451908D01*
X569291Y451886D01*
X569380Y451879D01*
X569409Y451871D01*
X569454D01*
X569557Y451879D01*
X569661Y451893D01*
X569757Y451916D01*
X569838Y451938D01*
X569905Y451960D01*
X569956Y451982D01*
X569986Y451997D01*
X570001Y452004D01*
X570089Y452063D01*
X570163Y452122D01*
X570230Y452189D01*
X570281Y452256D01*
X570326Y452307D01*
X570355Y452352D01*
X570370Y452389D01*
X570378Y452396D01*
X570415Y452492D01*
X570444Y452581D01*
X570466Y452669D01*
X570481Y452751D01*
X570488Y452817D01*
X570496Y452869D01*
Y452899D01*
Y452913D01*
X570481Y453069D01*
X570451Y453209D01*
X570407Y453335D01*
X570348Y453446D01*
X570296Y453527D01*
X570252Y453593D01*
X570222Y453630D01*
X570207Y453645D01*
X570097Y453741D01*
X569971Y453815D01*
X569853Y453867D01*
X569734Y453904D01*
X569631Y453926D01*
X569550Y453933D01*
X569520Y453941D01*
D02*
G37*
G36*
X612702Y389934D02*
X612658D01*
X612576Y389927D01*
X612495Y389919D01*
X612421Y389897D01*
X612355Y389867D01*
X612229Y389801D01*
X612118Y389727D01*
X612037Y389646D01*
X611970Y389579D01*
X611948Y389550D01*
X611933Y389527D01*
X611919Y389520D01*
Y389513D01*
X611867Y389424D01*
X611823Y389320D01*
X611778Y389202D01*
X611749Y389077D01*
X611719Y388943D01*
X611697Y388803D01*
X611660Y388522D01*
X611645Y388382D01*
X611638Y388256D01*
X611630Y388138D01*
Y388042D01*
X611623Y387953D01*
Y387887D01*
Y387850D01*
Y387842D01*
Y387835D01*
Y387606D01*
X611638Y387399D01*
X611652Y387214D01*
X611667Y387037D01*
X611689Y386889D01*
X611719Y386748D01*
X611749Y386630D01*
X611771Y386519D01*
X611800Y386430D01*
X611830Y386357D01*
X611852Y386290D01*
X611882Y386238D01*
X611896Y386201D01*
X611911Y386179D01*
X611926Y386164D01*
Y386157D01*
X611985Y386083D01*
X612044Y386024D01*
X612103Y385965D01*
X612163Y385920D01*
X612288Y385846D01*
X612399Y385795D01*
X612503Y385765D01*
X612576Y385750D01*
X612606Y385743D01*
X612650D01*
X612732Y385750D01*
X612805Y385758D01*
X612946Y385810D01*
X613072Y385876D01*
X613182Y385950D01*
X613264Y386024D01*
X613330Y386090D01*
X613367Y386142D01*
X613382Y386150D01*
Y386157D01*
X613434Y386246D01*
X613478Y386349D01*
X613522Y386467D01*
X613552Y386593D01*
X613582Y386726D01*
X613604Y386866D01*
X613641Y387155D01*
X613656Y387288D01*
X613663Y387413D01*
X613670Y387532D01*
Y387628D01*
X613678Y387716D01*
Y387783D01*
Y387820D01*
Y387835D01*
X613670Y388064D01*
X613663Y388271D01*
X613648Y388463D01*
X613626Y388641D01*
X613604Y388796D01*
X613574Y388936D01*
X613545Y389062D01*
X613515Y389173D01*
X613485Y389269D01*
X613463Y389350D01*
X613434Y389417D01*
X613412Y389476D01*
X613390Y389513D01*
X613375Y389542D01*
X613360Y389557D01*
Y389564D01*
X613308Y389631D01*
X613256Y389690D01*
X613197Y389734D01*
X613138Y389779D01*
X613020Y389845D01*
X612909Y389890D01*
X612813Y389912D01*
X612732Y389927D01*
X612702Y389934D01*
D02*
G37*
%LPD*%
D14*
X558469Y424750D02*
X583531D01*
X558469Y447250D02*
X583531D01*
X575709Y396341D02*
X604291D01*
X575709Y377659D02*
X604291D01*
M02*
