G04*
G04 #@! TF.GenerationSoftware,Altium Limited,Altium Designer,22.2.1 (43)*
G04*
G04 Layer_Physical_Order=2*
G04 Layer_Color=12811406*
%FSLAX44Y44*%
%MOMM*%
G71*
G04*
G04 #@! TF.SameCoordinates,09C73F61-2481-4693-A516-3075C6E7F38E*
G04*
G04*
G04 #@! TF.FilePolarity,Positive*
G04*
G01*
G75*
%ADD13C,0.1500*%
%ADD14C,0.2000*%
%ADD99C,0.2540*%
%ADD100C,0.7000*%
%ADD102C,1.5000*%
%ADD106C,0.5000*%
G36*
X167777Y303850D02*
X167925Y303832D01*
X168111Y303813D01*
X168314Y303776D01*
X168518Y303739D01*
X168999Y303610D01*
X169481Y303425D01*
X169722Y303314D01*
X169962Y303184D01*
X170184Y303017D01*
X170388Y302832D01*
X170407Y302814D01*
X170444Y302795D01*
X170481Y302721D01*
X170555Y302647D01*
X170647Y302554D01*
X170740Y302425D01*
X170833Y302295D01*
X170944Y302129D01*
X171129Y301777D01*
X171314Y301332D01*
X171388Y301110D01*
X171425Y300851D01*
X171462Y300592D01*
X171481Y300314D01*
Y300277D01*
Y300184D01*
X171462Y300036D01*
X171444Y299832D01*
X171406Y299610D01*
X171332Y299351D01*
X171258Y299073D01*
X171147Y298796D01*
X171129Y298759D01*
X171092Y298666D01*
X171018Y298518D01*
X170907Y298314D01*
X170758Y298092D01*
X170573Y297814D01*
X170351Y297536D01*
X170092Y297222D01*
X170055Y297185D01*
X169962Y297073D01*
X169870Y296981D01*
X169777Y296888D01*
X169666Y296777D01*
X169518Y296629D01*
X169370Y296481D01*
X169184Y296314D01*
X168999Y296129D01*
X168777Y295925D01*
X168536Y295722D01*
X168277Y295481D01*
X167981Y295240D01*
X167685Y294981D01*
X167666Y294963D01*
X167629Y294925D01*
X167555Y294870D01*
X167463Y294796D01*
X167351Y294685D01*
X167222Y294574D01*
X166926Y294333D01*
X166611Y294055D01*
X166315Y293778D01*
X166055Y293537D01*
X165944Y293444D01*
X165852Y293352D01*
X165833Y293333D01*
X165777Y293277D01*
X165703Y293204D01*
X165611Y293092D01*
X165518Y292963D01*
X165407Y292833D01*
X165185Y292518D01*
X171499D01*
Y291000D01*
X163000D01*
Y291019D01*
Y291093D01*
Y291204D01*
X163018Y291352D01*
X163037Y291518D01*
X163074Y291704D01*
X163111Y291889D01*
X163185Y292092D01*
Y292111D01*
X163204Y292129D01*
X163241Y292241D01*
X163315Y292407D01*
X163426Y292630D01*
X163574Y292889D01*
X163759Y293185D01*
X163963Y293481D01*
X164222Y293796D01*
Y293815D01*
X164259Y293833D01*
X164352Y293944D01*
X164518Y294111D01*
X164759Y294352D01*
X165037Y294629D01*
X165389Y294963D01*
X165814Y295333D01*
X166277Y295722D01*
X166296Y295740D01*
X166370Y295796D01*
X166481Y295888D01*
X166611Y296000D01*
X166777Y296148D01*
X166981Y296314D01*
X167185Y296499D01*
X167425Y296703D01*
X167888Y297148D01*
X168351Y297592D01*
X168573Y297814D01*
X168777Y298036D01*
X168962Y298240D01*
X169111Y298444D01*
Y298462D01*
X169147Y298481D01*
X169184Y298536D01*
X169222Y298610D01*
X169351Y298814D01*
X169499Y299055D01*
X169629Y299351D01*
X169759Y299666D01*
X169833Y300018D01*
X169870Y300351D01*
Y300369D01*
Y300388D01*
X169851Y300499D01*
X169833Y300684D01*
X169777Y300888D01*
X169703Y301147D01*
X169573Y301406D01*
X169407Y301666D01*
X169184Y301925D01*
X169147Y301962D01*
X169055Y302036D01*
X168925Y302129D01*
X168722Y302258D01*
X168462Y302369D01*
X168166Y302480D01*
X167814Y302554D01*
X167425Y302573D01*
X167314D01*
X167240Y302554D01*
X167018Y302536D01*
X166759Y302480D01*
X166481Y302406D01*
X166166Y302277D01*
X165870Y302110D01*
X165592Y301888D01*
X165555Y301851D01*
X165481Y301758D01*
X165370Y301610D01*
X165259Y301388D01*
X165129Y301129D01*
X165018Y300795D01*
X164944Y300425D01*
X164907Y299999D01*
X163296Y300166D01*
Y300184D01*
X163315Y300240D01*
Y300332D01*
X163333Y300462D01*
X163370Y300610D01*
X163407Y300777D01*
X163463Y300980D01*
X163519Y301184D01*
X163667Y301628D01*
X163889Y302073D01*
X164018Y302295D01*
X164185Y302517D01*
X164352Y302721D01*
X164537Y302906D01*
X164555Y302925D01*
X164592Y302943D01*
X164648Y302999D01*
X164741Y303054D01*
X164852Y303128D01*
X164981Y303202D01*
X165129Y303295D01*
X165315Y303388D01*
X165518Y303480D01*
X165741Y303573D01*
X165981Y303647D01*
X166240Y303721D01*
X166518Y303776D01*
X166814Y303832D01*
X167129Y303850D01*
X167463Y303869D01*
X167648D01*
X167777Y303850D01*
D02*
G37*
D13*
X959239Y189899D02*
X973000Y203660D01*
X598000Y231000D02*
X962121D01*
X973000Y203660D02*
Y220121D01*
X962121Y231000D02*
X973000Y220121D01*
X405000Y424000D02*
X598000Y231000D01*
D14*
X185560Y258073D02*
Y283473D01*
X185240Y232400D02*
Y257800D01*
X185560Y283473D02*
Y308873D01*
Y334273D01*
Y232673D02*
Y258073D01*
X185240Y257800D02*
Y283200D01*
Y232400D02*
Y257800D01*
Y283200D01*
Y308600D02*
Y334000D01*
Y283200D02*
Y308600D01*
Y334000D01*
Y283200D02*
Y308600D01*
Y257800D02*
Y283200D01*
Y308600D02*
Y334000D01*
Y232400D02*
Y257800D01*
Y283200D02*
Y308600D01*
X150000Y283473D02*
X185560D01*
X150000Y258073D02*
Y283473D01*
Y258073D02*
X185560D01*
X150000Y232673D02*
Y258073D01*
Y232673D02*
X185560D01*
X149680Y232400D02*
Y257800D01*
X185240D01*
X149680D02*
Y283200D01*
X185240D01*
X149680D02*
X185240D01*
X149680D02*
X185240D01*
X149680Y257800D02*
X185240D01*
X149680Y232400D02*
Y257800D01*
Y232400D02*
X185240D01*
X150000Y334273D02*
X185560D01*
X150000Y308873D02*
Y334273D01*
X149680Y334000D02*
X185240D01*
X149680D02*
X185240D01*
X149680Y308600D02*
Y334000D01*
Y308600D02*
Y334000D01*
X185240D01*
X149680Y308600D02*
Y334000D01*
X150000Y283473D02*
Y308873D01*
X149680Y283200D02*
Y308600D01*
Y283200D02*
Y308600D01*
Y283200D02*
Y308600D01*
Y232400D02*
Y257800D01*
X185240D01*
X149680D02*
Y283200D01*
Y308600D02*
X185240D01*
X150000Y308873D02*
X185560D01*
X149680Y308600D02*
X185240D01*
X149680D02*
X185240D01*
X149680Y232400D02*
X185240D01*
X149680D02*
X185240D01*
X149680Y257800D02*
Y283200D01*
D99*
X621011Y438000D02*
X621580Y438569D01*
X614000Y438000D02*
X621011D01*
X621580Y438569D02*
X661431D01*
X619891Y442109D02*
X670891D01*
X613000Y448646D02*
X613354D01*
X619891Y442109D01*
X661431Y438569D02*
X782000Y318000D01*
X559000Y436500D02*
Y437000D01*
X782000Y318000D02*
X953509D01*
X959909Y311600D02*
X961000D01*
X953509Y318000D02*
X959909Y311600D01*
X776000Y337000D02*
X961000D01*
X670891Y442109D02*
X776000Y337000D01*
D100*
X649000Y465000D02*
Y478000D01*
X637120Y489880D02*
X649000Y478000D01*
X295170Y600373D02*
X312797Y618000D01*
X651000D01*
X579701Y215299D02*
X959239D01*
X372000Y423000D02*
X579701Y215299D01*
X372000Y423000D02*
Y495000D01*
X385000Y508000D01*
X297000Y509000D02*
X384000D01*
X385000Y508000D01*
X614000Y418500D02*
Y428250D01*
X597000Y401500D02*
X614000Y418500D01*
X412000Y548000D02*
X616165D01*
X627000Y537165D01*
Y535000D02*
Y537165D01*
X578469Y499326D02*
X587915Y489880D01*
X637120D01*
X385000Y439000D02*
X445326Y499326D01*
X578469D01*
X534290Y434650D02*
X549640Y450000D01*
X476010Y415129D02*
X495531Y434650D01*
X534290D01*
X814000Y383000D02*
X826000Y395000D01*
X299000Y583000D02*
X678000D01*
X826000Y395000D02*
Y544000D01*
X802000Y568000D02*
X826000Y544000D01*
X693000Y568000D02*
X802000D01*
X678000Y583000D02*
X693000Y568000D01*
X314000Y591000D02*
X519000D01*
X636455Y455645D02*
X644221Y447879D01*
X735116D01*
X549640Y450000D02*
X590225D01*
X595870Y455645D01*
X636455D01*
X744000Y449000D02*
X773000Y420000D01*
X735116Y447879D02*
X736236Y449000D01*
X744000D01*
X798000Y420000D02*
X801000Y423000D01*
X773000Y420000D02*
X798000D01*
D102*
X959239Y189899D02*
D03*
Y215299D02*
D03*
X961000Y311600D02*
D03*
Y337000D02*
D03*
X627000Y535000D02*
D03*
D106*
X649000Y465000D02*
D03*
X614000Y438000D02*
D03*
X613000Y448646D02*
D03*
X295170Y600373D02*
D03*
X559000Y436500D02*
D03*
X614000Y428250D02*
D03*
X597000Y401500D02*
D03*
X297000Y509000D02*
D03*
X385000Y508000D02*
D03*
X561000Y618000D02*
D03*
X519000Y591000D02*
D03*
X476010Y415129D02*
D03*
X405000Y424000D02*
D03*
X385000Y439000D02*
D03*
X412000Y548000D02*
D03*
X651000Y618000D02*
D03*
X578469Y499326D02*
D03*
X801000Y423000D02*
D03*
X814000Y383000D02*
D03*
X299000Y583000D02*
D03*
X314000Y591000D02*
D03*
M02*
