G04*
G04 #@! TF.GenerationSoftware,Altium Limited,Altium Designer,22.2.1 (43)*
G04*
G04 Layer_Physical_Order=3*
G04 Layer_Color=7949734*
%FSLAX44Y44*%
%MOMM*%
G71*
G04*
G04 #@! TF.SameCoordinates,09C73F61-2481-4693-A516-3075C6E7F38E*
G04*
G04*
G04 #@! TF.FilePolarity,Positive*
G04*
G01*
G75*
%ADD13C,0.1500*%
%ADD14C,0.2000*%
%ADD100C,0.7000*%
%ADD101C,1.5240*%
%ADD102C,1.5000*%
%ADD103R,1.5000X1.5000*%
%ADD106C,0.5000*%
G36*
X168388Y277073D02*
X168629Y277036D01*
X168925Y276980D01*
X169259Y276887D01*
X169592Y276776D01*
X169925Y276628D01*
X169944D01*
X169962Y276610D01*
X170073Y276554D01*
X170240Y276443D01*
X170425Y276313D01*
X170648Y276128D01*
X170870Y275925D01*
X171092Y275684D01*
X171277Y275406D01*
X171296Y275369D01*
X171351Y275277D01*
X171425Y275110D01*
X171518Y274906D01*
X171610Y274666D01*
X171684Y274388D01*
X171740Y274073D01*
X171758Y273758D01*
Y273721D01*
Y273610D01*
X171740Y273462D01*
X171703Y273258D01*
X171647Y273018D01*
X171555Y272758D01*
X171444Y272499D01*
X171296Y272240D01*
X171277Y272203D01*
X171222Y272129D01*
X171110Y271999D01*
X170962Y271851D01*
X170777Y271684D01*
X170555Y271499D01*
X170296Y271333D01*
X169981Y271166D01*
X169999D01*
X170036Y271147D01*
X170092Y271129D01*
X170166Y271110D01*
X170370Y271036D01*
X170629Y270925D01*
X170925Y270777D01*
X171222Y270592D01*
X171499Y270351D01*
X171758Y270073D01*
X171777Y270036D01*
X171851Y269925D01*
X171962Y269740D01*
X172073Y269499D01*
X172184Y269203D01*
X172295Y268851D01*
X172369Y268444D01*
X172388Y268000D01*
Y267981D01*
Y267925D01*
Y267833D01*
X172369Y267722D01*
X172351Y267574D01*
X172314Y267407D01*
X172277Y267222D01*
X172240Y267018D01*
X172092Y266574D01*
X171981Y266333D01*
X171870Y266111D01*
X171721Y265870D01*
X171555Y265629D01*
X171370Y265389D01*
X171147Y265166D01*
X171129Y265148D01*
X171092Y265111D01*
X171018Y265055D01*
X170925Y264981D01*
X170814Y264889D01*
X170666Y264796D01*
X170499Y264685D01*
X170296Y264592D01*
X170092Y264481D01*
X169851Y264370D01*
X169611Y264278D01*
X169333Y264185D01*
X169037Y264111D01*
X168722Y264056D01*
X168407Y264018D01*
X168055Y264000D01*
X167889D01*
X167777Y264018D01*
X167629Y264037D01*
X167463Y264056D01*
X167277Y264093D01*
X167074Y264130D01*
X166629Y264241D01*
X166166Y264426D01*
X165926Y264537D01*
X165704Y264667D01*
X165481Y264833D01*
X165259Y265000D01*
X165241Y265018D01*
X165204Y265055D01*
X165148Y265111D01*
X165093Y265185D01*
X165000Y265278D01*
X164907Y265407D01*
X164796Y265537D01*
X164685Y265704D01*
X164574Y265889D01*
X164463Y266074D01*
X164259Y266518D01*
X164093Y267037D01*
X164037Y267314D01*
X164000Y267611D01*
X165574Y267814D01*
Y267796D01*
X165592Y267759D01*
X165611Y267685D01*
X165630Y267592D01*
X165648Y267481D01*
X165685Y267351D01*
X165778Y267074D01*
X165907Y266740D01*
X166074Y266426D01*
X166259Y266129D01*
X166481Y265870D01*
X166518Y265852D01*
X166592Y265778D01*
X166740Y265685D01*
X166926Y265592D01*
X167148Y265481D01*
X167426Y265389D01*
X167740Y265315D01*
X168074Y265296D01*
X168185D01*
X168259Y265315D01*
X168463Y265333D01*
X168722Y265389D01*
X169018Y265481D01*
X169333Y265611D01*
X169648Y265796D01*
X169944Y266055D01*
X169981Y266092D01*
X170073Y266203D01*
X170184Y266370D01*
X170333Y266592D01*
X170481Y266870D01*
X170592Y267185D01*
X170685Y267555D01*
X170721Y267962D01*
Y267981D01*
Y268018D01*
Y268074D01*
X170703Y268148D01*
X170685Y268351D01*
X170629Y268592D01*
X170555Y268888D01*
X170425Y269185D01*
X170240Y269481D01*
X169999Y269759D01*
X169962Y269796D01*
X169870Y269870D01*
X169722Y269981D01*
X169518Y270110D01*
X169259Y270240D01*
X168944Y270351D01*
X168592Y270425D01*
X168203Y270462D01*
X168037D01*
X167907Y270444D01*
X167740Y270425D01*
X167555Y270388D01*
X167333Y270351D01*
X167092Y270296D01*
X167277Y271684D01*
X167370D01*
X167444Y271666D01*
X167685D01*
X167889Y271703D01*
X168129Y271740D01*
X168407Y271796D01*
X168722Y271888D01*
X169018Y272018D01*
X169333Y272184D01*
X169351D01*
X169370Y272203D01*
X169462Y272277D01*
X169592Y272407D01*
X169740Y272573D01*
X169888Y272814D01*
X170018Y273092D01*
X170110Y273406D01*
X170147Y273592D01*
Y273795D01*
Y273814D01*
Y273832D01*
Y273943D01*
X170110Y274091D01*
X170073Y274295D01*
X169999Y274517D01*
X169907Y274758D01*
X169759Y274999D01*
X169555Y275221D01*
X169536Y275240D01*
X169444Y275314D01*
X169314Y275406D01*
X169148Y275517D01*
X168925Y275610D01*
X168666Y275702D01*
X168370Y275777D01*
X168037Y275795D01*
X167889D01*
X167722Y275758D01*
X167500Y275721D01*
X167259Y275647D01*
X167018Y275554D01*
X166759Y275406D01*
X166518Y275221D01*
X166500Y275203D01*
X166426Y275110D01*
X166315Y274980D01*
X166185Y274795D01*
X166055Y274554D01*
X165926Y274258D01*
X165815Y273906D01*
X165741Y273499D01*
X164167Y273777D01*
Y273795D01*
X164185Y273851D01*
X164204Y273925D01*
X164222Y274036D01*
X164259Y274166D01*
X164315Y274314D01*
X164426Y274666D01*
X164611Y275073D01*
X164833Y275480D01*
X165111Y275869D01*
X165463Y276221D01*
X165481Y276239D01*
X165518Y276258D01*
X165574Y276295D01*
X165648Y276351D01*
X165741Y276425D01*
X165870Y276499D01*
X166000Y276573D01*
X166166Y276665D01*
X166537Y276814D01*
X166963Y276962D01*
X167463Y277054D01*
X167722Y277091D01*
X168185D01*
X168388Y277073D01*
D02*
G37*
D13*
X555899Y410899D02*
X563000Y418000D01*
X544000Y410899D02*
X555899D01*
X626000Y418000D02*
X647000Y397000D01*
X893000D02*
X925900Y429900D01*
X647000Y397000D02*
X893000D01*
X398354Y424635D02*
Y430431D01*
Y424635D02*
X565990Y257000D01*
X965000D02*
X979000Y243000D01*
X565990Y257000D02*
X965000D01*
X959239Y164499D02*
X979000Y184260D01*
Y243000D01*
X563000Y418000D02*
X626000D01*
X925900Y429900D02*
X959239D01*
X724000Y408000D02*
X888000D01*
X935300Y455300D01*
X959239D01*
X631000Y501000D02*
Y502000D01*
Y501000D02*
X724000Y408000D01*
D14*
X150000Y334273D02*
X185560D01*
X149680Y257800D02*
Y283200D01*
X150000Y308873D02*
X185560D01*
Y334273D01*
X150000Y232673D02*
X185560D01*
X150000Y258073D02*
X185560D01*
X150000Y283473D02*
X185560D01*
Y232673D02*
Y258073D01*
Y283473D02*
Y308873D01*
Y258073D02*
Y283473D01*
X149680Y308600D02*
Y334000D01*
Y308600D02*
Y334000D01*
Y308600D02*
Y334000D01*
X185240D01*
X149680Y308600D02*
X185240D01*
X149680D02*
X185240D01*
X149680D02*
X185240D01*
X149680Y334000D02*
X185240D01*
X149680D02*
X185240D01*
Y308600D02*
Y334000D01*
Y308600D02*
Y334000D01*
Y308600D02*
Y334000D01*
X149680Y232400D02*
X185240D01*
X149680D02*
X185240D01*
X150000Y308873D02*
Y334273D01*
Y258073D02*
Y283473D01*
X149680Y283200D02*
X185240D01*
X149680Y257800D02*
Y283200D01*
Y257800D02*
X185240D01*
X149680D02*
X185240D01*
X149680D02*
Y283200D01*
X185240Y257800D02*
Y283200D01*
Y257800D02*
Y283200D01*
Y257800D02*
Y283200D01*
X149680D02*
X185240D01*
X149680D02*
Y308600D01*
Y283200D02*
Y308600D01*
Y283200D02*
Y308600D01*
X150000Y283473D02*
Y308873D01*
X149680Y283200D02*
X185240D01*
Y308600D01*
Y283200D02*
Y308600D01*
Y283200D02*
Y308600D01*
X149680Y232400D02*
X185240D01*
X149680D02*
Y257800D01*
Y232400D02*
Y257800D01*
X185240D01*
X149680Y232400D02*
Y257800D01*
X150000Y232673D02*
Y258073D01*
X185240Y232400D02*
Y257800D01*
Y232400D02*
Y257800D01*
Y232400D02*
Y257800D01*
D100*
X537000Y408000D02*
X544000Y401000D01*
X537000Y408000D02*
Y441000D01*
X553000Y457000D01*
X507990Y493000D02*
X559000D01*
X580120Y514120D02*
X691120D01*
X559000Y493000D02*
X580120Y514120D01*
X433995Y419005D02*
X507990Y493000D01*
X519000Y535000D02*
Y591000D01*
X428000Y444000D02*
X519000Y535000D01*
Y666000D02*
X579000Y726000D01*
X519000Y591000D02*
Y666000D01*
X573023Y401000D02*
X575010Y402987D01*
X544000Y401000D02*
X573023D01*
X726000Y549000D02*
X788000D01*
X691120Y514120D02*
X726000Y549000D01*
X778000Y601000D02*
X820000Y559000D01*
X668000Y601000D02*
X778000D01*
X651000Y618000D02*
X668000Y601000D01*
X801000Y423000D02*
X820000Y442000D01*
Y559000D01*
D101*
X631000Y502000D02*
D03*
D102*
X959239Y429900D02*
D03*
Y455300D02*
D03*
D103*
X959239Y164499D02*
D03*
D106*
X544000Y410899D02*
D03*
X575010Y402987D02*
D03*
X428000Y444000D02*
D03*
X519000Y591000D02*
D03*
X788000Y549000D02*
D03*
X398354Y430431D02*
D03*
X579000Y726000D02*
D03*
X651000Y618000D02*
D03*
X553000Y457000D02*
D03*
X433995Y419005D02*
D03*
X801000Y423000D02*
D03*
M02*
