G04*
G04 #@! TF.GenerationSoftware,Altium Limited,Altium Designer,22.2.1 (43)*
G04*
G04 Layer_Color=16711935*
%FSLAX44Y44*%
%MOMM*%
G71*
G04*
G04 #@! TF.SameCoordinates,09C73F61-2481-4693-A516-3075C6E7F38E*
G04*
G04*
G04 #@! TF.FilePolarity,Negative*
G04*
G01*
G75*
%ADD91C,1.7272*%
%ADD92C,1.5700*%
%ADD93C,1.7032*%
%ADD94R,1.7032X1.7032*%
%ADD95R,1.7032X1.7032*%
%ADD96C,5.2032*%
%ADD97C,0.7032*%
%ADD107R,1.1781X1.3562*%
%ADD108R,1.2065X1.0682*%
D91*
X631000Y502000D02*
D03*
D92*
Y477000D02*
D03*
X506000Y397000D02*
D03*
X407111Y285356D02*
D03*
X501000Y447000D02*
D03*
X701000Y370000D02*
D03*
X333000Y430000D02*
D03*
X562000Y525000D02*
D03*
X778728Y153241D02*
D03*
X730000Y495000D02*
D03*
Y460229D02*
D03*
X727000Y581000D02*
D03*
X856000Y552800D02*
D03*
X866000Y440000D02*
D03*
D93*
X717000Y127600D02*
D03*
X959239Y189899D02*
D03*
Y215299D02*
D03*
Y240699D02*
D03*
X961000Y311600D02*
D03*
Y337000D02*
D03*
Y362400D02*
D03*
X959239Y429900D02*
D03*
Y455300D02*
D03*
Y480700D02*
D03*
X959239Y546850D02*
D03*
Y572250D02*
D03*
Y597650D02*
D03*
X652400Y535000D02*
D03*
X627000D02*
D03*
X267900Y422981D02*
D03*
X458600Y664000D02*
D03*
D94*
X717000Y153000D02*
D03*
X959239Y164499D02*
D03*
X961000Y286200D02*
D03*
X959239Y404500D02*
D03*
X959239Y521450D02*
D03*
D95*
X601600Y535000D02*
D03*
X293300Y422981D02*
D03*
X484000Y664000D02*
D03*
D96*
X950000Y50000D02*
D03*
Y950000D02*
D03*
X49000Y50000D02*
D03*
X49000Y950000D02*
D03*
D97*
X649000Y465000D02*
D03*
X614000Y438000D02*
D03*
X613000Y448646D02*
D03*
X295170Y600373D02*
D03*
X544000Y410899D02*
D03*
X527000Y413000D02*
D03*
X657000Y419000D02*
D03*
X656000Y430000D02*
D03*
X643000Y429500D02*
D03*
Y418500D02*
D03*
X559000Y436500D02*
D03*
X575010Y402987D02*
D03*
X614000Y428250D02*
D03*
X597000Y401500D02*
D03*
X297000Y509000D02*
D03*
X385000Y508000D02*
D03*
X582000Y428500D02*
D03*
Y439500D02*
D03*
X386750Y525000D02*
D03*
Y535000D02*
D03*
X396750Y525000D02*
D03*
Y535000D02*
D03*
X561000Y618000D02*
D03*
X428000Y444000D02*
D03*
X519000Y591000D02*
D03*
X788000Y549000D02*
D03*
X579667Y466795D02*
D03*
X476010Y415129D02*
D03*
X398354Y430431D02*
D03*
X405000Y424000D02*
D03*
X385000Y439000D02*
D03*
X412000Y548000D02*
D03*
X579000Y726000D02*
D03*
X651000Y618000D02*
D03*
X553000Y457000D02*
D03*
X433995Y419005D02*
D03*
X578469Y499326D02*
D03*
X801000Y423000D02*
D03*
X814000Y383000D02*
D03*
X299000Y583000D02*
D03*
X314000Y591000D02*
D03*
D107*
X577641Y436000D02*
D03*
X564359D02*
D03*
D108*
X581741Y387000D02*
D03*
X598259D02*
D03*
M02*
