G04*
G04 #@! TF.GenerationSoftware,Altium Limited,Altium Designer,22.2.1 (43)*
G04*
G04 Layer_Physical_Order=1*
G04 Layer_Color=255*
%FSLAX44Y44*%
%MOMM*%
G71*
G04*
G04 #@! TF.SameCoordinates,09C73F61-2481-4693-A516-3075C6E7F38E*
G04*
G04*
G04 #@! TF.FilePolarity,Positive*
G04*
G01*
G75*
%ADD13C,0.1500*%
%ADD14C,0.2000*%
%ADD16R,0.9562X1.2062*%
%ADD17R,0.7000X0.8500*%
%ADD18R,0.5500X0.5000*%
%ADD19R,1.8052X0.6121*%
G04:AMPARAMS|DCode=20|XSize=1.8052mm|YSize=0.6121mm|CornerRadius=0.3061mm|HoleSize=0mm|Usage=FLASHONLY|Rotation=0.000|XOffset=0mm|YOffset=0mm|HoleType=Round|Shape=RoundedRectangle|*
%AMROUNDEDRECTD20*
21,1,1.8052,0.0000,0,0,0.0*
21,1,1.1931,0.6121,0,0,0.0*
1,1,0.6121,0.5966,0.0000*
1,1,0.6121,-0.5966,0.0000*
1,1,0.6121,-0.5966,0.0000*
1,1,0.6121,0.5966,0.0000*
%
%ADD20ROUNDEDRECTD20*%
%ADD21O,0.8000X0.3000*%
%ADD22O,0.3000X0.8000*%
%ADD23R,1.6500X2.6500*%
%ADD24R,0.2500X0.7000*%
%ADD25R,2.3800X1.6500*%
%ADD26R,0.8500X0.7000*%
%ADD27R,0.9000X1.0500*%
%ADD28R,1.0500X0.9000*%
%ADD29R,0.8500X0.7500*%
%ADD30R,0.7500X0.8500*%
%ADD31R,0.9000X1.5500*%
%ADD32R,1.0000X0.8000*%
%ADD33R,2.0000X2.0000*%
%ADD34R,1.3000X2.0000*%
%ADD35R,0.9500X0.9500*%
%ADD36R,1.5500X0.9000*%
%ADD37R,0.6500X1.7500*%
%ADD38R,1.7500X0.9500*%
%ADD39R,6.6000X5.6000*%
%ADD40R,2.7000X1.0000*%
%ADD41R,3.7500X9.5000*%
%ADD42R,1.1430X2.0320*%
%ADD43R,1.2200X0.9100*%
G04:AMPARAMS|DCode=44|XSize=1.3587mm|YSize=0.5868mm|CornerRadius=0.2934mm|HoleSize=0mm|Usage=FLASHONLY|Rotation=180.000|XOffset=0mm|YOffset=0mm|HoleType=Round|Shape=RoundedRectangle|*
%AMROUNDEDRECTD44*
21,1,1.3587,0.0000,0,0,180.0*
21,1,0.7719,0.5868,0,0,180.0*
1,1,0.5868,-0.3859,0.0000*
1,1,0.5868,0.3859,0.0000*
1,1,0.5868,0.3859,0.0000*
1,1,0.5868,-0.3859,0.0000*
%
%ADD44ROUNDEDRECTD44*%
%ADD45R,1.3587X0.5868*%
%ADD46R,1.2062X0.9562*%
%ADD47R,1.3562X1.1781*%
%ADD48R,0.9121X1.1311*%
%ADD49R,2.3300X1.9900*%
%ADD50R,2.1300X1.9900*%
%ADD51R,2.3500X2.2000*%
%ADD52R,1.1311X0.9121*%
%ADD53R,1.0000X2.3000*%
%ADD54R,1.5000X0.9000*%
G04:AMPARAMS|DCode=55|XSize=0.6mm|YSize=1.45mm|CornerRadius=0.051mm|HoleSize=0mm|Usage=FLASHONLY|Rotation=180.000|XOffset=0mm|YOffset=0mm|HoleType=Round|Shape=RoundedRectangle|*
%AMROUNDEDRECTD55*
21,1,0.6000,1.3480,0,0,180.0*
21,1,0.4980,1.4500,0,0,180.0*
1,1,0.1020,-0.2490,0.6740*
1,1,0.1020,0.2490,0.6740*
1,1,0.1020,0.2490,-0.6740*
1,1,0.1020,-0.2490,-0.6740*
%
%ADD55ROUNDEDRECTD55*%
%ADD56R,1.6030X2.1062*%
%ADD57R,0.9000X0.5000*%
%ADD58R,0.5000X0.9000*%
%ADD59R,2.1062X1.6030*%
%ADD60R,2.0000X2.0000*%
%ADD61R,2.0000X1.3000*%
%ADD62R,1.9900X2.1300*%
%ADD63R,0.9500X0.9500*%
%ADD64R,0.5000X0.5500*%
%ADD92C,1.5700*%
%ADD98C,1.0000*%
%ADD99C,0.2540*%
%ADD100C,0.7000*%
%ADD101C,1.5240*%
%ADD102C,1.5000*%
%ADD103R,1.5000X1.5000*%
%ADD104R,1.5000X1.5000*%
%ADD105C,5.0000*%
%ADD106C,0.5000*%
G36*
X1000000Y-0D02*
X0Y-0D01*
X-0Y1000000D01*
X1000000Y1000000D01*
X1000000Y-0D01*
D02*
G37*
%LPC*%
G36*
X950000Y976126D02*
X944903Y975624D01*
X940002Y974137D01*
X935485Y971723D01*
X932670Y969413D01*
X928839Y973244D01*
X927350Y974239D01*
X925594Y974588D01*
X73405D01*
X71650Y974239D01*
X70161Y973244D01*
X66330Y969413D01*
X63515Y971723D01*
X58998Y974137D01*
X54097Y975624D01*
X49000Y976126D01*
X43903Y975624D01*
X39002Y974137D01*
X34485Y971723D01*
X30526Y968474D01*
X27277Y964515D01*
X24863Y959998D01*
X23376Y955097D01*
X22874Y950000D01*
X23376Y944903D01*
X24863Y940002D01*
X27277Y935485D01*
X30526Y931526D01*
X34485Y928277D01*
X39002Y925863D01*
X43903Y924376D01*
X44412Y924326D01*
Y75674D01*
X43903Y75624D01*
X39002Y74137D01*
X34485Y71723D01*
X30526Y68474D01*
X27277Y64515D01*
X24863Y59998D01*
X23376Y55097D01*
X22874Y50000D01*
X23376Y44903D01*
X24863Y40002D01*
X27277Y35485D01*
X30526Y31526D01*
X34485Y28277D01*
X39002Y25863D01*
X43903Y24376D01*
X49000Y23874D01*
X54097Y24376D01*
X58998Y25863D01*
X63515Y28277D01*
X63910Y28601D01*
X69756Y22756D01*
X71244Y21761D01*
X73000Y21412D01*
X926000D01*
X927756Y21761D01*
X929244Y22756D01*
X935090Y28601D01*
X935485Y28277D01*
X940002Y25863D01*
X944903Y24376D01*
X950000Y23874D01*
X955097Y24376D01*
X959998Y25863D01*
X964515Y28277D01*
X968474Y31526D01*
X971723Y35485D01*
X974137Y40002D01*
X975624Y44903D01*
X976126Y50000D01*
X975624Y55097D01*
X974137Y59998D01*
X971723Y64515D01*
X968474Y68474D01*
X964515Y71723D01*
X959998Y74137D01*
X955097Y75624D01*
X954588Y75674D01*
Y89000D01*
X955500D01*
Y96000D01*
X952862D01*
X951756Y96739D01*
X950000Y97088D01*
X948244Y96739D01*
X947138Y96000D01*
X944500D01*
Y89000D01*
X945412D01*
Y75674D01*
X944903Y75624D01*
X940002Y74137D01*
X935485Y71723D01*
X931526Y68474D01*
X928277Y64515D01*
X925863Y59998D01*
X924376Y55097D01*
X924326Y54588D01*
X905521D01*
Y61531D01*
X887491D01*
Y38469D01*
X905521D01*
Y45412D01*
X924326D01*
X924376Y44903D01*
X925863Y40002D01*
X928277Y35485D01*
X928601Y35090D01*
X924100Y30588D01*
X74900D01*
X70399Y35090D01*
X70723Y35485D01*
X73137Y40002D01*
X74624Y44903D01*
X74674Y45412D01*
X96000D01*
Y44500D01*
X103000D01*
Y47138D01*
X103739Y48244D01*
X104088Y50000D01*
X103739Y51756D01*
X103000Y52862D01*
Y55500D01*
X96000D01*
Y54588D01*
X74674D01*
X74624Y55097D01*
X73137Y59998D01*
X70723Y64515D01*
X70399Y64910D01*
X83244Y77756D01*
X84239Y79244D01*
X84588Y81000D01*
Y90479D01*
X91531D01*
Y108509D01*
X68469D01*
Y90479D01*
X75412D01*
Y82900D01*
X63910Y71399D01*
X63515Y71723D01*
X58998Y74137D01*
X54097Y75624D01*
X53588Y75674D01*
Y924326D01*
X54097Y924376D01*
X58998Y925863D01*
X63515Y928277D01*
X63910Y928601D01*
X67412Y925099D01*
Y919000D01*
X66500D01*
Y912000D01*
X69138D01*
X70244Y911261D01*
X72000Y910912D01*
X73756Y911261D01*
X74862Y912000D01*
X77500D01*
Y919000D01*
X76588D01*
Y927000D01*
X76239Y928756D01*
X75244Y930244D01*
X70399Y935090D01*
X70723Y935485D01*
X73137Y940002D01*
X74624Y944903D01*
X74674Y945412D01*
X91479D01*
Y938469D01*
X109509D01*
Y961531D01*
X91479D01*
Y954588D01*
X74674D01*
X74624Y955097D01*
X73137Y959998D01*
X72007Y962113D01*
X75306Y965412D01*
X923694D01*
X926993Y962113D01*
X925863Y959998D01*
X924376Y955097D01*
X924326Y954588D01*
X897000D01*
Y955500D01*
X890000D01*
Y952862D01*
X889261Y951756D01*
X888912Y950000D01*
X889261Y948244D01*
X890000Y947138D01*
Y944500D01*
X897000D01*
Y945412D01*
X924326D01*
X924376Y944903D01*
X925863Y940002D01*
X928277Y935485D01*
X931526Y931526D01*
X935485Y928277D01*
X940002Y925863D01*
X944903Y924376D01*
X945412Y924326D01*
Y907521D01*
X938469D01*
Y889491D01*
X961531D01*
Y907521D01*
X954588D01*
Y924326D01*
X955097Y924376D01*
X959998Y925863D01*
X964515Y928277D01*
X968474Y931526D01*
X971723Y935485D01*
X974137Y940002D01*
X975624Y944903D01*
X976126Y950000D01*
X975624Y955097D01*
X974137Y959998D01*
X971723Y964515D01*
X968474Y968474D01*
X964515Y971723D01*
X959998Y974137D01*
X955097Y975624D01*
X950000Y976126D01*
D02*
G37*
G36*
X883540Y957040D02*
X879770D01*
Y951270D01*
X883540D01*
Y957040D01*
D02*
G37*
G36*
X877230D02*
X873460D01*
Y951270D01*
X877230D01*
Y957040D01*
D02*
G37*
G36*
X146061Y963071D02*
X136776D01*
Y951270D01*
X146061D01*
Y963071D01*
D02*
G37*
G36*
X134236D02*
X124951D01*
Y951270D01*
X134236D01*
Y963071D01*
D02*
G37*
G36*
X883540Y948730D02*
X879770D01*
Y942960D01*
X883540D01*
Y948730D01*
D02*
G37*
G36*
X877230D02*
X873460D01*
Y942960D01*
X877230D01*
Y948730D01*
D02*
G37*
G36*
X146061Y948730D02*
X136776D01*
Y936929D01*
X146061D01*
Y948730D01*
D02*
G37*
G36*
X134236D02*
X124951D01*
Y936929D01*
X134236D01*
Y948730D01*
D02*
G37*
G36*
X500000Y944118D02*
X497659Y943652D01*
X495674Y942326D01*
X494348Y940341D01*
X493882Y938000D01*
X494348Y935659D01*
X495674Y933674D01*
X497659Y932348D01*
X500000Y931882D01*
X502341Y932348D01*
X504326Y933674D01*
X505652Y935659D01*
X506118Y938000D01*
X505652Y940341D01*
X504326Y942326D01*
X502341Y943652D01*
X500000Y944118D01*
D02*
G37*
G36*
X79040Y905540D02*
X73270D01*
Y901770D01*
X79040D01*
Y905540D01*
D02*
G37*
G36*
X70730D02*
X64960D01*
Y901770D01*
X70730D01*
Y905540D01*
D02*
G37*
G36*
X79040Y899230D02*
X73270D01*
Y895460D01*
X79040D01*
Y899230D01*
D02*
G37*
G36*
X70730D02*
X64960D01*
Y895460D01*
X70730D01*
Y899230D01*
D02*
G37*
G36*
X963071Y874049D02*
X951270D01*
Y864764D01*
X963071D01*
Y874049D01*
D02*
G37*
G36*
X948730D02*
X936929D01*
Y864764D01*
X948730D01*
Y874049D01*
D02*
G37*
G36*
X963071Y862224D02*
X951270D01*
Y852939D01*
X963071D01*
Y862224D01*
D02*
G37*
G36*
X948730D02*
X936929D01*
Y852939D01*
X948730D01*
Y862224D01*
D02*
G37*
G36*
X721821Y819571D02*
X715770D01*
Y812270D01*
X721821D01*
Y819571D01*
D02*
G37*
G36*
X713230D02*
X707179D01*
Y812270D01*
X713230D01*
Y819571D01*
D02*
G37*
G36*
X721821Y809730D02*
X715770D01*
Y802429D01*
X721821D01*
Y809730D01*
D02*
G37*
G36*
X617030Y800174D02*
X605811D01*
Y788254D01*
X617030D01*
Y800174D01*
D02*
G37*
G36*
X603270D02*
X592051D01*
Y788254D01*
X603270D01*
Y800174D01*
D02*
G37*
G36*
X697130Y797190D02*
X685910D01*
Y785270D01*
X697130D01*
Y797190D01*
D02*
G37*
G36*
Y782730D02*
X685910D01*
Y770810D01*
X697130D01*
Y782730D01*
D02*
G37*
G36*
X713230Y809730D02*
X707179D01*
Y808918D01*
X705306Y807044D01*
X704311Y805556D01*
X703962Y803800D01*
Y797190D01*
X699670D01*
Y784000D01*
Y770810D01*
X700262D01*
Y769614D01*
X700611Y767858D01*
X701010Y767090D01*
X701010Y767090D01*
X701010Y767090D01*
Y765633D01*
X639238D01*
X638751Y766806D01*
X647279Y775334D01*
X662691D01*
Y798634D01*
X640790D01*
Y781822D01*
X629606Y770637D01*
X628611Y769149D01*
X628262Y767393D01*
Y765550D01*
X626350D01*
Y740550D01*
X630686D01*
Y738959D01*
X620041Y728314D01*
X581663D01*
X581523Y728523D01*
X580366Y729297D01*
X579000Y729568D01*
X577634Y729297D01*
X576477Y728523D01*
X575703Y727366D01*
X575431Y726000D01*
X575703Y724634D01*
X576477Y723477D01*
X577634Y722703D01*
X579000Y722431D01*
X580366Y722703D01*
X581523Y723477D01*
X581663Y723686D01*
X621000D01*
X621886Y723862D01*
X622636Y724363D01*
X634636Y736363D01*
X634997Y736903D01*
X635960Y736807D01*
X636267Y736692D01*
Y661450D01*
X626350D01*
Y636450D01*
X637151D01*
X637350Y636368D01*
X701010D01*
Y634910D01*
X707280D01*
Y648950D01*
Y662990D01*
X704632D01*
Y739010D01*
X707280D01*
Y753050D01*
X708550D01*
Y754320D01*
X716090D01*
Y767090D01*
X713138D01*
Y801899D01*
X713230Y801991D01*
Y809730D01*
D02*
G37*
G36*
X617030Y785714D02*
X604540D01*
X592051D01*
Y773794D01*
X601157D01*
Y767090D01*
X599410D01*
Y754320D01*
X606950D01*
X614490D01*
Y767090D01*
X610333D01*
Y773794D01*
X617030D01*
Y785714D01*
D02*
G37*
G36*
X716090Y751780D02*
X709820D01*
Y739010D01*
X716090D01*
Y751780D01*
D02*
G37*
G36*
X614490D02*
X608220D01*
Y739010D01*
X614490D01*
Y751780D01*
D02*
G37*
G36*
X605680D02*
X599410D01*
Y739010D01*
X605680D01*
Y751780D01*
D02*
G37*
G36*
X716090Y662990D02*
X709820D01*
Y650220D01*
X716090D01*
Y662990D01*
D02*
G37*
G36*
X739950Y661450D02*
X727950D01*
Y636450D01*
X739950D01*
Y661450D01*
D02*
G37*
G36*
X716090Y647680D02*
X709820D01*
Y634910D01*
X716090D01*
Y647680D01*
D02*
G37*
G36*
X462730Y647040D02*
X449710D01*
Y634770D01*
X462730D01*
Y647040D01*
D02*
G37*
G36*
Y632230D02*
X449710D01*
Y619960D01*
X462730D01*
Y632230D01*
D02*
G37*
G36*
X740781Y818031D02*
X729219D01*
Y803969D01*
X734292D01*
X735012Y803250D01*
Y795650D01*
X734650D01*
Y779539D01*
X730706Y775594D01*
X729711Y774106D01*
X729362Y772350D01*
Y765550D01*
X727950D01*
Y740550D01*
X733461D01*
X757412Y716600D01*
Y641900D01*
X738100Y622588D01*
X651000D01*
X649244Y622239D01*
X647756Y621244D01*
X646761Y619756D01*
X646412Y618000D01*
X646761Y616244D01*
X647756Y614756D01*
X649244Y613761D01*
X651000Y613412D01*
X740000D01*
X741756Y613761D01*
X743244Y614756D01*
X765244Y636756D01*
X766239Y638244D01*
X766588Y640000D01*
Y718500D01*
X766239Y720256D01*
X765244Y721744D01*
X739950Y747039D01*
Y765550D01*
X738538D01*
Y770450D01*
X740439Y772350D01*
X756550D01*
Y795650D01*
X744188D01*
Y805150D01*
X743839Y806906D01*
X742844Y808394D01*
X740781Y810458D01*
Y818031D01*
D02*
G37*
G36*
X787540Y613040D02*
X776270D01*
Y605270D01*
X787540D01*
Y613040D01*
D02*
G37*
G36*
X773730D02*
X762460D01*
Y605270D01*
X773730D01*
Y613040D01*
D02*
G37*
G36*
X266071Y609571D02*
X260020D01*
Y602270D01*
X266071D01*
Y609571D01*
D02*
G37*
G36*
X257480D02*
X251429D01*
Y602270D01*
X257480D01*
Y609571D01*
D02*
G37*
G36*
X605571Y606571D02*
X599520D01*
Y599270D01*
X605571D01*
Y606571D01*
D02*
G37*
G36*
X596980D02*
X590929D01*
Y599270D01*
X596980D01*
Y606571D01*
D02*
G37*
G36*
X960509Y607609D02*
Y598920D01*
X969198D01*
X969020Y600271D01*
X968009Y602713D01*
X966400Y604811D01*
X964302Y606420D01*
X961860Y607431D01*
X960509Y607609D01*
D02*
G37*
G36*
X957969D02*
X956618Y607431D01*
X954176Y606420D01*
X952078Y604811D01*
X950469Y602713D01*
X949457Y600271D01*
X949280Y598920D01*
X957969D01*
Y607609D01*
D02*
G37*
G36*
X787540Y602730D02*
X776270D01*
Y594960D01*
X787540D01*
Y602730D01*
D02*
G37*
G36*
X773730D02*
X762460D01*
Y594960D01*
X773730D01*
Y602730D01*
D02*
G37*
G36*
X266071Y599730D02*
X260020D01*
Y592429D01*
X266071D01*
Y599730D01*
D02*
G37*
G36*
X257480D02*
X251429D01*
Y592429D01*
X257480D01*
Y599730D01*
D02*
G37*
G36*
X969198Y596380D02*
X960509D01*
Y587691D01*
X961860Y587868D01*
X964302Y588880D01*
X966400Y590489D01*
X968009Y592587D01*
X969020Y595029D01*
X969198Y596380D01*
D02*
G37*
G36*
X957969D02*
X949280D01*
X949457Y595029D01*
X950469Y592587D01*
X952078Y590489D01*
X954176Y588880D01*
X956618Y587868D01*
X957969Y587691D01*
Y596380D01*
D02*
G37*
G36*
X605571Y596730D02*
X590929D01*
Y589429D01*
Y585270D01*
X605571D01*
Y589429D01*
Y596730D01*
D02*
G37*
G36*
X437000Y702500D02*
X397500D01*
Y702082D01*
X393000D01*
X392235Y701765D01*
X391918Y701000D01*
Y589243D01*
X388584Y584736D01*
X387314Y585155D01*
Y590221D01*
X387138Y591107D01*
X387105Y591157D01*
Y591709D01*
X387061Y591933D01*
Y600561D01*
X367082D01*
Y605500D01*
X374500D01*
Y702500D01*
X335000D01*
Y661199D01*
X334918Y661000D01*
Y580072D01*
X333648Y579687D01*
X332806Y580947D01*
X330995Y582156D01*
X328859Y582581D01*
X326270D01*
Y577000D01*
Y571418D01*
X328859D01*
X330995Y571843D01*
X332806Y573053D01*
X333648Y574313D01*
X334918Y573927D01*
Y564100D01*
X334978Y563955D01*
X334961Y563798D01*
X335131Y563586D01*
X335235Y563335D01*
X335380Y563274D01*
X335478Y563152D01*
X337478Y562052D01*
X377310Y540144D01*
Y531270D01*
X391750D01*
X406190D01*
Y538692D01*
X406632Y539038D01*
X407460Y539260D01*
X408000Y538724D01*
Y534500D01*
X418732D01*
X419171Y534500D01*
X420114Y534296D01*
X420780Y533553D01*
X416727Y529500D01*
X408000D01*
Y519500D01*
X420000D01*
Y526227D01*
X423959Y530185D01*
X426250D01*
Y528000D01*
X426000D01*
Y518000D01*
X438000D01*
Y528000D01*
X437750D01*
Y538250D01*
X426250D01*
Y534814D01*
X423000D01*
X422114Y534638D01*
X421363Y534137D01*
X421063Y534168D01*
X420148Y534436D01*
X420000Y534569D01*
X420000Y535741D01*
Y544500D01*
X415282D01*
X415081Y544758D01*
X414719Y545770D01*
X415297Y546634D01*
X415569Y548000D01*
X415297Y549366D01*
X415108Y549647D01*
X415787Y550918D01*
X417552D01*
X421918Y546552D01*
Y544000D01*
X422235Y543234D01*
X423000Y542918D01*
X426250D01*
Y541750D01*
X437750D01*
Y542918D01*
X451250D01*
Y524000D01*
X476750D01*
Y542918D01*
X497350D01*
Y541650D01*
X520650D01*
Y542918D01*
X522000D01*
X522765Y543234D01*
X523082Y544000D01*
Y548012D01*
X530250D01*
Y545250D01*
X541250D01*
Y562750D01*
X538064D01*
Y574360D01*
X544461D01*
X546045Y574675D01*
X547388Y575572D01*
X548286Y576916D01*
X548601Y578500D01*
X548286Y580084D01*
X547388Y581427D01*
X546319Y582142D01*
X546596Y583412D01*
X553404D01*
X553681Y582142D01*
X552612Y581427D01*
X551714Y580084D01*
X551399Y578500D01*
X551714Y576916D01*
X552612Y575572D01*
X553955Y574675D01*
X555539Y574360D01*
X559190D01*
Y562750D01*
X556750D01*
Y545250D01*
X557412D01*
Y532635D01*
X555688Y531312D01*
X554269Y529463D01*
X553378Y527310D01*
X553074Y525000D01*
X553378Y522690D01*
X554269Y520537D01*
X555688Y518688D01*
X557537Y517270D01*
X559690Y516378D01*
X560137Y516319D01*
Y449441D01*
X558867Y448915D01*
X555785Y451997D01*
Y454868D01*
X556297Y455634D01*
X556568Y457000D01*
X556297Y458366D01*
X555523Y459523D01*
X554366Y460297D01*
X553000Y460569D01*
X551634Y460297D01*
X550477Y459523D01*
X549703Y458366D01*
X549431Y457000D01*
X549457Y456869D01*
X548287Y456244D01*
X542765Y461765D01*
X542000Y462082D01*
X541781D01*
Y465210D01*
X543321D01*
Y472370D01*
X534000D01*
X524679D01*
Y465210D01*
X526219D01*
Y462082D01*
X524000D01*
X523235Y461765D01*
X522918Y461000D01*
Y441000D01*
X522918Y441000D01*
X523234Y440234D01*
X523235Y440234D01*
X524235Y439235D01*
X525000Y438918D01*
X554995D01*
X555660Y437648D01*
X555431Y436500D01*
X555703Y435134D01*
X556477Y433977D01*
X557634Y433203D01*
X558488Y433033D01*
X558982Y431731D01*
X557083Y429832D01*
X553500D01*
Y430000D01*
X524500D01*
Y418000D01*
X525801D01*
X526000Y417918D01*
X526463D01*
X527065Y416648D01*
X527000Y416568D01*
X525634Y416297D01*
X524477Y415523D01*
X523703Y414366D01*
X523431Y413000D01*
X523703Y411634D01*
X524477Y410477D01*
X525634Y409703D01*
X527000Y409431D01*
X528366Y409703D01*
X529523Y410477D01*
X530297Y411634D01*
X530569Y413000D01*
X530408Y413806D01*
X531552Y414949D01*
X541476D01*
X541861Y413680D01*
X541477Y413423D01*
X540703Y412265D01*
X540431Y410899D01*
X540703Y409534D01*
X541477Y408376D01*
X542634Y407603D01*
X544000Y407331D01*
X544250Y407381D01*
X545520Y406338D01*
Y403452D01*
X548010D01*
X548347Y402182D01*
X544374Y398209D01*
X543872Y397458D01*
X543739Y396790D01*
X539710D01*
Y391270D01*
X545750D01*
X551790D01*
Y396790D01*
X551161D01*
X550675Y397963D01*
X552536Y399825D01*
X553038Y400576D01*
X553214Y401462D01*
Y403452D01*
X556100D01*
Y403913D01*
X556561Y404992D01*
X557996D01*
Y399948D01*
X556613Y398565D01*
X556112Y397815D01*
X555936Y396929D01*
Y395250D01*
X553750D01*
Y384750D01*
X562750D01*
Y395250D01*
X561640D01*
X561114Y396520D01*
X561947Y397353D01*
X562449Y398104D01*
X562625Y398989D01*
Y404992D01*
X564060D01*
Y406190D01*
X571380D01*
X571419Y406198D01*
X572182Y405055D01*
X571713Y404352D01*
X571441Y402987D01*
X571713Y401621D01*
X571914Y401320D01*
X571236Y400050D01*
X565750D01*
Y387550D01*
X576750D01*
Y395302D01*
X577492D01*
X578378Y395478D01*
X578980Y395880D01*
X580046Y395600D01*
X580250Y395515D01*
Y387818D01*
X579248Y387817D01*
X578873Y387661D01*
X578485Y387500D01*
X578484Y387499D01*
X578484Y387499D01*
X578327Y387120D01*
X578168Y386735D01*
X578167Y339791D01*
X578484Y339025D01*
X579250Y338708D01*
X669750Y338708D01*
X670515Y339025D01*
X670832Y339791D01*
Y367685D01*
X692380D01*
X693270Y365537D01*
X694688Y363688D01*
X696537Y362270D01*
X698690Y361378D01*
X701000Y361073D01*
X703310Y361378D01*
X705463Y362270D01*
X707312Y363688D01*
X708730Y365537D01*
X709622Y367690D01*
X709926Y370000D01*
X709622Y372310D01*
X708730Y374463D01*
X707312Y376312D01*
X705463Y377730D01*
X703310Y378622D01*
X701000Y378926D01*
X698690Y378622D01*
X696537Y377730D01*
X694688Y376312D01*
X693270Y374463D01*
X692380Y372314D01*
X670832D01*
Y386865D01*
X670832Y386866D01*
X670832Y386867D01*
X670673Y387250D01*
X670515Y387631D01*
X670515Y387631D01*
X670514Y387632D01*
X670132Y387789D01*
X669750Y387948D01*
X669749Y387947D01*
X669748Y387948D01*
X617189Y387872D01*
X616290Y388769D01*
Y392280D01*
X609500D01*
Y393550D01*
X608230D01*
Y399590D01*
X603250D01*
Y400898D01*
X604250Y401550D01*
X614750D01*
Y410550D01*
X607523D01*
X602437Y415636D01*
X601686Y416138D01*
X600800Y416314D01*
X593069D01*
X592713Y416966D01*
X592790Y418210D01*
X592790D01*
Y418225D01*
X594060Y419039D01*
X594500Y418951D01*
X599500D01*
X600475Y419145D01*
X600536Y419185D01*
X621350D01*
Y416250D01*
X629850D01*
Y435750D01*
X621350D01*
Y423814D01*
X615774D01*
X615625Y424228D01*
X615562Y425084D01*
X616523Y425727D01*
X617297Y426884D01*
X617569Y428250D01*
X617297Y429616D01*
X616523Y430773D01*
X615366Y431547D01*
X614000Y431819D01*
X612634Y431547D01*
X612624Y431540D01*
X611814Y432526D01*
X613766Y434478D01*
X614000Y434431D01*
X615366Y434703D01*
X616523Y435477D01*
X617297Y436634D01*
X617417Y437238D01*
X617506Y437687D01*
X618750Y437750D01*
Y437750D01*
X619704Y437750D01*
X628250D01*
Y448250D01*
X621183D01*
X620696Y449423D01*
X622023Y450750D01*
X628250D01*
Y461250D01*
X618750D01*
Y454023D01*
X616157Y451431D01*
X615131D01*
X614366Y451942D01*
X613000Y452214D01*
X611634Y451942D01*
X610584Y451241D01*
X610059Y451365D01*
X609314Y451716D01*
Y457041D01*
X623257Y470984D01*
X624525Y470901D01*
X624688Y470688D01*
X626537Y469269D01*
X628690Y468378D01*
X631000Y468074D01*
X633310Y468378D01*
X635463Y469269D01*
X637312Y470688D01*
X638730Y472537D01*
X639622Y474690D01*
X639926Y477000D01*
X639622Y479310D01*
X638730Y481463D01*
X637312Y483312D01*
X635463Y484730D01*
X633310Y485622D01*
X631000Y485926D01*
X630636Y485878D01*
X630043Y487081D01*
X632636Y489675D01*
X633138Y490426D01*
X633314Y491312D01*
Y493628D01*
X635347Y494470D01*
X637148Y495852D01*
X638530Y497653D01*
X639398Y499750D01*
X639694Y502000D01*
X639398Y504250D01*
X638530Y506347D01*
X637148Y508148D01*
X635347Y509529D01*
X633250Y510398D01*
X631000Y510694D01*
X628750Y510398D01*
X626653Y509529D01*
X624852Y508148D01*
X623470Y506347D01*
X622602Y504250D01*
X622306Y502000D01*
X622602Y499750D01*
X623470Y497653D01*
X624852Y495852D01*
X626653Y494470D01*
X628685Y493628D01*
Y492270D01*
X595363Y458948D01*
X594862Y458198D01*
X594686Y457312D01*
X593444Y457380D01*
X593306Y458076D01*
X592413Y459413D01*
X591076Y460305D01*
X590770Y460366D01*
Y454000D01*
X588230D01*
Y460898D01*
X587861Y461588D01*
X592887Y466613D01*
X593388Y467364D01*
X593564Y468250D01*
Y470250D01*
X596500D01*
Y479250D01*
X586000D01*
Y470250D01*
X588383D01*
X588707Y468980D01*
X583970Y464243D01*
X583161Y464280D01*
X582568Y464637D01*
X582574Y464846D01*
X582964Y465430D01*
X583235Y466795D01*
X582964Y468161D01*
X582751Y468480D01*
X583429Y469750D01*
X583500D01*
Y479250D01*
X573000D01*
X572082Y480101D01*
Y481899D01*
X573000Y482750D01*
X573352Y482750D01*
X583190D01*
X583500Y482750D01*
X584460Y482001D01*
Y481210D01*
X589980D01*
Y487250D01*
Y493290D01*
X584460D01*
Y492998D01*
X583500Y492250D01*
X583190Y492250D01*
X580784D01*
Y496663D01*
X580992Y496802D01*
X581766Y497960D01*
X582038Y499326D01*
X581766Y500691D01*
X580992Y501849D01*
X579835Y502623D01*
X578469Y502894D01*
X577103Y502623D01*
X575946Y501849D01*
X575172Y500691D01*
X574901Y499326D01*
X575172Y497960D01*
X575946Y496802D01*
X576155Y496663D01*
Y492250D01*
X573352D01*
X573000Y492250D01*
X572082Y493101D01*
Y527000D01*
X571765Y527765D01*
X571765Y527765D01*
X568619Y530912D01*
X568312Y531312D01*
X567912Y531619D01*
X567765Y531765D01*
X567669Y531805D01*
X566588Y532635D01*
Y545250D01*
X567750D01*
Y549412D01*
X580700D01*
X593100Y537011D01*
Y526500D01*
X610100D01*
Y543500D01*
X599589D01*
X585844Y557244D01*
X584356Y558239D01*
X582600Y558588D01*
X567750D01*
Y562750D01*
X563819D01*
Y574360D01*
X567470D01*
X569055Y574675D01*
X570398Y575572D01*
X570869Y576278D01*
X571924Y576943D01*
X572502Y576969D01*
X573151Y576969D01*
X583531D01*
Y590969D01*
Y605031D01*
X571969D01*
Y602338D01*
X566093D01*
Y617495D01*
X565744Y619251D01*
X564749Y620739D01*
X564244Y621244D01*
X562756Y622239D01*
X561000Y622588D01*
X559244Y622239D01*
X557756Y621244D01*
X556761Y619756D01*
X556412Y618000D01*
X556761Y616244D01*
X556917Y616011D01*
Y601640D01*
X555539D01*
X553955Y601325D01*
X552612Y600428D01*
X551714Y599084D01*
X551399Y597500D01*
X551714Y595915D01*
X552612Y594572D01*
X553681Y593858D01*
X553404Y592588D01*
X549439D01*
X548521Y593439D01*
X548521Y593858D01*
Y601561D01*
X543083D01*
Y626494D01*
X544496Y627907D01*
X598604D01*
X639756Y586756D01*
X641244Y585761D01*
X643000Y585412D01*
X658100D01*
X678912Y564599D01*
Y421997D01*
X677642Y421471D01*
X673314Y425799D01*
Y455000D01*
X673138Y455886D01*
X672636Y456637D01*
X662636Y466637D01*
X661886Y467138D01*
X661000Y467314D01*
X651663D01*
X651523Y467523D01*
X650366Y468297D01*
X649000Y468569D01*
X647634Y468297D01*
X646477Y467523D01*
X645703Y466366D01*
X645431Y465000D01*
X645703Y463634D01*
X646477Y462477D01*
X646003Y461276D01*
X643041Y458314D01*
X641250D01*
Y461250D01*
X631750D01*
Y450750D01*
X634185D01*
Y448250D01*
X631750D01*
Y437750D01*
X641250D01*
Y448250D01*
X638814D01*
Y450750D01*
X641250D01*
Y453685D01*
X644000D01*
X644886Y453862D01*
X645637Y454363D01*
X650637Y459363D01*
X651138Y460114D01*
X651314Y461000D01*
Y462337D01*
X651523Y462477D01*
X651663Y462686D01*
X660041D01*
X668686Y454041D01*
Y436715D01*
X668460Y436420D01*
X668417Y436379D01*
X667415Y435910D01*
X667000Y436082D01*
X635182D01*
X635000Y436082D01*
X635000Y436082D01*
X634050Y435750D01*
Y435581D01*
X633235Y434765D01*
X632918Y434000D01*
Y416000D01*
X633235Y415235D01*
X634000Y414917D01*
X668000D01*
X668765Y415235D01*
X669082Y416000D01*
Y421688D01*
X670352Y422214D01*
X808003Y284563D01*
X808754Y284062D01*
X809640Y283885D01*
X952500D01*
Y277700D01*
X969500D01*
Y294700D01*
X952500D01*
Y288514D01*
X810599D01*
X715971Y383142D01*
X716497Y384412D01*
X783000D01*
X784756Y384761D01*
X786244Y385756D01*
X791244Y390756D01*
X792239Y392244D01*
X792588Y394000D01*
Y400250D01*
X793750D01*
Y411750D01*
X782250D01*
Y400250D01*
X783412D01*
Y395900D01*
X781099Y393588D01*
X716900D01*
X688088Y422401D01*
Y566500D01*
X687739Y568256D01*
X686744Y569744D01*
X663244Y593244D01*
X661756Y594239D01*
X660000Y594588D01*
X644900D01*
X604309Y635180D01*
X604835Y636450D01*
X612950D01*
Y661450D01*
X600950D01*
Y637449D01*
X600505Y637083D01*
X542596D01*
X540840Y636734D01*
X539351Y635740D01*
X535251Y631639D01*
X534256Y630150D01*
X533907Y628395D01*
Y601561D01*
X528469D01*
Y593439D01*
X535240D01*
X535271Y593410D01*
X534763Y592140D01*
X532530D01*
X530945Y591825D01*
X529602Y590928D01*
X529192Y590314D01*
X523131D01*
X522569Y591000D01*
X522297Y592366D01*
X521523Y593523D01*
X520366Y594297D01*
X519000Y594568D01*
X517634Y594297D01*
X516477Y593523D01*
X515703Y592366D01*
X515431Y591000D01*
X515703Y589634D01*
X516477Y588477D01*
X517634Y587703D01*
X518442Y587542D01*
X518527Y587114D01*
X519029Y586363D01*
X519780Y585862D01*
X520666Y585685D01*
X529192D01*
X529602Y585072D01*
X530945Y584175D01*
X532530Y583860D01*
Y582640D01*
X530945Y582325D01*
X529602Y581427D01*
X528705Y580084D01*
X528389Y578500D01*
X528705Y576916D01*
X529602Y575572D01*
X530945Y574675D01*
X532530Y574360D01*
X533436D01*
Y562750D01*
X530250D01*
Y557188D01*
X523082D01*
Y566000D01*
X522765Y566765D01*
X522000Y567082D01*
X476750D01*
Y580511D01*
X487244Y591006D01*
X488239Y592494D01*
X488588Y594250D01*
Y655500D01*
X492500D01*
Y672500D01*
X475500D01*
Y655500D01*
X479412D01*
Y647398D01*
X478290Y647040D01*
X478142Y647040D01*
X465270D01*
Y633500D01*
Y619960D01*
X478142D01*
X478290Y619960D01*
X479412Y619602D01*
Y596150D01*
X470261Y587000D01*
X451250D01*
Y567082D01*
X430750D01*
Y571250D01*
X413250D01*
Y567082D01*
X393000D01*
X391894Y567999D01*
Y571211D01*
X393163Y571889D01*
X393606Y571594D01*
X395141Y571289D01*
X402859D01*
X404394Y571594D01*
X405696Y572463D01*
X406565Y573765D01*
X406871Y575300D01*
X406565Y576835D01*
X405696Y578136D01*
X404394Y579006D01*
X402859Y579311D01*
X395141D01*
X393606Y579006D01*
X393163Y578711D01*
X391894Y579389D01*
Y581003D01*
X404300Y587804D01*
X413250D01*
Y586750D01*
X430750D01*
Y587804D01*
X435000D01*
X435765Y588121D01*
X436082Y588886D01*
Y605500D01*
X437000D01*
Y659412D01*
X451407D01*
X452538Y657938D01*
X454313Y656575D01*
X456381Y655719D01*
X458600Y655427D01*
X460819Y655719D01*
X462887Y656575D01*
X464662Y657938D01*
X466025Y659713D01*
X466881Y661781D01*
X467173Y664000D01*
X466881Y666219D01*
X466025Y668287D01*
X464662Y670062D01*
X462887Y671425D01*
X460819Y672281D01*
X458600Y672573D01*
X456381Y672281D01*
X454313Y671425D01*
X452538Y670062D01*
X451407Y668588D01*
X437000D01*
Y702500D01*
D02*
G37*
G36*
X323730Y582581D02*
X321141D01*
X319005Y582156D01*
X317194Y580947D01*
X315984Y579136D01*
X315812Y578270D01*
X323730D01*
Y582581D01*
D02*
G37*
G36*
X605571Y582730D02*
X599520D01*
Y575429D01*
X605571D01*
Y582730D01*
D02*
G37*
G36*
X596980D02*
X590929D01*
Y575429D01*
X596980D01*
Y582730D01*
D02*
G37*
G36*
X285031Y608031D02*
X273469D01*
Y593969D01*
X274662D01*
Y581370D01*
X273263D01*
X271678Y581055D01*
X270335Y580157D01*
X269438Y578814D01*
X269123Y577230D01*
X269364Y576017D01*
X268832Y574907D01*
X268596Y574619D01*
X268136Y574551D01*
X266245Y576442D01*
Y581290D01*
X246192D01*
Y573169D01*
X261840D01*
X261857Y573140D01*
X261138Y571870D01*
X250253D01*
X248669Y571555D01*
X247326Y570657D01*
X246916Y570044D01*
X228723D01*
Y575035D01*
X217161D01*
Y560973D01*
X228723D01*
Y565415D01*
X246916D01*
X247326Y564802D01*
X248669Y563905D01*
X250253Y563589D01*
Y562370D01*
X248669Y562055D01*
X247326Y561157D01*
X246428Y559814D01*
X246113Y558230D01*
X246428Y556645D01*
X247326Y555302D01*
X248669Y554405D01*
X250253Y554089D01*
X262184D01*
X262907Y554233D01*
X273374Y543767D01*
Y543305D01*
X273550Y542420D01*
X274052Y541669D01*
X304704Y511016D01*
X305455Y510514D01*
X306341Y510338D01*
X308389D01*
X336374Y482352D01*
X335848Y481082D01*
X284000D01*
X283235Y480765D01*
X282918Y480000D01*
Y459000D01*
X283235Y458234D01*
X284000Y457918D01*
X288312D01*
Y431481D01*
X284800D01*
Y414481D01*
X301800D01*
Y431481D01*
X297488D01*
Y457918D01*
X328412D01*
Y437635D01*
X326688Y436312D01*
X325270Y434463D01*
X324378Y432310D01*
X324074Y430000D01*
X324378Y427690D01*
X325270Y425537D01*
X326688Y423688D01*
X328537Y422270D01*
X330690Y421378D01*
X333000Y421074D01*
X335310Y421378D01*
X337463Y422270D01*
X339312Y423688D01*
X340730Y425537D01*
X341622Y427690D01*
X341926Y430000D01*
X341622Y432310D01*
X340730Y434463D01*
X339312Y436312D01*
X337588Y437635D01*
Y457918D01*
X395000D01*
X396040Y456974D01*
Y435681D01*
X393604D01*
Y425181D01*
X400665D01*
X401471Y424199D01*
X401431Y424000D01*
X401480Y423754D01*
X399977Y422250D01*
X393750D01*
Y411750D01*
X403250D01*
Y418977D01*
X404754Y420480D01*
X405000Y420431D01*
X406366Y420703D01*
X407523Y421477D01*
X408297Y422634D01*
X408569Y424000D01*
X408297Y425366D01*
X407523Y426523D01*
X407314Y426663D01*
Y483399D01*
X410730D01*
Y491595D01*
X412000D01*
Y492865D01*
X419101D01*
Y499790D01*
X417561D01*
Y511061D01*
X409002D01*
X405314Y514749D01*
Y516000D01*
X405250Y516324D01*
Y519210D01*
X406190D01*
Y528730D01*
X391750D01*
X377310D01*
Y519210D01*
X378250D01*
Y516324D01*
X378186Y516000D01*
Y511002D01*
X378092Y510861D01*
X377915Y509976D01*
Y506024D01*
X378092Y505138D01*
X378186Y504998D01*
Y500750D01*
X376250D01*
Y489750D01*
X375160Y489314D01*
X340965D01*
X310643Y519636D01*
X309892Y520138D01*
X309006Y520314D01*
X306959D01*
X281543Y545730D01*
Y554089D01*
X285194D01*
X286778Y554405D01*
X288121Y555302D01*
X289019Y556645D01*
X289334Y558230D01*
X289019Y559814D01*
X288121Y561157D01*
X286778Y562055D01*
X285194Y562370D01*
X273263D01*
X271678Y562055D01*
X270335Y561157D01*
X269438Y559814D01*
X269123Y558230D01*
X269438Y556645D01*
X270335Y555302D01*
X271678Y554405D01*
X273263Y554089D01*
X276914D01*
Y548433D01*
X275741Y547947D01*
X266180Y557506D01*
X266324Y558230D01*
X266009Y559814D01*
X265112Y561157D01*
X263769Y562055D01*
X262184Y562370D01*
Y563589D01*
X263769Y563905D01*
X265112Y564802D01*
X265612Y565550D01*
X294865D01*
X295751Y565727D01*
X296501Y566228D01*
X315637Y585363D01*
X316138Y586114D01*
X316314Y587000D01*
Y588337D01*
X316523Y588477D01*
X317297Y589634D01*
X317568Y591000D01*
X317297Y592366D01*
X316523Y593523D01*
X315366Y594297D01*
X314000Y594568D01*
X312634Y594297D01*
X311477Y593523D01*
X310703Y592366D01*
X310431Y591000D01*
X310703Y589634D01*
X311477Y588477D01*
X311003Y587276D01*
X293906Y570179D01*
X291112D01*
X290626Y571353D01*
X298754Y579480D01*
X299000Y579431D01*
X300366Y579703D01*
X301523Y580477D01*
X302297Y581634D01*
X302568Y583000D01*
X302297Y584366D01*
X301523Y585523D01*
X300366Y586297D01*
X299000Y586568D01*
X297634Y586297D01*
X296477Y585523D01*
X295703Y584366D01*
X295431Y583000D01*
X295480Y582753D01*
X290517Y577790D01*
X289139Y578209D01*
X289019Y578814D01*
X288121Y580157D01*
X286778Y581055D01*
X285194Y581370D01*
X283838D01*
Y593969D01*
X285031D01*
Y595785D01*
X295170D01*
X296926Y596135D01*
X298415Y597129D01*
X299409Y598618D01*
X299758Y600373D01*
X299409Y602129D01*
X298415Y603618D01*
X296926Y604612D01*
X295170Y604962D01*
X285031D01*
Y608031D01*
D02*
G37*
G36*
X727000Y589926D02*
X724690Y589622D01*
X722537Y588730D01*
X720688Y587312D01*
X719269Y585463D01*
X718378Y583310D01*
X718074Y581000D01*
X718378Y578690D01*
X719269Y576537D01*
X720688Y574688D01*
X722537Y573270D01*
X724690Y572378D01*
X727000Y572074D01*
X729310Y572378D01*
X731463Y573270D01*
X733312Y574688D01*
X734730Y576537D01*
X735620Y578685D01*
X764000D01*
Y573500D01*
X786000D01*
Y588500D01*
X764000D01*
Y583314D01*
X735620D01*
X734730Y585463D01*
X733312Y587312D01*
X731463Y588730D01*
X729310Y589622D01*
X727000Y589926D01*
D02*
G37*
G36*
X323730Y575730D02*
X315812D01*
X315984Y574864D01*
X317194Y573053D01*
X319005Y571843D01*
X321141Y571418D01*
X323730D01*
Y575730D01*
D02*
G37*
G36*
X209763Y576575D02*
X203712D01*
Y569274D01*
X209763D01*
Y576575D01*
D02*
G37*
G36*
X201172D02*
X195121D01*
Y569274D01*
X201172D01*
Y576575D01*
D02*
G37*
G36*
X959239Y580823D02*
X957020Y580531D01*
X954952Y579675D01*
X953177Y578312D01*
X951814Y576537D01*
X950958Y574469D01*
X950666Y572250D01*
X950958Y570031D01*
X951814Y567963D01*
X953177Y566188D01*
X954952Y564825D01*
X957020Y563969D01*
X959239Y563677D01*
X961458Y563969D01*
X963526Y564825D01*
X965301Y566188D01*
X966664Y567963D01*
X967520Y570031D01*
X967812Y572250D01*
X967520Y574469D01*
X966664Y576537D01*
X965301Y578312D01*
X963526Y579675D01*
X961458Y580531D01*
X959239Y580823D01*
D02*
G37*
G36*
X209763Y566734D02*
X203712D01*
Y559433D01*
X209763D01*
Y566734D01*
D02*
G37*
G36*
X201172D02*
X195121D01*
Y559433D01*
X201172D01*
Y566734D01*
D02*
G37*
G36*
X328859Y562711D02*
X321141D01*
X319606Y562406D01*
X318304Y561536D01*
X317435Y560235D01*
X317129Y558700D01*
X317435Y557165D01*
X318304Y555863D01*
X319606Y554994D01*
X321141Y554689D01*
X328859D01*
X330394Y554994D01*
X331696Y555863D01*
X332565Y557165D01*
X332871Y558700D01*
X332565Y560235D01*
X331696Y561536D01*
X330394Y562406D01*
X328859Y562711D01*
D02*
G37*
G36*
X959239Y555423D02*
X957020Y555131D01*
X954952Y554275D01*
X953177Y552912D01*
X951814Y551137D01*
X950958Y549069D01*
X950666Y546850D01*
X950958Y544631D01*
X951814Y542563D01*
X953177Y540788D01*
X954952Y539425D01*
X957020Y538569D01*
X959239Y538277D01*
X961458Y538569D01*
X963526Y539425D01*
X965301Y540788D01*
X966664Y542563D01*
X967520Y544631D01*
X967812Y546850D01*
X967520Y549069D01*
X966664Y551137D01*
X965301Y552912D01*
X963526Y554275D01*
X961458Y555131D01*
X959239Y555423D01*
D02*
G37*
G36*
X653670Y544959D02*
Y536270D01*
X662359D01*
X662181Y537621D01*
X661170Y540063D01*
X659561Y542161D01*
X657463Y543770D01*
X655021Y544781D01*
X653670Y544959D01*
D02*
G37*
G36*
X651130D02*
X649779Y544781D01*
X647337Y543770D01*
X645239Y542161D01*
X643630Y540063D01*
X642618Y537621D01*
X642440Y536270D01*
X651130D01*
Y544959D01*
D02*
G37*
G36*
X763546Y540098D02*
X757526D01*
Y534078D01*
X763546D01*
Y540098D01*
D02*
G37*
G36*
X754986D02*
X748966D01*
Y534078D01*
X754986D01*
Y540098D01*
D02*
G37*
G36*
X347190Y542590D02*
X334270D01*
Y531370D01*
X347190D01*
Y542590D01*
D02*
G37*
G36*
X331730D02*
X318810D01*
Y531370D01*
X331730D01*
Y542590D01*
D02*
G37*
G36*
X627000Y543573D02*
X624781Y543281D01*
X622713Y542425D01*
X620938Y541062D01*
X619575Y539287D01*
X618719Y537219D01*
X618427Y535000D01*
X618719Y532781D01*
X619575Y530713D01*
X620938Y528938D01*
X622713Y527575D01*
X624781Y526719D01*
X627000Y526427D01*
X629219Y526719D01*
X631287Y527575D01*
X633062Y528938D01*
X634425Y530713D01*
X635281Y532781D01*
X635573Y535000D01*
X635281Y537219D01*
X634425Y539287D01*
X633062Y541062D01*
X631287Y542425D01*
X629219Y543281D01*
X627000Y543573D01*
D02*
G37*
G36*
X763546Y531538D02*
X757526D01*
Y525518D01*
X763546D01*
Y531538D01*
D02*
G37*
G36*
X754986D02*
X748966D01*
Y525518D01*
X754986D01*
Y531538D01*
D02*
G37*
G36*
X826000Y603500D02*
X804000D01*
Y581500D01*
X812685D01*
Y548508D01*
X810363Y546186D01*
X809862Y545435D01*
X809686Y544550D01*
Y536250D01*
X798750D01*
Y529273D01*
X794874Y525397D01*
X793750Y526069D01*
X793750Y526888D01*
Y537250D01*
X792588D01*
Y549000D01*
X792239Y550756D01*
X791244Y552244D01*
X789756Y553239D01*
X788000Y553588D01*
X786244Y553239D01*
X784756Y552244D01*
X783761Y550756D01*
X783412Y549000D01*
Y537250D01*
X782250D01*
Y525750D01*
X792525D01*
X793431Y525750D01*
X794103Y524626D01*
X791727Y522250D01*
X782250D01*
Y510750D01*
X785985D01*
Y503374D01*
X785810D01*
X784654Y502896D01*
X784176Y501740D01*
Y488260D01*
X784654Y487104D01*
X785810Y486626D01*
X790790D01*
X791946Y487104D01*
X792424Y488260D01*
Y501740D01*
X791946Y502896D01*
X790790Y503374D01*
X790614D01*
Y510750D01*
X793750D01*
Y517727D01*
X800773Y524750D01*
X809686D01*
Y520250D01*
X798750D01*
Y508750D01*
X802186D01*
Y504850D01*
X798510D01*
X797320Y504613D01*
X796311Y503939D01*
X795637Y502930D01*
X795400Y501740D01*
Y496270D01*
X801000D01*
Y495000D01*
X802270D01*
Y485150D01*
X803490D01*
X804686Y484093D01*
Y476459D01*
X786663Y458437D01*
X786162Y457686D01*
X785985Y456800D01*
Y448874D01*
X785810D01*
X784654Y448396D01*
X784176Y447240D01*
Y433760D01*
X784654Y432604D01*
X785810Y432126D01*
X785985D01*
Y426750D01*
X782250D01*
Y415250D01*
X793750D01*
Y426750D01*
X790614D01*
Y432126D01*
X790790D01*
X791946Y432604D01*
X792424Y433760D01*
Y447240D01*
X791946Y448396D01*
X790790Y448874D01*
X790614D01*
Y455841D01*
X808637Y473863D01*
X809138Y474614D01*
X809314Y475500D01*
Y486185D01*
X810584Y486885D01*
X811210Y486626D01*
X816190D01*
X817346Y487104D01*
X817824Y488260D01*
Y501740D01*
X817346Y502896D01*
X816190Y503374D01*
X814314D01*
Y508750D01*
X817186D01*
Y506150D01*
X817362Y505264D01*
X817863Y504513D01*
X822276Y500101D01*
Y488260D01*
X822754Y487104D01*
X823686Y486718D01*
Y482500D01*
X823862Y481614D01*
X824363Y480863D01*
X831863Y473363D01*
X832614Y472862D01*
X833500Y472685D01*
X850250D01*
Y469250D01*
X861750D01*
Y480750D01*
X850250D01*
Y477314D01*
X834459D01*
X828314Y483459D01*
Y486626D01*
X828890D01*
X830046Y487104D01*
X830524Y488260D01*
Y492686D01*
X834976D01*
Y488260D01*
X835454Y487104D01*
X836610Y486626D01*
X841590D01*
X842746Y487104D01*
X843224Y488260D01*
Y501740D01*
X842746Y502896D01*
X841590Y503374D01*
X836610D01*
X835454Y502896D01*
X834976Y501740D01*
Y497314D01*
X830524D01*
Y501740D01*
X830046Y502896D01*
X828890Y503374D01*
X825549D01*
X821814Y507109D01*
Y508750D01*
X825250D01*
Y520250D01*
X821814D01*
Y524750D01*
X825250D01*
Y528186D01*
X833700D01*
X834586Y528362D01*
X835337Y528863D01*
X851541Y545067D01*
X853690Y544177D01*
X856000Y543873D01*
X858310Y544177D01*
X860463Y545069D01*
X862312Y546488D01*
X863730Y548336D01*
X864622Y550489D01*
X864926Y552800D01*
X864622Y555110D01*
X863730Y557263D01*
X862312Y559112D01*
X860463Y560530D01*
X858310Y561422D01*
X856000Y561726D01*
X853690Y561422D01*
X851537Y560530D01*
X849688Y559112D01*
X848270Y557263D01*
X847378Y555110D01*
X847074Y552800D01*
X847378Y550489D01*
X848268Y548341D01*
X832742Y532814D01*
X825250D01*
Y536250D01*
X814314D01*
Y543591D01*
X816637Y545913D01*
X817138Y546664D01*
X817315Y547550D01*
Y581500D01*
X826000D01*
Y603500D01*
D02*
G37*
G36*
X662359Y533730D02*
X653670D01*
Y525041D01*
X655021Y525218D01*
X657463Y526230D01*
X659561Y527839D01*
X661170Y529937D01*
X662181Y532379D01*
X662359Y533730D01*
D02*
G37*
G36*
X651130D02*
X642440D01*
X642618Y532379D01*
X643630Y529937D01*
X645239Y527839D01*
X647337Y526230D01*
X649779Y525218D01*
X651130Y525041D01*
Y533730D01*
D02*
G37*
G36*
X347190Y528830D02*
X334270D01*
Y517610D01*
X347190D01*
Y528830D01*
D02*
G37*
G36*
X331730D02*
X318810D01*
Y517610D01*
X331730D01*
Y528830D01*
D02*
G37*
G36*
X967739Y529950D02*
X950739D01*
Y512950D01*
X967739D01*
Y529950D01*
D02*
G37*
G36*
X777006Y538558D02*
X765506D01*
Y527058D01*
X768686D01*
Y521250D01*
X765250D01*
Y511319D01*
X763980Y510793D01*
X761750Y513023D01*
Y521250D01*
X750250D01*
Y509750D01*
X758477D01*
X760585Y507641D01*
Y503374D01*
X760410D01*
X759254Y502896D01*
X758776Y501740D01*
Y497314D01*
X738621D01*
X737730Y499463D01*
X736312Y501312D01*
X734463Y502730D01*
X732310Y503622D01*
X730000Y503926D01*
X727690Y503622D01*
X725537Y502730D01*
X723688Y501312D01*
X722270Y499463D01*
X721378Y497310D01*
X721074Y495000D01*
X721378Y492690D01*
X722270Y490537D01*
X723688Y488688D01*
X725537Y487270D01*
X727690Y486378D01*
X730000Y486074D01*
X732310Y486378D01*
X734463Y487270D01*
X736312Y488688D01*
X737730Y490537D01*
X738621Y492686D01*
X758776D01*
Y488260D01*
X759254Y487104D01*
X760410Y486626D01*
X765390D01*
X766546Y487104D01*
X767024Y488260D01*
Y501740D01*
X766546Y502896D01*
X765390Y503374D01*
X765214D01*
Y508495D01*
X765218Y508603D01*
X766273Y509750D01*
X773286D01*
Y503374D01*
X773110D01*
X771954Y502896D01*
X771476Y501740D01*
Y488260D01*
X771954Y487104D01*
X773110Y486626D01*
X778090D01*
X779246Y487104D01*
X779724Y488260D01*
Y501740D01*
X779246Y502896D01*
X778090Y503374D01*
X777914D01*
Y510900D01*
X777738Y511786D01*
X777236Y512537D01*
X776750Y513023D01*
Y521250D01*
X773315D01*
Y527058D01*
X777006D01*
Y538558D01*
D02*
G37*
G36*
X439540Y514540D02*
X433270D01*
Y509270D01*
X439540D01*
Y514540D01*
D02*
G37*
G36*
X430730D02*
X424460D01*
Y509270D01*
X430730D01*
Y514540D01*
D02*
G37*
G36*
X522190Y517890D02*
X510270D01*
Y506670D01*
X522190D01*
Y517890D01*
D02*
G37*
G36*
X507730D02*
X495810D01*
Y506670D01*
X507730D01*
Y517890D01*
D02*
G37*
G36*
X292000Y520000D02*
X270000D01*
Y498000D01*
X292000D01*
Y506685D01*
X294337D01*
X294477Y506477D01*
X295634Y505703D01*
X297000Y505431D01*
X298366Y505703D01*
X299523Y506477D01*
X300297Y507634D01*
X300569Y509000D01*
X300297Y510366D01*
X299523Y511523D01*
X298366Y512297D01*
X297000Y512569D01*
X295634Y512297D01*
X294477Y511523D01*
X294337Y511314D01*
X292000D01*
Y520000D01*
D02*
G37*
G36*
X439540Y506730D02*
X433270D01*
Y501460D01*
X439540D01*
Y506730D01*
D02*
G37*
G36*
X430730D02*
X424460D01*
Y501460D01*
X430730D01*
Y506730D01*
D02*
G37*
G36*
X85000Y506118D02*
X82659Y505652D01*
X80674Y504326D01*
X79348Y502341D01*
X78882Y500000D01*
X79348Y497659D01*
X80674Y495674D01*
X82659Y494348D01*
X85000Y493882D01*
X87341Y494348D01*
X89326Y495674D01*
X90652Y497659D01*
X91117Y500000D01*
X90652Y502341D01*
X89326Y504326D01*
X87341Y505652D01*
X85000Y506118D01*
D02*
G37*
G36*
X522190Y504130D02*
X510270D01*
Y492910D01*
X522190D01*
Y504130D01*
D02*
G37*
G36*
X507730D02*
X495810D01*
Y492910D01*
X507730D01*
Y504130D01*
D02*
G37*
G36*
X598040Y493290D02*
X592520D01*
Y488520D01*
X598040D01*
Y493290D01*
D02*
G37*
G36*
X799730Y493730D02*
X795400D01*
Y488260D01*
X795637Y487070D01*
X796311Y486061D01*
X797320Y485387D01*
X798510Y485150D01*
X799730D01*
Y493730D01*
D02*
G37*
G36*
X419101Y490325D02*
X413270D01*
Y483399D01*
X419101D01*
Y490325D01*
D02*
G37*
G36*
X960509Y490659D02*
Y481970D01*
X969198D01*
X969020Y483321D01*
X968009Y485763D01*
X966399Y487861D01*
X964302Y489470D01*
X961860Y490481D01*
X960509Y490659D01*
D02*
G37*
G36*
X957969D02*
X956618Y490481D01*
X954175Y489470D01*
X952078Y487861D01*
X950469Y485763D01*
X949457Y483321D01*
X949279Y481970D01*
X957969D01*
Y490659D01*
D02*
G37*
G36*
X598040Y485980D02*
X592520D01*
Y481210D01*
X598040D01*
Y485980D01*
D02*
G37*
G36*
X478290Y491040D02*
X465270D01*
Y478770D01*
X478290D01*
Y491040D01*
D02*
G37*
G36*
X462730D02*
X449710D01*
Y478770D01*
X462730D01*
Y491040D01*
D02*
G37*
G36*
X543321Y482071D02*
X535270D01*
Y474911D01*
X543321D01*
Y482071D01*
D02*
G37*
G36*
X532730D02*
X524679D01*
Y474911D01*
X532730D01*
Y482071D01*
D02*
G37*
G36*
X957969Y479430D02*
X949279D01*
X949457Y478079D01*
X950469Y475637D01*
X952078Y473539D01*
X954175Y471930D01*
X956618Y470918D01*
X957969Y470741D01*
Y479430D01*
D02*
G37*
G36*
X969198D02*
X960509D01*
Y470741D01*
X961860Y470918D01*
X964302Y471930D01*
X966399Y473539D01*
X968009Y475637D01*
X969020Y478079D01*
X969198Y479430D01*
D02*
G37*
G36*
X278540Y481540D02*
X270770D01*
Y470270D01*
X278540D01*
Y481540D01*
D02*
G37*
G36*
X268230D02*
X260460D01*
Y470270D01*
X268230D01*
Y481540D01*
D02*
G37*
G36*
X478290Y476230D02*
X465270D01*
Y463960D01*
X478290D01*
Y476230D01*
D02*
G37*
G36*
X462730D02*
X449710D01*
Y463960D01*
X462730D01*
Y476230D01*
D02*
G37*
G36*
X278540Y467730D02*
X270770D01*
Y456460D01*
X278540D01*
Y467730D01*
D02*
G37*
G36*
X268230D02*
X260460D01*
Y456460D01*
X268230D01*
Y467730D01*
D02*
G37*
G36*
X861750Y465750D02*
X850250D01*
Y462314D01*
X818500D01*
X817614Y462138D01*
X816863Y461637D01*
X812063Y456837D01*
X811562Y456086D01*
X811385Y455200D01*
Y448874D01*
X811210D01*
X810054Y448396D01*
X809576Y447240D01*
Y433760D01*
X810054Y432604D01*
X811210Y432126D01*
X811423D01*
Y423545D01*
X808092D01*
Y412045D01*
X819592D01*
Y423545D01*
X816052D01*
Y432126D01*
X816190D01*
X817346Y432604D01*
X817824Y433760D01*
Y447240D01*
X817346Y448396D01*
X816190Y448874D01*
X816014D01*
Y454241D01*
X819459Y457685D01*
X850250D01*
Y454250D01*
X861750D01*
Y465750D01*
D02*
G37*
G36*
X959239Y463873D02*
X957020Y463581D01*
X954952Y462725D01*
X953176Y461362D01*
X951814Y459587D01*
X950958Y457519D01*
X950665Y455300D01*
X950958Y453081D01*
X951814Y451013D01*
X953176Y449238D01*
X954952Y447875D01*
X957020Y447019D01*
X959239Y446727D01*
X961458Y447019D01*
X963525Y447875D01*
X965301Y449238D01*
X966664Y451013D01*
X967520Y453081D01*
X967812Y455300D01*
X967520Y457519D01*
X966664Y459587D01*
X965301Y461362D01*
X963525Y462725D01*
X961458Y463581D01*
X959239Y463873D01*
D02*
G37*
G36*
X866000Y448926D02*
X863690Y448622D01*
X861537Y447730D01*
X859688Y446312D01*
X858270Y444463D01*
X857794Y443314D01*
X843224D01*
Y447240D01*
X842746Y448396D01*
X841590Y448874D01*
X836610D01*
X835454Y448396D01*
X834976Y447240D01*
Y433760D01*
X835454Y432604D01*
X836610Y432126D01*
X836786D01*
Y425828D01*
X836538Y424681D01*
X836321Y424562D01*
X835176Y424250D01*
D01*
X835176Y424250D01*
X832315D01*
Y432650D01*
X832138Y433536D01*
X831637Y434286D01*
X830524Y435399D01*
Y447240D01*
X830046Y448396D01*
X828890Y448874D01*
X823910D01*
X822754Y448396D01*
X822276Y447240D01*
Y433760D01*
X822754Y432604D01*
X823910Y432126D01*
X827251D01*
X827685Y431691D01*
Y424250D01*
X824250D01*
Y412750D01*
X827685D01*
Y408250D01*
X824250D01*
Y396750D01*
X835750D01*
Y408250D01*
X832315D01*
Y412750D01*
X835750D01*
Y422683D01*
X836928Y423439D01*
X837020Y423427D01*
X837463Y422763D01*
X839250Y420977D01*
Y412750D01*
X850750D01*
Y424250D01*
X842523D01*
X841414Y425359D01*
Y432126D01*
X841590D01*
X842746Y432604D01*
X843224Y433760D01*
Y438685D01*
X857247D01*
X857378Y437690D01*
X858270Y435537D01*
X859688Y433688D01*
X861537Y432270D01*
X863690Y431378D01*
X866000Y431074D01*
X868310Y431378D01*
X870463Y432270D01*
X872312Y433688D01*
X873730Y435537D01*
X874622Y437690D01*
X874926Y440000D01*
X874622Y442310D01*
X873730Y444463D01*
X872312Y446312D01*
X870463Y447730D01*
X868310Y448622D01*
X866000Y448926D01*
D02*
G37*
G36*
X428000Y447569D02*
X426634Y447297D01*
X425477Y446523D01*
X424703Y445366D01*
X424431Y444000D01*
X424480Y443754D01*
X414363Y433637D01*
X413862Y432886D01*
X413685Y432000D01*
Y397831D01*
X410219D01*
Y383769D01*
X421781D01*
Y388485D01*
X424692D01*
X425102Y387872D01*
X426445Y386975D01*
X428030Y386660D01*
Y385440D01*
X426445Y385125D01*
X425102Y384227D01*
X424205Y382884D01*
X423889Y381300D01*
X424205Y379716D01*
X425102Y378372D01*
X425725Y377956D01*
X425850Y376428D01*
X409541Y360119D01*
X409039Y359368D01*
X408863Y358482D01*
Y357160D01*
X400950D01*
Y334840D01*
X402800D01*
Y293150D01*
X402647Y293087D01*
X400799Y291668D01*
X399380Y289819D01*
X398488Y287666D01*
X398184Y285356D01*
X398488Y283046D01*
X399380Y280893D01*
X400799Y279044D01*
X402523Y277722D01*
Y237011D01*
X384756Y219244D01*
X383761Y217756D01*
X383412Y216000D01*
Y179361D01*
X370165D01*
X368410Y179011D01*
X366921Y178017D01*
X348703Y159799D01*
X347433Y160325D01*
Y168391D01*
X348619D01*
X348619Y175891D01*
X349698Y176351D01*
X350159D01*
Y180371D01*
X345118D01*
X340079D01*
Y176351D01*
X340539D01*
X341618Y175891D01*
X341618Y175081D01*
Y168391D01*
X342804D01*
Y158723D01*
X337116D01*
Y147724D01*
X354116D01*
Y152235D01*
X372066Y170184D01*
X403982D01*
X421931Y152235D01*
Y147724D01*
X438931D01*
Y152235D01*
X455000Y168303D01*
X490678D01*
X506746Y152235D01*
Y147724D01*
X523746D01*
Y148635D01*
X533246D01*
X535002Y148985D01*
X536491Y149979D01*
X553815Y167303D01*
X576493D01*
X591561Y152235D01*
Y147724D01*
X608561D01*
Y158723D01*
X602564D01*
Y168391D01*
X603750D01*
X603750Y175891D01*
X604829Y176351D01*
X605290D01*
Y180371D01*
X600250D01*
X595210D01*
Y176351D01*
X595671D01*
X596750Y175891D01*
X596750Y175081D01*
Y168391D01*
X597935D01*
Y160497D01*
X596762Y160011D01*
X581638Y175135D01*
X580149Y176130D01*
X578394Y176479D01*
X551914D01*
X550158Y176130D01*
X548670Y175135D01*
X531346Y157812D01*
X523746D01*
Y158723D01*
X517807D01*
Y168391D01*
X518993D01*
X518993Y175891D01*
X520072Y176351D01*
X520533D01*
Y180371D01*
X515493D01*
X510453D01*
Y176351D01*
X510913D01*
X511993Y175891D01*
X511993Y175081D01*
Y168391D01*
X513178D01*
Y160440D01*
X512005Y159954D01*
X495823Y176136D01*
X494334Y177130D01*
X492579Y177479D01*
X453099D01*
X451343Y177130D01*
X449855Y176136D01*
X434033Y160313D01*
X432859Y160799D01*
Y168391D01*
X434045D01*
X434045Y175891D01*
X435124Y176351D01*
X435585D01*
Y180371D01*
X430545D01*
X425505D01*
Y176351D01*
X425965D01*
X427045Y175891D01*
X427045Y175081D01*
Y168391D01*
X428230D01*
Y160573D01*
X427057Y160086D01*
X409127Y178017D01*
X407638Y179011D01*
X405882Y179361D01*
X392588D01*
Y214100D01*
X410355Y231866D01*
X411349Y233355D01*
X411699Y235111D01*
Y277722D01*
X413423Y279044D01*
X414841Y280893D01*
X415733Y283046D01*
X416037Y285356D01*
X415733Y287666D01*
X414841Y289819D01*
X413423Y291668D01*
X411976Y292778D01*
Y334840D01*
X414380D01*
Y357160D01*
X414380D01*
X414393Y358425D01*
X430331Y374362D01*
X430832Y375113D01*
X431008Y375999D01*
Y377160D01*
X439961D01*
X441545Y377475D01*
X442888Y378372D01*
X443786Y379716D01*
X444101Y381300D01*
X443786Y382884D01*
X442888Y384227D01*
X441545Y385125D01*
X439961Y385440D01*
Y386660D01*
X441545Y386975D01*
X442888Y387872D01*
X443786Y389216D01*
X444101Y390800D01*
X443786Y392384D01*
X442888Y393727D01*
X441545Y394625D01*
X439961Y394940D01*
X437727D01*
X437219Y396210D01*
X437250Y396239D01*
X444021D01*
Y404361D01*
X438583D01*
Y419005D01*
X438234Y420761D01*
X437239Y422249D01*
X435751Y423244D01*
X433995Y423593D01*
X432239Y423244D01*
X430751Y422249D01*
X429756Y420761D01*
X429407Y419005D01*
Y404361D01*
X423969D01*
Y396239D01*
X430740D01*
X430771Y396210D01*
X430263Y394940D01*
X428030D01*
X426445Y394625D01*
X425102Y393727D01*
X424692Y393114D01*
X421781D01*
Y397831D01*
X418314D01*
Y431041D01*
X427754Y440480D01*
X428000Y440431D01*
X429366Y440703D01*
X430523Y441477D01*
X431297Y442634D01*
X431568Y444000D01*
X431297Y445366D01*
X430523Y446523D01*
X429366Y447297D01*
X428000Y447569D01*
D02*
G37*
G36*
X501000Y455926D02*
X498690Y455622D01*
X496537Y454730D01*
X494688Y453312D01*
X493270Y451463D01*
X492378Y449310D01*
X492074Y447000D01*
X492378Y444690D01*
X493270Y442537D01*
X494688Y440688D01*
X496537Y439269D01*
X498690Y438378D01*
X501000Y438074D01*
X503310Y438378D01*
X505463Y439269D01*
X507312Y440688D01*
X508730Y442537D01*
X509622Y444690D01*
X509926Y447000D01*
X509622Y449310D01*
X508730Y451463D01*
X507312Y453312D01*
X505463Y454730D01*
X503310Y455622D01*
X501000Y455926D01*
D02*
G37*
G36*
X465571Y442571D02*
X458270D01*
Y436520D01*
X465571D01*
Y442571D01*
D02*
G37*
G36*
X455730D02*
X448429D01*
Y436520D01*
X455730D01*
Y442571D01*
D02*
G37*
G36*
X465571Y433980D02*
X458270D01*
Y427929D01*
X465571D01*
Y433980D01*
D02*
G37*
G36*
X455730D02*
X448429D01*
Y427929D01*
X455730D01*
Y433980D01*
D02*
G37*
G36*
X269170Y432940D02*
Y424251D01*
X277859D01*
X277682Y425602D01*
X276670Y428044D01*
X275061Y430141D01*
X272963Y431751D01*
X270521Y432762D01*
X269170Y432940D01*
D02*
G37*
G36*
X266630D02*
X265279Y432762D01*
X262837Y431751D01*
X260739Y430141D01*
X259130Y428044D01*
X258118Y425602D01*
X257941Y424251D01*
X266630D01*
Y432940D01*
D02*
G37*
G36*
X959239Y438473D02*
X957020Y438181D01*
X954952Y437325D01*
X953176Y435962D01*
X951814Y434187D01*
X950958Y432119D01*
X950665Y429900D01*
X950958Y427681D01*
X951814Y425613D01*
X953176Y423838D01*
X954952Y422475D01*
X957020Y421619D01*
X959239Y421327D01*
X961458Y421619D01*
X963525Y422475D01*
X965301Y423838D01*
X966664Y425613D01*
X967520Y427681D01*
X967812Y429900D01*
X967520Y432119D01*
X966664Y434187D01*
X965301Y435962D01*
X963525Y437325D01*
X961458Y438181D01*
X959239Y438473D01*
D02*
G37*
G36*
X803490Y448874D02*
X798510D01*
X797354Y448396D01*
X796876Y447240D01*
Y442427D01*
X796761Y442256D01*
X796412Y440500D01*
Y423000D01*
X796412Y423000D01*
X796761Y421244D01*
X797756Y419756D01*
X799244Y418761D01*
X801000Y418412D01*
X802756Y418761D01*
X804244Y419756D01*
X805239Y421244D01*
X805588Y423000D01*
Y440500D01*
X805239Y442256D01*
X805124Y442427D01*
Y447240D01*
X804646Y448396D01*
X803490Y448874D01*
D02*
G37*
G36*
X730000Y469156D02*
X727690Y468852D01*
X725537Y467960D01*
X723688Y466541D01*
X722270Y464692D01*
X721378Y462540D01*
X721074Y460229D01*
X721378Y457919D01*
X722270Y455766D01*
X723688Y453918D01*
X725537Y452499D01*
X727690Y451607D01*
X730000Y451303D01*
X732310Y451607D01*
X734459Y452497D01*
X742623Y444333D01*
X743374Y443832D01*
X744259Y443655D01*
X758776D01*
Y433760D01*
X759254Y432604D01*
X760410Y432126D01*
X760585D01*
Y427250D01*
X752250D01*
Y415750D01*
X763750D01*
Y422255D01*
X763786Y422262D01*
X764537Y422763D01*
X765038Y423514D01*
X765214Y424400D01*
Y432126D01*
X765390D01*
X766546Y432604D01*
X767024Y433760D01*
Y447240D01*
X766546Y448396D01*
X765390Y448874D01*
X760410D01*
X759254Y448396D01*
X759208Y448284D01*
X745218D01*
X737732Y455770D01*
X738622Y457919D01*
X738926Y460229D01*
X738622Y462540D01*
X737730Y464692D01*
X736312Y466541D01*
X734463Y467960D01*
X732310Y468852D01*
X730000Y469156D01*
D02*
G37*
G36*
X277859Y421711D02*
X269170D01*
Y413021D01*
X270521Y413199D01*
X272963Y414211D01*
X275061Y415820D01*
X276670Y417917D01*
X277682Y420360D01*
X277859Y421711D01*
D02*
G37*
G36*
X266630D02*
X257941D01*
X258118Y420360D01*
X259130Y417917D01*
X260739Y415820D01*
X262837Y414211D01*
X265279Y413199D01*
X266630Y413021D01*
Y421711D01*
D02*
G37*
G36*
X385000Y442569D02*
X383634Y442297D01*
X382477Y441523D01*
X381703Y440366D01*
X381431Y439000D01*
X381703Y437634D01*
X382160Y436951D01*
X381556Y435681D01*
X380604D01*
Y425181D01*
X383113D01*
Y422250D01*
X380750D01*
Y411750D01*
X390250D01*
Y422250D01*
X387742D01*
Y425181D01*
X390104D01*
Y435681D01*
X388444D01*
X387840Y436951D01*
X388297Y437634D01*
X388568Y439000D01*
X388297Y440366D01*
X387523Y441523D01*
X386366Y442297D01*
X385000Y442569D01*
D02*
G37*
G36*
X765290Y411790D02*
X759270D01*
Y405770D01*
X765290D01*
Y411790D01*
D02*
G37*
G36*
X756730D02*
X750710D01*
Y405770D01*
X756730D01*
Y411790D01*
D02*
G37*
G36*
X852290Y409790D02*
X846270D01*
Y403770D01*
X852290D01*
Y409790D01*
D02*
G37*
G36*
X843730D02*
X837710D01*
Y403770D01*
X843730D01*
Y409790D01*
D02*
G37*
G36*
X778090Y448874D02*
X773110D01*
X771954Y448396D01*
X771476Y447240D01*
Y433760D01*
X771954Y432604D01*
X773110Y432126D01*
X773286D01*
Y427250D01*
X767250D01*
Y415750D01*
X773286D01*
Y410250D01*
X767250D01*
Y398750D01*
X778750D01*
Y410250D01*
X777914D01*
Y415750D01*
X778750D01*
Y427250D01*
X777914D01*
Y432126D01*
X778090D01*
X779246Y432604D01*
X779724Y433760D01*
Y447240D01*
X779246Y448396D01*
X778090Y448874D01*
D02*
G37*
G36*
X765290Y403230D02*
X759270D01*
Y397210D01*
X765290D01*
Y403230D01*
D02*
G37*
G36*
X756730D02*
X750710D01*
Y397210D01*
X756730D01*
Y403230D01*
D02*
G37*
G36*
X967739Y413000D02*
X950739D01*
Y396000D01*
X967739D01*
Y413000D01*
D02*
G37*
G36*
X464031Y420531D02*
X449969D01*
Y408969D01*
X452414D01*
Y404440D01*
X451039D01*
X449455Y404125D01*
X448112Y403228D01*
X447214Y401884D01*
X446899Y400300D01*
X447214Y398716D01*
X448112Y397372D01*
X449455Y396475D01*
X451039Y396160D01*
X455101D01*
X455249Y396061D01*
X457005Y395712D01*
X458761Y396061D01*
X458908Y396160D01*
X462970D01*
X464555Y396475D01*
X465898Y397372D01*
X466795Y398716D01*
X467110Y400300D01*
X466795Y401884D01*
X465898Y403228D01*
X464555Y404125D01*
X462970Y404440D01*
X461590D01*
Y408969D01*
X464031D01*
Y410162D01*
X475631D01*
X477387Y410511D01*
X478875Y411506D01*
X479254Y411885D01*
X480249Y413373D01*
X480598Y415129D01*
X480249Y416885D01*
X479254Y418373D01*
X477766Y419368D01*
X476010Y419717D01*
X474254Y419368D01*
X474210Y419338D01*
X464031D01*
Y420531D01*
D02*
G37*
G36*
X852290Y401230D02*
X846270D01*
Y395210D01*
X852290D01*
Y401230D01*
D02*
G37*
G36*
X843730D02*
X837710D01*
Y395210D01*
X843730D01*
Y401230D01*
D02*
G37*
G36*
X616290Y399590D02*
X610770D01*
Y394820D01*
X616290D01*
Y399590D01*
D02*
G37*
G36*
X402821Y399371D02*
X396770D01*
Y392070D01*
X402821D01*
Y399371D01*
D02*
G37*
G36*
X394230D02*
X388179D01*
Y392070D01*
X394230D01*
Y399371D01*
D02*
G37*
G36*
X506000Y405926D02*
X503690Y405622D01*
X501537Y404730D01*
X499688Y403312D01*
X498270Y401463D01*
X497378Y399310D01*
X497074Y397000D01*
X497378Y394690D01*
X498270Y392537D01*
X499688Y390688D01*
X501537Y389269D01*
X503690Y388378D01*
X506000Y388074D01*
X508310Y388378D01*
X510463Y389269D01*
X512312Y390688D01*
X513730Y392537D01*
X514622Y394690D01*
X514926Y397000D01*
X514622Y399310D01*
X513730Y401463D01*
X512312Y403312D01*
X510463Y404730D01*
X508310Y405622D01*
X506000Y405926D01*
D02*
G37*
G36*
X551790Y388730D02*
X547020D01*
Y383210D01*
X551790D01*
Y388730D01*
D02*
G37*
G36*
X544480D02*
X539710D01*
Y383210D01*
X544480D01*
Y388730D01*
D02*
G37*
G36*
X402821Y389530D02*
X396770D01*
Y382229D01*
X402821D01*
Y389530D01*
D02*
G37*
G36*
X394230D02*
X388179D01*
Y382229D01*
X394230D01*
Y389530D01*
D02*
G37*
G36*
X819592Y408545D02*
X808092D01*
Y397045D01*
X811685D01*
Y385663D01*
X811477Y385523D01*
X810703Y384366D01*
X810431Y383000D01*
X810703Y381634D01*
X811477Y380477D01*
X812634Y379703D01*
X814000Y379431D01*
X815366Y379703D01*
X816523Y380477D01*
X817297Y381634D01*
X817569Y383000D01*
X817297Y384366D01*
X816523Y385523D01*
X816314Y385663D01*
Y397045D01*
X819592D01*
Y408545D01*
D02*
G37*
G36*
X961000Y370973D02*
X958781Y370681D01*
X956713Y369825D01*
X954938Y368462D01*
X953575Y366687D01*
X952719Y364619D01*
X952427Y362400D01*
X952719Y360181D01*
X953575Y358113D01*
X954938Y356338D01*
X956713Y354975D01*
X958781Y354119D01*
X961000Y353827D01*
X963219Y354119D01*
X965287Y354975D01*
X967062Y356338D01*
X968425Y358113D01*
X969281Y360181D01*
X969573Y362400D01*
X969281Y364619D01*
X968425Y366687D01*
X967062Y368462D01*
X965287Y369825D01*
X963219Y370681D01*
X961000Y370973D01*
D02*
G37*
G36*
X441050Y357160D02*
X427620D01*
Y334840D01*
X441050D01*
Y341412D01*
X447000D01*
Y337250D01*
X458000D01*
Y354750D01*
X447000D01*
Y350588D01*
X441050D01*
Y357160D01*
D02*
G37*
G36*
X961000Y345573D02*
X958781Y345281D01*
X956713Y344425D01*
X954938Y343062D01*
X953575Y341287D01*
X952719Y339219D01*
X952427Y337000D01*
X952719Y334781D01*
X953575Y332713D01*
X954938Y330938D01*
X956713Y329575D01*
X958781Y328719D01*
X961000Y328427D01*
X963219Y328719D01*
X965287Y329575D01*
X967062Y330938D01*
X968425Y332713D01*
X969281Y334781D01*
X969573Y337000D01*
X969281Y339219D01*
X968425Y341287D01*
X967062Y343062D01*
X965287Y344425D01*
X963219Y345281D01*
X961000Y345573D01*
D02*
G37*
G36*
X656040Y328790D02*
X650270D01*
Y322270D01*
X656040D01*
Y328790D01*
D02*
G37*
G36*
X462970Y385440D02*
X451039D01*
X449455Y385125D01*
X448112Y384227D01*
X447214Y382884D01*
X446899Y381300D01*
X447214Y379716D01*
X448112Y378372D01*
X449455Y377475D01*
X451039Y377160D01*
X454690D01*
Y371245D01*
X454866Y370359D01*
X455368Y369609D01*
X473500Y351477D01*
Y337250D01*
X484500D01*
Y341412D01*
X487500D01*
Y317000D01*
X555500D01*
Y375000D01*
X487500D01*
Y350588D01*
X484500D01*
Y354750D01*
X476773D01*
X459319Y372204D01*
Y377160D01*
X462970D01*
X464555Y377475D01*
X465898Y378372D01*
X466795Y379716D01*
X467110Y381300D01*
X466795Y382884D01*
X465898Y384227D01*
X464555Y385125D01*
X462970Y385440D01*
D02*
G37*
G36*
X656040Y319730D02*
X650270D01*
Y313210D01*
X656040D01*
Y319730D01*
D02*
G37*
G36*
X641000Y329082D02*
X583000D01*
X582235Y328765D01*
X581918Y328000D01*
Y314000D01*
X581917Y314000D01*
X582234Y313235D01*
X582235Y313235D01*
X583235Y312235D01*
X584000Y311917D01*
X641000D01*
X641765Y312235D01*
X642082Y313000D01*
Y313210D01*
X647730D01*
Y321000D01*
Y328790D01*
X641960D01*
X641960Y328790D01*
X641000Y329082D01*
D02*
G37*
G36*
X961000Y320173D02*
X958781Y319881D01*
X956713Y319025D01*
X954938Y317662D01*
X953575Y315887D01*
X952719Y313819D01*
X952427Y311600D01*
X952719Y309381D01*
X953575Y307313D01*
X954938Y305538D01*
X956713Y304175D01*
X958781Y303319D01*
X961000Y303027D01*
X963219Y303319D01*
X965287Y304175D01*
X967062Y305538D01*
X968425Y307313D01*
X969281Y309381D01*
X969573Y311600D01*
X969281Y313819D01*
X968425Y315887D01*
X967062Y317662D01*
X965287Y319025D01*
X963219Y319881D01*
X961000Y320173D01*
D02*
G37*
G36*
X960509Y250658D02*
Y241969D01*
X969198D01*
X969020Y243320D01*
X968009Y245762D01*
X966400Y247860D01*
X964302Y249469D01*
X961860Y250481D01*
X960509Y250658D01*
D02*
G37*
G36*
X957969D02*
X956618Y250481D01*
X954176Y249469D01*
X952078Y247860D01*
X950469Y245762D01*
X949457Y243320D01*
X949280Y241969D01*
X957969D01*
Y250658D01*
D02*
G37*
G36*
X969198Y239429D02*
X960509D01*
Y230740D01*
X961860Y230917D01*
X964302Y231929D01*
X966400Y233538D01*
X968009Y235636D01*
X969020Y238078D01*
X969198Y239429D01*
D02*
G37*
G36*
X957969D02*
X949280D01*
X949457Y238078D01*
X950469Y235636D01*
X952078Y233538D01*
X954176Y231929D01*
X956618Y230917D01*
X957969Y230740D01*
Y239429D01*
D02*
G37*
G36*
X185560Y336312D02*
X150000D01*
X149220Y336157D01*
X148558Y335715D01*
X148487Y335608D01*
X148238Y335442D01*
X147796Y334780D01*
X147641Y334000D01*
Y308600D01*
Y283200D01*
Y257800D01*
Y232400D01*
X147796Y231620D01*
X148238Y230958D01*
X148900Y230516D01*
X149680Y230361D01*
X185240D01*
X186020Y230516D01*
X186682Y230958D01*
X186753Y231064D01*
X187002Y231231D01*
X187444Y231892D01*
X187599Y232673D01*
Y258073D01*
Y283473D01*
Y308873D01*
Y334273D01*
X187444Y335053D01*
X187002Y335715D01*
X186340Y336157D01*
X185560Y336312D01*
D02*
G37*
G36*
X959239Y223872D02*
X957020Y223580D01*
X954952Y222724D01*
X953177Y221361D01*
X951814Y219586D01*
X950958Y217518D01*
X950666Y215299D01*
X950958Y213080D01*
X951814Y211012D01*
X953177Y209237D01*
X954952Y207874D01*
X957020Y207018D01*
X959239Y206726D01*
X961458Y207018D01*
X963526Y207874D01*
X965301Y209237D01*
X966664Y211012D01*
X967520Y213080D01*
X967812Y215299D01*
X967520Y217518D01*
X966664Y219586D01*
X965301Y221361D01*
X963526Y222724D01*
X961458Y223580D01*
X959239Y223872D01*
D02*
G37*
G36*
X605290Y186931D02*
X601520D01*
Y182911D01*
X605290D01*
Y186931D01*
D02*
G37*
G36*
X520533D02*
X516763D01*
Y182911D01*
X520533D01*
Y186931D01*
D02*
G37*
G36*
X435585D02*
X431815D01*
Y182911D01*
X435585D01*
Y186931D01*
D02*
G37*
G36*
X350159D02*
X346389D01*
Y182911D01*
X350159D01*
Y186931D01*
D02*
G37*
G36*
X598980D02*
X595210D01*
Y182911D01*
X598980D01*
Y186931D01*
D02*
G37*
G36*
X514223D02*
X510453D01*
Y182911D01*
X514223D01*
Y186931D01*
D02*
G37*
G36*
X429275D02*
X425505D01*
Y182911D01*
X429275D01*
Y186931D01*
D02*
G37*
G36*
X343848D02*
X340079D01*
Y182911D01*
X343848D01*
Y186931D01*
D02*
G37*
G36*
X959239Y198472D02*
X957020Y198180D01*
X954952Y197324D01*
X953177Y195961D01*
X951814Y194186D01*
X950958Y192118D01*
X950666Y189899D01*
X950958Y187680D01*
X951814Y185612D01*
X953177Y183837D01*
X954952Y182474D01*
X957020Y181618D01*
X959239Y181326D01*
X961458Y181618D01*
X963526Y182474D01*
X965301Y183837D01*
X966664Y185612D01*
X967520Y187680D01*
X967812Y189899D01*
X967520Y192118D01*
X966664Y194186D01*
X965301Y195961D01*
X963526Y197324D01*
X961458Y198180D01*
X959239Y198472D01*
D02*
G37*
G36*
X778728Y162168D02*
X776418Y161864D01*
X774265Y160972D01*
X772416Y159553D01*
X771001Y157709D01*
X725500D01*
Y161500D01*
X708500D01*
Y155556D01*
X685317D01*
Y158491D01*
X676317D01*
Y147991D01*
X685317D01*
Y150927D01*
X708500D01*
Y144500D01*
X725500D01*
Y148532D01*
X771186D01*
X772416Y146929D01*
X774265Y145511D01*
X776418Y144619D01*
X778728Y144315D01*
X781039Y144619D01*
X783192Y145511D01*
X785040Y146929D01*
X786459Y148778D01*
X787350Y150931D01*
X787655Y153241D01*
X787350Y155552D01*
X786459Y157704D01*
X785040Y159553D01*
X783192Y160972D01*
X781039Y161864D01*
X778728Y162168D01*
D02*
G37*
G36*
X967739Y172999D02*
X950739D01*
Y155999D01*
X967739D01*
Y172999D01*
D02*
G37*
G36*
X657561Y158723D02*
X640561D01*
Y147724D01*
X657561D01*
Y150915D01*
X663817D01*
Y147991D01*
X672817D01*
Y158491D01*
X663817D01*
Y155544D01*
X657561D01*
Y158723D01*
D02*
G37*
G36*
X93071Y145061D02*
X81270D01*
Y135776D01*
X93071D01*
Y145061D01*
D02*
G37*
G36*
X78730D02*
X66929D01*
Y135776D01*
X78730D01*
Y145061D01*
D02*
G37*
G36*
X718270Y137559D02*
Y128870D01*
X726959D01*
X726781Y130221D01*
X725770Y132663D01*
X724161Y134761D01*
X722063Y136370D01*
X719621Y137381D01*
X718270Y137559D01*
D02*
G37*
G36*
X715730D02*
X714379Y137381D01*
X711937Y136370D01*
X709839Y134761D01*
X708230Y132663D01*
X707218Y130221D01*
X707040Y128870D01*
X715730D01*
Y137559D01*
D02*
G37*
G36*
X93071Y133236D02*
X81270D01*
Y123951D01*
X93071D01*
Y133236D01*
D02*
G37*
G36*
X78730D02*
X66929D01*
Y123951D01*
X78730D01*
Y133236D01*
D02*
G37*
G36*
X659101Y127263D02*
X650331D01*
Y121494D01*
X659101D01*
Y127263D01*
D02*
G37*
G36*
X647791D02*
X639021D01*
Y121494D01*
X647791D01*
Y127263D01*
D02*
G37*
G36*
X574286D02*
X565516D01*
Y121494D01*
X574286D01*
Y127263D01*
D02*
G37*
G36*
X562976D02*
X554206D01*
Y121494D01*
X562976D01*
Y127263D01*
D02*
G37*
G36*
X489471D02*
X480701D01*
Y121494D01*
X489471D01*
Y127263D01*
D02*
G37*
G36*
X478161D02*
X469391D01*
Y121494D01*
X478161D01*
Y127263D01*
D02*
G37*
G36*
X404656D02*
X395886D01*
Y121494D01*
X404656D01*
Y127263D01*
D02*
G37*
G36*
X393346D02*
X384576D01*
Y121494D01*
X393346D01*
Y127263D01*
D02*
G37*
G36*
X726959Y126330D02*
X718270D01*
Y117640D01*
X719621Y117818D01*
X722063Y118830D01*
X724161Y120439D01*
X725770Y122537D01*
X726781Y124979D01*
X726959Y126330D01*
D02*
G37*
G36*
X715730D02*
X707040D01*
X707218Y124979D01*
X708230Y122537D01*
X709839Y120439D01*
X711937Y118830D01*
X714379Y117818D01*
X715730Y117640D01*
Y126330D01*
D02*
G37*
G36*
X572746Y158723D02*
X555746D01*
Y147724D01*
X569391D01*
X591561Y122530D01*
Y114724D01*
X608561D01*
Y125723D01*
X594917D01*
X572746Y150917D01*
Y158723D01*
D02*
G37*
G36*
X487931D02*
X470931D01*
Y147724D01*
X484576D01*
X506746Y122530D01*
Y114724D01*
X523746D01*
Y125723D01*
X510102D01*
X487931Y150917D01*
Y158723D01*
D02*
G37*
G36*
X403116D02*
X386116D01*
Y147724D01*
X399761D01*
X421931Y122530D01*
Y114724D01*
X438931D01*
Y125723D01*
X425287D01*
X403116Y150917D01*
Y158723D01*
D02*
G37*
G36*
X354116Y125723D02*
X337116D01*
Y114724D01*
X354116D01*
Y125723D01*
D02*
G37*
G36*
X659101Y118954D02*
X650331D01*
Y113183D01*
X659101D01*
Y118954D01*
D02*
G37*
G36*
X647791D02*
X639021D01*
Y113183D01*
X647791D01*
Y118954D01*
D02*
G37*
G36*
X574286D02*
X565516D01*
Y113183D01*
X574286D01*
Y118954D01*
D02*
G37*
G36*
X562976D02*
X554206D01*
Y113183D01*
X562976D01*
Y118954D01*
D02*
G37*
G36*
X489471D02*
X480701D01*
Y113183D01*
X489471D01*
Y118954D01*
D02*
G37*
G36*
X478161D02*
X469391D01*
Y113183D01*
X478161D01*
Y118954D01*
D02*
G37*
G36*
X404656D02*
X395886D01*
Y113183D01*
X404656D01*
Y118954D01*
D02*
G37*
G36*
X393346D02*
X384576D01*
Y113183D01*
X393346D01*
Y118954D01*
D02*
G37*
G36*
X957040Y112540D02*
X951270D01*
Y108770D01*
X957040D01*
Y112540D01*
D02*
G37*
G36*
X948730D02*
X942960D01*
Y108770D01*
X948730D01*
Y112540D01*
D02*
G37*
G36*
X957040Y106230D02*
X951270D01*
Y102460D01*
X957040D01*
Y106230D01*
D02*
G37*
G36*
X948730D02*
X942960D01*
Y102460D01*
X948730D01*
Y106230D01*
D02*
G37*
G36*
X500000Y71102D02*
X497659Y70636D01*
X495674Y69310D01*
X494348Y67325D01*
X493882Y64984D01*
X494348Y62643D01*
X495674Y60658D01*
X497659Y59332D01*
X500000Y58867D01*
X502341Y59332D01*
X504326Y60658D01*
X505652Y62643D01*
X506118Y64984D01*
X505652Y67325D01*
X504326Y69310D01*
X502341Y70636D01*
X500000Y71102D01*
D02*
G37*
G36*
X872049Y63071D02*
X862764D01*
Y51270D01*
X872049D01*
Y63071D01*
D02*
G37*
G36*
X860224D02*
X850939D01*
Y51270D01*
X860224D01*
Y63071D01*
D02*
G37*
G36*
X119540Y57040D02*
X115770D01*
Y51270D01*
X119540D01*
Y57040D01*
D02*
G37*
G36*
X113230D02*
X109460D01*
Y51270D01*
X113230D01*
Y57040D01*
D02*
G37*
G36*
X119540Y48730D02*
X115770D01*
Y42960D01*
X119540D01*
Y48730D01*
D02*
G37*
G36*
X113230D02*
X109460D01*
Y42960D01*
X113230D01*
Y48730D01*
D02*
G37*
G36*
X872049D02*
X862764D01*
Y36929D01*
X872049D01*
Y48730D01*
D02*
G37*
G36*
X860224D02*
X850939D01*
Y36929D01*
X860224D01*
Y48730D01*
D02*
G37*
%LPD*%
G36*
X382686Y570084D02*
X372672D01*
Y563655D01*
X371402Y563128D01*
X367082Y567448D01*
Y589439D01*
X382686D01*
Y570084D01*
D02*
G37*
G36*
X522000Y544000D02*
X423000D01*
Y547000D01*
X418000Y552000D01*
X396583D01*
X395000Y550417D01*
Y541000D01*
X393000Y540982D01*
X393000Y566000D01*
X522000D01*
Y544000D01*
D02*
G37*
G36*
X366000Y567000D02*
X382000Y551000D01*
Y541000D01*
X378000D01*
X338000Y563000D01*
X336000Y564100D01*
Y661000D01*
X366000D01*
X366000Y567000D01*
D02*
G37*
G36*
X435000Y588886D02*
X404023D01*
X390811Y581644D01*
Y574811D01*
Y540000D01*
X388303D01*
Y582535D01*
X393000Y588886D01*
Y701000D01*
X435000D01*
Y588886D01*
D02*
G37*
G36*
X571000Y527000D02*
Y446500D01*
X561219D01*
Y448000D01*
Y531000D01*
X567000D01*
X571000Y527000D01*
D02*
G37*
G36*
X560000Y443000D02*
X569000D01*
Y440000D01*
X525000D01*
X524000Y441000D01*
Y461000D01*
X542000D01*
X560000Y443000D01*
D02*
G37*
G36*
X569000Y430000D02*
X562000D01*
X551000Y419000D01*
X526000D01*
Y428750D01*
X557531D01*
X561781Y433000D01*
X569000D01*
Y430000D01*
D02*
G37*
G36*
X668000Y434000D02*
Y416000D01*
X634000D01*
Y434000D01*
X635000Y435000D01*
X667000D01*
X668000Y434000D01*
D02*
G37*
G36*
X669750Y339791D02*
X579250Y339791D01*
X579250Y386735D01*
X669750Y386865D01*
Y339791D01*
D02*
G37*
G36*
X395000Y475000D02*
Y459000D01*
X284000D01*
Y480000D01*
X390000D01*
X395000Y475000D01*
D02*
G37*
G36*
X641000Y313000D02*
X584000D01*
X583000Y314000D01*
Y328000D01*
X641000D01*
Y313000D01*
D02*
G37*
G36*
X183201Y310912D02*
X152039D01*
Y331961D01*
X183201D01*
Y310912D01*
D02*
G37*
G36*
Y285512D02*
X152039D01*
Y306561D01*
X183201D01*
Y285512D01*
D02*
G37*
G36*
Y260112D02*
X152039D01*
Y281161D01*
X183201D01*
Y260112D01*
D02*
G37*
G36*
Y234712D02*
X152039D01*
Y255761D01*
X183201D01*
Y234712D01*
D02*
G37*
%LPC*%
G36*
X170642Y327549D02*
X163920D01*
Y312680D01*
X170642D01*
Y327549D01*
D02*
G37*
%LPD*%
G36*
X169642Y313680D02*
X168068D01*
Y323698D01*
X168049Y323679D01*
X167957Y323605D01*
X167846Y323494D01*
X167660Y323364D01*
X167457Y323198D01*
X167197Y323012D01*
X166901Y322809D01*
X166568Y322605D01*
X166549D01*
X166531Y322587D01*
X166420Y322512D01*
X166235Y322420D01*
X166012Y322309D01*
X165753Y322179D01*
X165476Y322049D01*
X165198Y321920D01*
X164920Y321809D01*
Y323327D01*
X164939D01*
X164975Y323364D01*
X165050Y323383D01*
X165142Y323438D01*
X165253Y323494D01*
X165383Y323568D01*
X165698Y323753D01*
X166068Y323957D01*
X166438Y324216D01*
X166827Y324512D01*
X167216Y324827D01*
X167234Y324846D01*
X167253Y324864D01*
X167309Y324920D01*
X167383Y324975D01*
X167549Y325160D01*
X167771Y325382D01*
X167994Y325642D01*
X168234Y325938D01*
X168438Y326234D01*
X168623Y326549D01*
X169642D01*
Y313680D01*
D02*
G37*
D13*
X547098Y413050D02*
X554050D01*
X562500Y421500D01*
X544947Y410899D02*
X547098Y413050D01*
X544000Y410899D02*
X544947D01*
X530812Y416734D02*
X552709D01*
X527079Y413000D02*
X530812Y416734D01*
X552709D02*
X555005Y419030D01*
X527000Y413000D02*
X527079D01*
X563121Y421500D02*
X567000D01*
X562500Y421500D02*
X563121Y421500D01*
X555005Y420530D02*
X560975Y426500D01*
X555005Y419030D02*
Y420530D01*
X560975Y426500D02*
X567000D01*
X398500Y544000D02*
X399000Y544500D01*
Y549000D01*
X400000Y550000D01*
X411330Y548670D02*
X412000Y548000D01*
X407357Y548670D02*
X411330D01*
X406026Y550000D02*
X407357Y548670D01*
X400000Y550000D02*
X406026D01*
D14*
X185240Y232400D02*
Y257800D01*
X149680Y232400D02*
X185240D01*
X149680D02*
Y257800D01*
X185240D01*
X149680Y283200D02*
Y308600D01*
X185240D02*
Y334000D01*
X149680Y257800D02*
Y283200D01*
X185240D02*
Y308600D01*
X149680D02*
Y334000D01*
X185240Y257800D02*
Y283200D01*
X149680D02*
X185240D01*
X149680Y308600D02*
X185240D01*
X149680Y334000D02*
X185240D01*
X149680Y308600D02*
Y334000D01*
Y283200D02*
Y308600D01*
Y334000D01*
Y283200D02*
Y308600D01*
Y334000D02*
X185240D01*
X149680Y308600D02*
X185240D01*
X149680Y283200D02*
X185240D01*
Y308600D01*
Y334000D01*
X149680D02*
X185240D01*
X149680Y308600D02*
X185240D01*
X149680Y283200D02*
X185240D01*
Y308600D01*
Y334000D01*
Y257800D02*
Y283200D01*
X149680Y257800D02*
Y283200D01*
Y257800D02*
X185240D01*
X149680Y232400D02*
Y257800D01*
Y232400D02*
X185240D01*
Y257800D01*
Y283200D01*
X149680Y257800D02*
Y283200D01*
Y257800D02*
X185240D01*
X149680Y232400D02*
Y257800D01*
Y232400D02*
X185240D01*
Y257800D01*
X185560Y232673D02*
Y258073D01*
X150000Y232673D02*
X185560D01*
X150000D02*
Y258073D01*
X185560D01*
X150000Y283473D02*
Y308873D01*
X185560D02*
Y334273D01*
X150000Y258073D02*
Y283473D01*
X185560D02*
Y308873D01*
X150000D02*
Y334273D01*
X185560Y258073D02*
Y283473D01*
X150000D02*
X185560D01*
X150000Y308873D02*
X185560D01*
X150000Y334273D02*
X185560D01*
D16*
X279250Y601000D02*
D03*
X258750D02*
D03*
X222942Y568004D02*
D03*
X202442D02*
D03*
X577750Y584000D02*
D03*
X598250D02*
D03*
X416000Y390800D02*
D03*
X395500D02*
D03*
X577750Y598000D02*
D03*
X598250D02*
D03*
X735000Y811000D02*
D03*
X714500D02*
D03*
D17*
X545750Y390000D02*
D03*
X558250D02*
D03*
X680817Y153241D02*
D03*
X668317D02*
D03*
D18*
X550810Y408492D02*
D03*
X560310D02*
D03*
D19*
X433995Y400300D02*
D03*
X538495Y597500D02*
D03*
X256219Y577230D02*
D03*
D20*
X433995Y390800D02*
D03*
Y381300D02*
D03*
X457005D02*
D03*
Y400300D02*
D03*
X538495Y588000D02*
D03*
Y578500D02*
D03*
X561505D02*
D03*
Y597500D02*
D03*
X256219Y567730D02*
D03*
Y558230D02*
D03*
X279228D02*
D03*
Y577230D02*
D03*
D21*
X597000Y421500D02*
D03*
Y426500D02*
D03*
Y431500D02*
D03*
Y436500D02*
D03*
Y441500D02*
D03*
Y446500D02*
D03*
X567000D02*
D03*
Y441500D02*
D03*
Y436500D02*
D03*
Y431500D02*
D03*
Y426500D02*
D03*
Y421500D02*
D03*
D22*
X589500Y454000D02*
D03*
X584500D02*
D03*
X579500D02*
D03*
X574500D02*
D03*
Y414000D02*
D03*
X579500D02*
D03*
X584500D02*
D03*
X589500D02*
D03*
D23*
X582000Y434000D02*
D03*
D24*
X380500Y516000D02*
D03*
X385000D02*
D03*
X389500D02*
D03*
X394000D02*
D03*
X398500D02*
D03*
X403000D02*
D03*
X380500Y544000D02*
D03*
X385000D02*
D03*
X389500D02*
D03*
X394000D02*
D03*
X398500D02*
D03*
X403000D02*
D03*
D25*
X391750Y530000D02*
D03*
D26*
X591250Y474750D02*
D03*
Y487250D02*
D03*
X609500Y406050D02*
D03*
Y393550D02*
D03*
D27*
X585750Y393800D02*
D03*
X571250D02*
D03*
X635500Y321000D02*
D03*
X649000D02*
D03*
D28*
X597000Y388000D02*
D03*
Y401500D02*
D03*
D29*
X578250Y487500D02*
D03*
Y474500D02*
D03*
D30*
X636500Y456000D02*
D03*
X623500D02*
D03*
X636500Y443000D02*
D03*
X623500D02*
D03*
X398500Y417000D02*
D03*
X385500D02*
D03*
X398354Y430431D02*
D03*
X385354D02*
D03*
D31*
X479000Y346000D02*
D03*
X452500D02*
D03*
X562250Y554000D02*
D03*
X535750D02*
D03*
D32*
X432000Y508000D02*
D03*
Y523000D02*
D03*
X414000Y524500D02*
D03*
Y539500D02*
D03*
D33*
X281000Y509000D02*
D03*
D34*
X292500Y469000D02*
D03*
X269500D02*
D03*
D35*
X432000Y532500D02*
D03*
Y547500D02*
D03*
X788000Y531500D02*
D03*
Y516500D02*
D03*
Y406000D02*
D03*
Y421000D02*
D03*
X813842Y402795D02*
D03*
Y417795D02*
D03*
X856000Y475000D02*
D03*
Y460000D02*
D03*
D36*
X422000Y565750D02*
D03*
Y592250D02*
D03*
X385000Y495250D02*
D03*
Y468750D02*
D03*
D37*
X663700Y426000D02*
D03*
X651000D02*
D03*
X638300D02*
D03*
X625600D02*
D03*
X663700Y370000D02*
D03*
X651000D02*
D03*
X638300D02*
D03*
X625600D02*
D03*
D38*
X592500Y323200D02*
D03*
Y368800D02*
D03*
D39*
X521500Y346000D02*
D03*
D40*
X539000Y424000D02*
D03*
Y446000D02*
D03*
D41*
X417250Y654000D02*
D03*
X354750D02*
D03*
D42*
X407665Y346000D02*
D03*
X434335D02*
D03*
D43*
X616000Y351700D02*
D03*
Y319000D02*
D03*
D44*
X399000Y557000D02*
D03*
Y575300D02*
D03*
X325000Y577000D02*
D03*
Y558700D02*
D03*
D45*
X380466Y566150D02*
D03*
X343534Y567850D02*
D03*
D46*
X457000Y414750D02*
D03*
Y435250D02*
D03*
D47*
X534000Y460359D02*
D03*
Y473641D02*
D03*
D48*
X412000Y491595D02*
D03*
Y504405D02*
D03*
D49*
X333000Y530100D02*
D03*
Y469900D02*
D03*
D50*
X509000Y505400D02*
D03*
Y552600D02*
D03*
D51*
X464000Y633500D02*
D03*
Y575000D02*
D03*
Y477500D02*
D03*
Y536000D02*
D03*
D52*
X367595Y595000D02*
D03*
X380405D02*
D03*
D53*
X708550Y648950D02*
D03*
X733950D02*
D03*
X632350D02*
D03*
X606950D02*
D03*
Y753050D02*
D03*
X632350D02*
D03*
X708550D02*
D03*
X733950D02*
D03*
D54*
X394616Y153223D02*
D03*
Y120224D02*
D03*
X345616D02*
D03*
Y153223D02*
D03*
X479431D02*
D03*
Y120224D02*
D03*
X430431D02*
D03*
Y153223D02*
D03*
X564246D02*
D03*
Y120224D02*
D03*
X515246D02*
D03*
Y153223D02*
D03*
X649061D02*
D03*
Y120224D02*
D03*
X600061D02*
D03*
Y153223D02*
D03*
D55*
X839100Y495000D02*
D03*
X826400D02*
D03*
X813700D02*
D03*
X801000D02*
D03*
X788300D02*
D03*
X775600D02*
D03*
X762900D02*
D03*
X839100Y440500D02*
D03*
X826400D02*
D03*
X813700D02*
D03*
X801000D02*
D03*
X788300D02*
D03*
X775600D02*
D03*
X762900D02*
D03*
D56*
X861494Y50000D02*
D03*
X896506D02*
D03*
X135506Y950000D02*
D03*
X100494D02*
D03*
D57*
X950000Y92500D02*
D03*
Y107500D02*
D03*
X72000Y915500D02*
D03*
Y900500D02*
D03*
D58*
X893500Y950000D02*
D03*
X878500D02*
D03*
X99500Y50000D02*
D03*
X114500D02*
D03*
D59*
X950000Y863494D02*
D03*
X950000Y898506D02*
D03*
X80000Y134506D02*
D03*
Y99494D02*
D03*
D60*
X815000Y592500D02*
D03*
D61*
X775000Y581000D02*
D03*
Y604000D02*
D03*
D62*
X651740Y786984D02*
D03*
X604540D02*
D03*
X698400Y784000D02*
D03*
X745600D02*
D03*
D63*
X819500Y514500D02*
D03*
X804500D02*
D03*
X819500Y530500D02*
D03*
X804500D02*
D03*
X756256Y532808D02*
D03*
X771256D02*
D03*
X771000Y515500D02*
D03*
X756000D02*
D03*
X758000Y404500D02*
D03*
X773000D02*
D03*
Y421500D02*
D03*
X758000D02*
D03*
X845000Y402500D02*
D03*
X830000D02*
D03*
Y418500D02*
D03*
X845000D02*
D03*
D64*
X345118Y181641D02*
D03*
Y172141D02*
D03*
X430545Y181641D02*
D03*
Y172141D02*
D03*
X515493Y181641D02*
D03*
Y172141D02*
D03*
X600250Y181641D02*
D03*
Y172141D02*
D03*
D92*
X631000Y477000D02*
D03*
X506000Y397000D02*
D03*
X407111Y285356D02*
D03*
X501000Y447000D02*
D03*
X701000Y370000D02*
D03*
X333000Y430000D02*
D03*
X562000Y525000D02*
D03*
X778728Y153241D02*
D03*
X730000Y495000D02*
D03*
Y460229D02*
D03*
X727000Y581000D02*
D03*
X856000Y552800D02*
D03*
X866000Y440000D02*
D03*
D98*
X500000Y64984D02*
D03*
Y938000D02*
D03*
X85000Y500000D02*
D03*
D99*
X610882Y442888D02*
X612529Y444536D01*
X610882Y442882D02*
Y442888D01*
X612529Y444536D02*
Y448529D01*
X614000Y438000D02*
X614422Y438422D01*
X616000Y443000D02*
X623480D01*
X614422Y438422D02*
Y441422D01*
X616000Y443000D01*
X604500Y436500D02*
X610882Y442882D01*
X671000Y424840D02*
Y455000D01*
X661000Y465000D02*
X671000Y455000D01*
X649000Y465000D02*
X661000D01*
X636500Y456000D02*
X644000D01*
X649000Y461000D02*
Y465000D01*
X644000Y456000D02*
X649000Y461000D01*
X636500Y443000D02*
Y456500D01*
X597000Y431500D02*
X607515D01*
X614000Y437985D01*
X613116Y449116D02*
X617116D01*
X623500Y455500D01*
X612529Y448529D02*
X613116Y449116D01*
X623482Y474482D02*
X628482D01*
X607000Y458000D02*
X623482Y474482D01*
X628482D02*
X631000Y477000D01*
X607000Y446000D02*
Y458000D01*
X602500Y441500D02*
X607000Y446000D01*
X597000Y441500D02*
X602500D01*
X597000Y446500D02*
Y457312D01*
X631000Y491312D01*
X222942Y568004D02*
X223216Y567730D01*
X579500Y454000D02*
Y466628D01*
Y466795D02*
Y473250D01*
X558250Y396929D02*
X560310Y398989D01*
Y408492D01*
X558250Y390000D02*
Y396929D01*
X546010Y390260D02*
Y396572D01*
X550900Y401462D01*
Y408492D01*
X545750Y390000D02*
X546010Y390260D01*
X550576Y408492D02*
X550576Y408492D01*
X408709Y508791D02*
X412000Y505500D01*
X403020Y513770D02*
X407999Y508791D01*
X412000Y504405D02*
Y505500D01*
X407999Y508791D02*
X408709D01*
X403020Y513770D02*
Y513770D01*
X561500Y408214D02*
X561790Y408504D01*
X571380D02*
X574500Y411624D01*
X561790Y408504D02*
X571380D01*
X407500Y544000D02*
X408988Y542512D01*
X403000Y544000D02*
X407500D01*
X651000Y370000D02*
X701000D01*
X651000Y370000D02*
X651000Y370000D01*
X379204Y492020D02*
X382434Y495250D01*
X377716Y487000D02*
X379204Y488488D01*
X340006Y487000D02*
X377716D01*
X382434Y495250D02*
X385000D01*
X379204Y488488D02*
Y492020D01*
X385000Y495000D02*
X388012D01*
X309006Y518000D02*
X340006Y487000D01*
X380500Y496500D02*
X382000Y495000D01*
X309347Y512653D02*
X339000Y483000D01*
X380000D01*
X385000Y478000D01*
X398500Y417000D02*
Y417500D01*
X405000Y424000D01*
X411177Y349512D02*
Y358482D01*
X457005Y371245D02*
X479000Y349250D01*
X411177Y358482D02*
X428694Y375999D01*
Y379646D01*
X631000Y491312D02*
Y502000D01*
X591250Y468250D02*
Y474750D01*
X578250Y474500D02*
X579500Y473250D01*
X584588Y461588D02*
X591250Y468250D01*
X584588Y454088D02*
Y461588D01*
X584500Y454000D02*
X584588Y454088D01*
X416000Y390800D02*
X433995D01*
X457005Y371245D02*
Y381300D01*
X428694Y379646D02*
X430348Y381300D01*
X433995D01*
X589500Y414000D02*
X600800D01*
X588730Y404030D02*
Y409344D01*
X589412Y410026D01*
X600800Y414000D02*
X608750Y406050D01*
X574500Y411624D02*
Y414000D01*
X584500Y403800D02*
Y414000D01*
X579500Y406800D02*
Y414000D01*
X575687Y402987D02*
X579500Y406800D01*
X578980Y399990D02*
X580310Y401320D01*
X578980Y399104D02*
Y399990D01*
X580310Y401320D02*
X582020D01*
X625600Y423480D02*
Y426000D01*
X611584Y426500D02*
X613334Y428250D01*
X614000D01*
X623620Y421500D02*
X625600Y423480D01*
X608750Y406050D02*
X609500D01*
X571250Y393800D02*
Y394386D01*
X575269Y402987D02*
X575687D01*
X574480Y397616D02*
X577492D01*
X582020Y401320D02*
X584500Y403800D01*
X577492Y397616D02*
X578980Y399104D01*
X571250Y394386D02*
X574480Y397616D01*
X588500Y390800D02*
Y403800D01*
X588730Y404030D01*
X559000Y436500D02*
X567000D01*
X589412Y413912D02*
X589500Y414000D01*
X589412Y410026D02*
Y413912D01*
X623500Y455500D02*
Y456000D01*
X597000Y421500D02*
X623620D01*
X597000Y426500D02*
X611584D01*
X597000Y436500D02*
X604500D01*
X479000Y346000D02*
Y349250D01*
X407665Y346000D02*
X411177Y349512D01*
X223216Y567730D02*
X256219D01*
X385000Y478000D02*
X386000D01*
X306000Y518000D02*
X309006D01*
X275688Y543305D02*
X306341Y512653D01*
X309347D01*
X275688Y543305D02*
Y544725D01*
X262184Y558230D02*
X275688Y544725D01*
X279228Y544772D02*
Y558230D01*
Y544772D02*
X306000Y518000D01*
X394000Y503000D02*
X398354Y498646D01*
Y430431D02*
Y498646D01*
X256219Y558230D02*
X262184D01*
X281000Y509000D02*
X297000D01*
X561505Y554745D02*
X562250Y554000D01*
X561505Y554745D02*
Y578500D01*
X535750Y576846D02*
X537404Y578500D01*
X538495D01*
X535750Y554000D02*
Y576846D01*
X432000Y523000D02*
Y532500D01*
X414000Y524500D02*
X415000D01*
X423000Y532500D01*
X432000D01*
X408988Y541512D02*
X413000Y537500D01*
X408988Y541512D02*
Y542512D01*
X413000Y537500D02*
X414000D01*
X385000Y508000D02*
Y516000D01*
Y508000D02*
X385000Y508000D01*
X389770Y506024D02*
Y509976D01*
X389500Y510246D02*
X389770Y509976D01*
X389500Y510246D02*
Y516000D01*
X380500Y496500D02*
Y505754D01*
X389500Y496488D02*
Y505754D01*
X380500Y510246D02*
Y516000D01*
X389500Y505754D02*
X389770Y506024D01*
X380230D02*
X380500Y505754D01*
X380230Y506024D02*
Y509976D01*
X380500Y510246D01*
X403000Y513790D02*
X403020Y513770D01*
X403000Y513790D02*
Y516000D01*
X398494Y505505D02*
X405000Y499000D01*
X398494Y505505D02*
Y513770D01*
X394000Y503000D02*
Y516000D01*
X405000Y424000D02*
Y499000D01*
X388012Y495000D02*
X389500Y496488D01*
X394000Y544000D02*
Y554959D01*
X396041Y557000D01*
X399000D01*
X380405Y595000D02*
X381500D01*
X384791Y590431D02*
Y591709D01*
X385000Y566150D02*
Y590221D01*
Y544000D02*
Y566150D01*
X381500Y595000D02*
X384791Y591709D01*
Y590431D02*
X385000Y590221D01*
X809640Y286200D02*
X961000D01*
X671000Y424840D02*
X809640Y286200D01*
X416000Y432000D02*
X428000Y444000D01*
X519000Y590334D02*
Y591000D01*
Y590334D02*
X520666Y588669D01*
Y588000D02*
Y588669D01*
X839600Y441000D02*
X869000D01*
X385000Y439000D02*
X385177Y438823D01*
Y430608D02*
Y438823D01*
X680817Y153241D02*
X719368D01*
X633000Y738000D02*
Y752400D01*
X621000Y726000D02*
X633000Y738000D01*
X632350Y753050D02*
X633000Y752400D01*
X579000Y726000D02*
X621000D01*
X553000Y457000D02*
X553471Y456529D01*
Y451038D02*
Y456529D01*
Y451038D02*
X561779Y442730D01*
X563145D01*
X564375Y441500D01*
X567000D01*
X416000Y390800D02*
Y432000D01*
X578469Y487719D02*
Y499326D01*
X520666Y588000D02*
X538495D01*
X578250Y487500D02*
X578469Y487719D01*
X385177Y430608D02*
X385354Y430431D01*
X385427Y430358D01*
Y417073D02*
X385500Y417000D01*
X385427Y417073D02*
Y430358D01*
X314000Y587000D02*
Y591000D01*
X294865Y567865D02*
X314000Y587000D01*
X256354Y567865D02*
X294865D01*
X813842Y402795D02*
X814000Y402638D01*
Y383000D02*
Y402638D01*
X287460Y571460D02*
X299000Y583000D01*
X267954Y571460D02*
X287460D01*
X262184Y577230D02*
X267954Y571460D01*
X256219Y577230D02*
X262184D01*
X256219Y567730D02*
X256354Y567865D01*
X727000Y581000D02*
X775000D01*
X744259Y445970D02*
X761170D01*
X730000Y460229D02*
X744259Y445970D01*
X762900Y440500D02*
Y444240D01*
X761170Y445970D02*
X762900Y444240D01*
X730000Y495000D02*
X762900D01*
X833700Y530500D02*
X856000Y552800D01*
X819500Y530500D02*
X833700D01*
X839100Y440500D02*
X839600Y441000D01*
X812000Y496700D02*
X813700Y495000D01*
X812000Y496700D02*
Y544550D01*
X815000Y547550D01*
Y592500D01*
X826000Y494600D02*
X826400Y495000D01*
X826000Y482500D02*
Y494600D01*
Y482500D02*
X833500Y475000D01*
X856000D01*
X818500Y460000D02*
X856000D01*
X813700Y440500D02*
Y455200D01*
X818500Y460000D01*
X788300Y456800D02*
X807000Y475500D01*
X788300Y440500D02*
Y456800D01*
X807000Y475500D02*
Y502161D01*
X804500Y504661D02*
Y514500D01*
Y504661D02*
X807000Y502161D01*
X819500Y514500D02*
Y530500D01*
Y506150D02*
Y514500D01*
X826400Y495000D02*
Y499250D01*
X819500Y506150D02*
X826400Y499250D01*
X789250Y516500D02*
X803250Y530500D01*
X788000Y516500D02*
X789250D01*
X788300Y495000D02*
Y516200D01*
X788000Y516500D02*
X788300Y516200D01*
X771000Y532552D02*
X771256Y532808D01*
X771000Y515500D02*
Y532552D01*
X775600Y495000D02*
Y510900D01*
X771000Y515500D02*
X775600Y510900D01*
X762900Y495000D02*
Y508600D01*
X756000Y515500D02*
X762900Y508600D01*
X788000Y421000D02*
X788300Y421300D01*
Y440500D01*
X762900Y424400D02*
Y440500D01*
X758000Y421500D02*
X759900Y423400D01*
X775600Y405900D02*
Y440500D01*
X772600Y404900D02*
X773000Y404500D01*
X826400Y436250D02*
X830000Y432650D01*
X826400Y436250D02*
Y440500D01*
X830000Y418500D02*
Y432650D01*
Y402500D02*
Y418500D01*
X839100Y424400D02*
Y440500D01*
Y424400D02*
X845000Y418500D01*
X813700Y440500D02*
X813737Y434520D01*
Y421275D02*
X813842Y417795D01*
X813737Y421275D02*
Y434520D01*
X826400Y495000D02*
X839100D01*
X655291Y153229D02*
X666087D01*
X649061Y153223D02*
X655291Y153229D01*
X666087D02*
X668317Y153241D01*
X564246Y153223D02*
X570476Y149993D01*
X593831Y123454D02*
X600061Y120224D01*
X570476Y149993D02*
X593831Y123454D01*
X479431Y153223D02*
X485661Y149993D01*
X509016Y123454D02*
X515246Y120224D01*
X485661Y149993D02*
X509016Y123454D01*
X394616Y153223D02*
X400846Y149993D01*
X424201Y123454D02*
X430431Y120224D01*
X400846Y149993D02*
X424201Y123454D01*
X345118Y153721D02*
X345616Y153223D01*
X345118Y153721D02*
Y172141D01*
X430431Y153223D02*
X430545Y153337D01*
Y172141D01*
X515493Y153470D02*
Y172141D01*
X515246Y153223D02*
X515493Y153470D01*
X600061Y153223D02*
X600250Y153412D01*
Y172141D01*
D100*
X73000Y26000D02*
X926000D01*
X49000Y50000D02*
X73000Y26000D01*
X49000Y50000D02*
X99500D01*
X80000Y81000D02*
Y99494D01*
X49000Y50000D02*
X80000Y81000D01*
X49000Y50000D02*
Y950000D01*
X51203Y947797D02*
X72000Y927000D01*
X53406Y950000D02*
X100494D01*
X49000D02*
X53406D01*
X72000Y915500D02*
Y927000D01*
X53406Y950000D02*
X73405Y970000D01*
X925594D01*
X279250Y577669D02*
Y601000D01*
X278852Y600373D02*
X295170D01*
X708550Y753050D02*
Y803800D01*
X457002Y400302D02*
Y414748D01*
X457000Y414750D02*
X457002Y414748D01*
Y400302D02*
X457005Y400300D01*
X479000Y346000D02*
X521500D01*
X521500Y346000D01*
X434335Y346000D02*
X452500D01*
X562000Y525000D02*
Y553750D01*
X509000Y552600D02*
X534750D01*
X333000Y430000D02*
Y469900D01*
X950000Y950000D02*
X950000Y950000D01*
X893500Y950000D02*
X950000D01*
X950000Y898506D02*
Y950000D01*
Y50000D02*
Y92500D01*
X896506Y50000D02*
X950000D01*
X926000Y26000D02*
X950000Y50000D01*
X925594Y970000D02*
X945594Y950000D01*
X950000D01*
X561000Y618000D02*
X561505Y617495D01*
Y597500D02*
Y617495D01*
X788000Y531500D02*
Y549000D01*
Y531500D02*
X788000Y531500D01*
X683500Y420500D02*
X715000Y389000D01*
X683500Y420500D02*
Y566500D01*
X715000Y389000D02*
X783000D01*
X475631Y414750D02*
X476010Y415129D01*
X457000Y414750D02*
X475631D01*
X783000Y389000D02*
X788000Y394000D01*
X292500Y469000D02*
X292900Y468600D01*
Y423381D02*
Y468600D01*
Y423381D02*
X293300Y422981D01*
X484000Y594250D02*
Y664000D01*
X464750Y575000D02*
X484000Y594250D01*
X464000Y575000D02*
X464750D01*
X417250Y654000D02*
X427250Y664000D01*
X458600D01*
X562250Y554000D02*
X582600D01*
X601600Y535000D01*
X717000Y153000D02*
X717121Y153121D01*
X778608D01*
X778728Y153241D01*
X388024Y174773D02*
X405882D01*
X370165D02*
X388024D01*
X388000Y174797D02*
Y216000D01*
Y174797D02*
X388024Y174773D01*
X407111Y235111D02*
Y285356D01*
X388000Y216000D02*
X407111Y235111D01*
X651000Y618000D02*
X740000D01*
X762000Y640000D01*
X733950Y746550D02*
Y753050D01*
Y746550D02*
X762000Y718500D01*
Y640000D02*
Y718500D01*
X600505Y632495D02*
X643000Y590000D01*
X660000D01*
X542596Y632495D02*
X600505D01*
X538495Y597500D02*
Y628395D01*
X542596Y632495D01*
X660000Y590000D02*
X683500Y566500D01*
X788000Y394000D02*
Y406000D01*
X407111Y285356D02*
X407388Y285633D01*
Y345723D01*
X407665Y346000D01*
X348616Y153223D02*
X370165Y174773D01*
X405882D02*
X427431Y153223D01*
X430431D01*
X433431D01*
X735000Y809750D02*
Y811000D01*
X708550Y803800D02*
X714500Y809750D01*
Y811000D01*
X735000Y809750D02*
X739600Y805150D01*
Y790000D02*
Y805150D01*
X632850Y767393D02*
X651740Y786284D01*
X708050Y753550D02*
X708550Y753050D01*
X739600Y790000D02*
X745600Y784000D01*
X651740Y786284D02*
Y786984D01*
X605745Y754255D02*
Y785779D01*
X604540Y786984D02*
X605745Y785779D01*
Y754255D02*
X606950Y753050D01*
X632850Y753550D02*
Y767393D01*
X745600Y783300D02*
Y784000D01*
X739150Y776850D02*
X745600Y783300D01*
X738450Y776850D02*
X739150D01*
X733950Y772350D02*
X738450Y776850D01*
X698400Y784000D02*
X704850Y777550D01*
Y769614D02*
Y777550D01*
Y769614D02*
X708050Y766414D01*
X733950Y753050D02*
Y772350D01*
X708050Y753550D02*
Y766414D01*
X433995Y400300D02*
Y419005D01*
X561755Y597750D02*
X577500D01*
X577750Y598000D01*
X561505Y597500D02*
X561755Y597750D01*
X801000Y423000D02*
X801000Y423000D01*
Y440500D01*
X571105Y587469D02*
X572369D01*
X573307Y586531D02*
X576469D01*
X538495Y588000D02*
X570574D01*
X577750Y584000D02*
Y585250D01*
X570574Y588000D02*
X571105Y587469D01*
X572369D02*
X573307Y586531D01*
X576469D02*
X577750Y585250D01*
X578394Y171891D02*
X597061Y153223D01*
X600061D01*
X551914Y171891D02*
X578394D01*
X515246Y153223D02*
X533246D01*
X551914Y171891D01*
X453099Y172891D02*
X492579D01*
X512246Y153223D02*
X515246D01*
X492579Y172891D02*
X512246Y153223D01*
X433431D02*
X453099Y172891D01*
X345616Y153223D02*
X348616D01*
D101*
X631000Y502000D02*
D03*
D102*
X717000Y127600D02*
D03*
X959239Y189899D02*
D03*
Y215299D02*
D03*
Y240699D02*
D03*
X961000Y311600D02*
D03*
Y337000D02*
D03*
Y362400D02*
D03*
X959239Y429900D02*
D03*
Y455300D02*
D03*
Y480700D02*
D03*
X959239Y546850D02*
D03*
Y572250D02*
D03*
Y597650D02*
D03*
X652400Y535000D02*
D03*
X627000D02*
D03*
X267900Y422981D02*
D03*
X458600Y664000D02*
D03*
D103*
X717000Y153000D02*
D03*
X959239Y164499D02*
D03*
X961000Y286200D02*
D03*
X959239Y404500D02*
D03*
X959239Y521450D02*
D03*
D104*
X601600Y535000D02*
D03*
X293300Y422981D02*
D03*
X484000Y664000D02*
D03*
D105*
X950000Y50000D02*
D03*
Y950000D02*
D03*
X49000Y50000D02*
D03*
X49000Y950000D02*
D03*
D106*
X649000Y465000D02*
D03*
X614000Y438000D02*
D03*
X613000Y448646D02*
D03*
X295170Y600373D02*
D03*
X544000Y410899D02*
D03*
X527000Y413000D02*
D03*
X657000Y419000D02*
D03*
X656000Y430000D02*
D03*
X643000Y429500D02*
D03*
Y418500D02*
D03*
X559000Y436500D02*
D03*
X575010Y402987D02*
D03*
X614000Y428250D02*
D03*
X597000Y401500D02*
D03*
X297000Y509000D02*
D03*
X385000Y508000D02*
D03*
X582000Y428500D02*
D03*
Y439500D02*
D03*
X386750Y525000D02*
D03*
Y535000D02*
D03*
X396750Y525000D02*
D03*
Y535000D02*
D03*
X561000Y618000D02*
D03*
X428000Y444000D02*
D03*
X519000Y591000D02*
D03*
X788000Y549000D02*
D03*
X579667Y466795D02*
D03*
X476010Y415129D02*
D03*
X398354Y430431D02*
D03*
X405000Y424000D02*
D03*
X385000Y439000D02*
D03*
X412000Y548000D02*
D03*
X579000Y726000D02*
D03*
X651000Y618000D02*
D03*
X553000Y457000D02*
D03*
X433995Y419005D02*
D03*
X578469Y499326D02*
D03*
X801000Y423000D02*
D03*
X814000Y383000D02*
D03*
X299000Y583000D02*
D03*
X314000Y591000D02*
D03*
M02*
