G04*
G04 #@! TF.GenerationSoftware,Altium Limited,Altium Designer,22.2.1 (43)*
G04*
G04 Layer_Color=8388736*
%FSLAX44Y44*%
%MOMM*%
G71*
G04*
G04 #@! TF.SameCoordinates,A9A70369-3CB5-4260-8086-E324CD68B5AB*
G04*
G04*
G04 #@! TF.FilePolarity,Negative*
G04*
G01*
G75*
%ADD16R,0.9562X1.2062*%
%ADD18R,0.5500X0.5000*%
%ADD19R,1.8052X0.6121*%
G04:AMPARAMS|DCode=20|XSize=1.8052mm|YSize=0.6121mm|CornerRadius=0.3061mm|HoleSize=0mm|Usage=FLASHONLY|Rotation=0.000|XOffset=0mm|YOffset=0mm|HoleType=Round|Shape=RoundedRectangle|*
%AMROUNDEDRECTD20*
21,1,1.8052,0.0000,0,0,0.0*
21,1,1.1931,0.6121,0,0,0.0*
1,1,0.6121,0.5966,0.0000*
1,1,0.6121,-0.5966,0.0000*
1,1,0.6121,-0.5966,0.0000*
1,1,0.6121,0.5966,0.0000*
%
%ADD20ROUNDEDRECTD20*%
%ADD33R,2.0000X2.0000*%
%ADD34R,1.3000X2.0000*%
%ADD42R,1.1430X2.0320*%
G04:AMPARAMS|DCode=44|XSize=1.3587mm|YSize=0.5868mm|CornerRadius=0.2934mm|HoleSize=0mm|Usage=FLASHONLY|Rotation=180.000|XOffset=0mm|YOffset=0mm|HoleType=Round|Shape=RoundedRectangle|*
%AMROUNDEDRECTD44*
21,1,1.3587,0.0000,0,0,180.0*
21,1,0.7719,0.5868,0,0,180.0*
1,1,0.5868,-0.3859,0.0000*
1,1,0.5868,0.3859,0.0000*
1,1,0.5868,0.3859,0.0000*
1,1,0.5868,-0.3859,0.0000*
%
%ADD44ROUNDEDRECTD44*%
%ADD45R,1.3587X0.5868*%
%ADD46R,1.2062X0.9562*%
%ADD47R,1.3562X1.1781*%
%ADD48R,0.9121X1.1311*%
%ADD49R,2.3300X1.9900*%
%ADD50R,2.1300X1.9900*%
%ADD52R,1.1311X0.9121*%
%ADD53R,1.0000X2.3000*%
%ADD56R,1.6030X2.1062*%
%ADD57R,0.9000X0.5000*%
%ADD58R,0.5000X0.9000*%
%ADD59R,2.1062X1.6030*%
%ADD60R,2.0000X2.0000*%
%ADD61R,2.0000X1.3000*%
%ADD62R,1.9900X2.1300*%
%ADD64R,0.5000X0.5500*%
%ADD65R,0.9032X1.0532*%
%ADD66O,1.0032X0.5032*%
%ADD67O,0.5032X1.0032*%
%ADD68R,1.8532X2.8532*%
%ADD69R,0.4532X0.9032*%
%ADD70R,2.5832X1.8532*%
%ADD71R,1.0532X0.9032*%
%ADD72R,1.1032X1.2532*%
%ADD73R,1.2532X1.1032*%
%ADD74R,1.0532X0.9532*%
%ADD75R,0.9532X1.0532*%
%ADD76R,1.1032X1.7532*%
%ADD77R,1.2032X1.0032*%
%ADD78R,1.1532X1.1532*%
%ADD79R,1.7532X1.1032*%
%ADD80R,0.8532X1.9532*%
%ADD81R,1.9532X1.1532*%
%ADD82R,6.8032X5.8032*%
%ADD83R,2.9032X1.2032*%
%ADD84R,3.9532X9.7032*%
%ADD85R,1.4232X1.1132*%
%ADD86R,2.5532X2.4032*%
%ADD87R,1.7032X1.1032*%
G04:AMPARAMS|DCode=88|XSize=0.8032mm|YSize=1.6532mm|CornerRadius=0.1526mm|HoleSize=0mm|Usage=FLASHONLY|Rotation=180.000|XOffset=0mm|YOffset=0mm|HoleType=Round|Shape=RoundedRectangle|*
%AMROUNDEDRECTD88*
21,1,0.8032,1.3480,0,0,180.0*
21,1,0.4980,1.6532,0,0,180.0*
1,1,0.3052,-0.2490,0.6740*
1,1,0.3052,0.2490,0.6740*
1,1,0.3052,0.2490,-0.6740*
1,1,0.3052,-0.2490,-0.6740*
%
%ADD88ROUNDEDRECTD88*%
%ADD89C,2.0160*%
%ADD90R,1.1532X1.1532*%
%ADD91C,1.7032*%
%ADD92R,1.7032X1.7032*%
%ADD93R,1.7032X1.7032*%
%ADD94C,1.7272*%
%ADD95C,1.5700*%
%ADD96C,5.2032*%
%ADD97C,0.7032*%
D16*
X279250Y601000D02*
D03*
X258750D02*
D03*
X222942Y568004D02*
D03*
X202442D02*
D03*
X577750Y584000D02*
D03*
X598250D02*
D03*
X416000Y390800D02*
D03*
X395500D02*
D03*
X577750Y598000D02*
D03*
X598250D02*
D03*
X735000Y811000D02*
D03*
X714500D02*
D03*
D18*
X550810Y408492D02*
D03*
X560310D02*
D03*
D19*
X433995Y400300D02*
D03*
X538495Y597500D02*
D03*
X256219Y577230D02*
D03*
D20*
X433995Y390800D02*
D03*
Y381300D02*
D03*
X457005D02*
D03*
Y400300D02*
D03*
X538495Y588000D02*
D03*
Y578500D02*
D03*
X561505D02*
D03*
Y597500D02*
D03*
X256219Y567730D02*
D03*
Y558230D02*
D03*
X279228D02*
D03*
Y577230D02*
D03*
D33*
X281000Y509000D02*
D03*
D34*
X292500Y469000D02*
D03*
X269500D02*
D03*
D42*
X407665Y346000D02*
D03*
X434335D02*
D03*
D44*
X399000Y557000D02*
D03*
Y575300D02*
D03*
X325000Y577000D02*
D03*
Y558700D02*
D03*
D45*
X380466Y566150D02*
D03*
X343534Y567850D02*
D03*
D46*
X457000Y414750D02*
D03*
Y435250D02*
D03*
D47*
X534000Y460359D02*
D03*
Y473641D02*
D03*
D48*
X412000Y491595D02*
D03*
Y504405D02*
D03*
D49*
X333000Y530100D02*
D03*
Y469900D02*
D03*
D50*
X509000Y505400D02*
D03*
Y552600D02*
D03*
D52*
X367595Y595000D02*
D03*
X380405D02*
D03*
D53*
X708550Y648950D02*
D03*
X733950D02*
D03*
X632350D02*
D03*
X606950D02*
D03*
Y753050D02*
D03*
X632350D02*
D03*
X708550D02*
D03*
X733950D02*
D03*
D56*
X861494Y50000D02*
D03*
X896506D02*
D03*
X135506Y950000D02*
D03*
X100494D02*
D03*
D57*
X950000Y92500D02*
D03*
Y107500D02*
D03*
X72000Y915500D02*
D03*
Y900500D02*
D03*
D58*
X893500Y950000D02*
D03*
X878500D02*
D03*
X99500Y50000D02*
D03*
X114500D02*
D03*
D59*
X950000Y863494D02*
D03*
X950000Y898506D02*
D03*
X80000Y134506D02*
D03*
Y99494D02*
D03*
D60*
X815000Y592500D02*
D03*
D61*
X775000Y581000D02*
D03*
Y604000D02*
D03*
D62*
X651740Y786984D02*
D03*
X604540D02*
D03*
X698400Y784000D02*
D03*
X745600D02*
D03*
D64*
X345118Y181641D02*
D03*
Y172141D02*
D03*
X430545Y181641D02*
D03*
Y172141D02*
D03*
X515493Y181641D02*
D03*
Y172141D02*
D03*
X600250Y181641D02*
D03*
Y172141D02*
D03*
D65*
X545750Y390000D02*
D03*
X558250D02*
D03*
X680817Y153241D02*
D03*
X668317D02*
D03*
D66*
X597000Y421500D02*
D03*
Y426500D02*
D03*
Y431500D02*
D03*
Y436500D02*
D03*
Y441500D02*
D03*
Y446500D02*
D03*
X567000D02*
D03*
Y441500D02*
D03*
Y436500D02*
D03*
Y431500D02*
D03*
Y426500D02*
D03*
Y421500D02*
D03*
D67*
X589500Y454000D02*
D03*
X584500D02*
D03*
X579500D02*
D03*
X574500D02*
D03*
Y414000D02*
D03*
X579500D02*
D03*
X584500D02*
D03*
X589500D02*
D03*
D68*
X582000Y434000D02*
D03*
D69*
X380500Y516000D02*
D03*
X385000D02*
D03*
X389500D02*
D03*
X394000D02*
D03*
X398500D02*
D03*
X403000D02*
D03*
X380500Y544000D02*
D03*
X385000D02*
D03*
X389500D02*
D03*
X394000D02*
D03*
X398500D02*
D03*
X403000D02*
D03*
D70*
X391750Y530000D02*
D03*
D71*
X591250Y474750D02*
D03*
Y487250D02*
D03*
X609500Y406050D02*
D03*
Y393550D02*
D03*
D72*
X585750Y393800D02*
D03*
X571250D02*
D03*
X635500Y321000D02*
D03*
X649000D02*
D03*
D73*
X597000Y388000D02*
D03*
Y401500D02*
D03*
D74*
X578250Y487500D02*
D03*
Y474500D02*
D03*
D75*
X636500Y456000D02*
D03*
X623500D02*
D03*
X636500Y443000D02*
D03*
X623500D02*
D03*
X398500Y417000D02*
D03*
X385500D02*
D03*
X398354Y430431D02*
D03*
X385354D02*
D03*
D76*
X479000Y346000D02*
D03*
X452500D02*
D03*
X562250Y554000D02*
D03*
X535750D02*
D03*
D77*
X432000Y508000D02*
D03*
Y523000D02*
D03*
X414000Y524500D02*
D03*
Y539500D02*
D03*
D78*
X432000Y532500D02*
D03*
Y547500D02*
D03*
X788000Y531500D02*
D03*
Y516500D02*
D03*
Y406000D02*
D03*
Y421000D02*
D03*
X813842Y402795D02*
D03*
Y417795D02*
D03*
X856000Y475000D02*
D03*
Y460000D02*
D03*
D79*
X422000Y565750D02*
D03*
Y592250D02*
D03*
X385000Y495250D02*
D03*
Y468750D02*
D03*
D80*
X663700Y426000D02*
D03*
X651000D02*
D03*
X638300D02*
D03*
X625600D02*
D03*
X663700Y370000D02*
D03*
X651000D02*
D03*
X638300D02*
D03*
X625600D02*
D03*
D81*
X592500Y323200D02*
D03*
Y368800D02*
D03*
D82*
X521500Y346000D02*
D03*
D83*
X539000Y424000D02*
D03*
Y446000D02*
D03*
D84*
X417250Y654000D02*
D03*
X354750D02*
D03*
D85*
X616000Y351700D02*
D03*
Y319000D02*
D03*
D86*
X464000Y633500D02*
D03*
Y575000D02*
D03*
Y477500D02*
D03*
Y536000D02*
D03*
D87*
X394616Y153223D02*
D03*
Y120224D02*
D03*
X345616D02*
D03*
Y153223D02*
D03*
X479431D02*
D03*
Y120224D02*
D03*
X430431D02*
D03*
Y153223D02*
D03*
X564246D02*
D03*
Y120224D02*
D03*
X515246D02*
D03*
Y153223D02*
D03*
X649061D02*
D03*
Y120224D02*
D03*
X600061D02*
D03*
Y153223D02*
D03*
D88*
X839100Y495000D02*
D03*
X826400D02*
D03*
X813700D02*
D03*
X801000D02*
D03*
X788300D02*
D03*
X775600D02*
D03*
X762900D02*
D03*
X839100Y440500D02*
D03*
X826400D02*
D03*
X813700D02*
D03*
X801000D02*
D03*
X788300D02*
D03*
X775600D02*
D03*
X762900D02*
D03*
D89*
X500000Y64984D02*
D03*
Y938000D02*
D03*
X85000Y500000D02*
D03*
D90*
X819500Y514500D02*
D03*
X804500D02*
D03*
X819500Y530500D02*
D03*
X804500D02*
D03*
X756256Y532808D02*
D03*
X771256D02*
D03*
X771000Y515500D02*
D03*
X756000D02*
D03*
X758000Y404500D02*
D03*
X773000D02*
D03*
Y421500D02*
D03*
X758000D02*
D03*
X845000Y402500D02*
D03*
X830000D02*
D03*
Y418500D02*
D03*
X845000D02*
D03*
D91*
X959000Y600400D02*
D03*
Y575000D02*
D03*
Y549600D02*
D03*
X627000Y535000D02*
D03*
X652400D02*
D03*
X717000Y127600D02*
D03*
X959239Y189899D02*
D03*
Y215299D02*
D03*
Y240699D02*
D03*
X961000Y311600D02*
D03*
Y337000D02*
D03*
Y362400D02*
D03*
X959239Y429900D02*
D03*
Y455300D02*
D03*
Y480700D02*
D03*
X168000Y445000D02*
D03*
X458600Y664000D02*
D03*
D92*
X959000Y524200D02*
D03*
X717000Y153000D02*
D03*
X959239Y164499D02*
D03*
X961000Y286200D02*
D03*
X959239Y404500D02*
D03*
X168000Y419600D02*
D03*
D93*
X601600Y535000D02*
D03*
X484000Y664000D02*
D03*
D94*
X631000Y502000D02*
D03*
D95*
Y477000D02*
D03*
X506000Y397000D02*
D03*
X407111Y285356D02*
D03*
X501000Y447000D02*
D03*
X701000Y370000D02*
D03*
X333000Y430000D02*
D03*
X562000Y525000D02*
D03*
X778728Y153241D02*
D03*
X730000Y495000D02*
D03*
Y460229D02*
D03*
X727000Y581000D02*
D03*
X856000Y552800D02*
D03*
X866000Y440000D02*
D03*
D96*
X950000Y50000D02*
D03*
Y950000D02*
D03*
X49000Y50000D02*
D03*
X49000Y950000D02*
D03*
D97*
X649000Y465000D02*
D03*
X614000Y438000D02*
D03*
X613000Y448646D02*
D03*
X295170Y600373D02*
D03*
X544000Y410899D02*
D03*
X527000Y413000D02*
D03*
X657000Y419000D02*
D03*
X656000Y430000D02*
D03*
X643000Y429500D02*
D03*
Y418500D02*
D03*
X559000Y436500D02*
D03*
X575010Y402987D02*
D03*
X614000Y428250D02*
D03*
X597000Y401500D02*
D03*
X297000Y509000D02*
D03*
X385000Y508000D02*
D03*
X582000Y428500D02*
D03*
Y439500D02*
D03*
X386750Y525000D02*
D03*
Y535000D02*
D03*
X396750Y525000D02*
D03*
Y535000D02*
D03*
X561000Y618000D02*
D03*
X428000Y444000D02*
D03*
X519000Y591000D02*
D03*
X788000Y549000D02*
D03*
X579667Y466795D02*
D03*
X476010Y415129D02*
D03*
X398354Y430431D02*
D03*
X405000Y424000D02*
D03*
X385000Y439000D02*
D03*
X412000Y548000D02*
D03*
X579000Y726000D02*
D03*
X651000Y618000D02*
D03*
X553000Y457000D02*
D03*
X433995Y419005D02*
D03*
X578469Y499326D02*
D03*
X801000Y423000D02*
D03*
X814000Y383000D02*
D03*
X299000Y583000D02*
D03*
X314000Y591000D02*
D03*
M02*
