G04*
G04 #@! TF.GenerationSoftware,Altium Limited,Altium Designer,22.2.1 (43)*
G04*
G04 Layer_Color=255*
%FSLAX44Y44*%
%MOMM*%
G71*
G04*
G04 #@! TF.SameCoordinates,09C73F61-2481-4693-A516-3075C6E7F38E*
G04*
G04*
G04 #@! TF.FilePolarity,Positive*
G04*
G01*
G75*
%ADD92C,1.5700*%
%ADD101C,1.5240*%
%ADD102C,1.5000*%
%ADD103R,1.5000X1.5000*%
%ADD104R,1.5000X1.5000*%
%ADD105C,5.0000*%
%ADD107R,1.1781X1.3562*%
%ADD108R,1.2065X1.0682*%
D92*
X631000Y477000D02*
D03*
X506000Y397000D02*
D03*
X407111Y285356D02*
D03*
X501000Y447000D02*
D03*
X701000Y370000D02*
D03*
X333000Y430000D02*
D03*
X562000Y525000D02*
D03*
X778728Y153241D02*
D03*
X730000Y495000D02*
D03*
Y460229D02*
D03*
X727000Y581000D02*
D03*
X856000Y552800D02*
D03*
X866000Y440000D02*
D03*
D101*
X631000Y502000D02*
D03*
D102*
X717000Y127600D02*
D03*
X959239Y189899D02*
D03*
Y215299D02*
D03*
Y240699D02*
D03*
X961000Y311600D02*
D03*
Y337000D02*
D03*
Y362400D02*
D03*
X959239Y429900D02*
D03*
Y455300D02*
D03*
Y480700D02*
D03*
X959239Y546850D02*
D03*
Y572250D02*
D03*
Y597650D02*
D03*
X652400Y535000D02*
D03*
X627000D02*
D03*
X267900Y422981D02*
D03*
X458600Y664000D02*
D03*
D103*
X717000Y153000D02*
D03*
X959239Y164499D02*
D03*
X961000Y286200D02*
D03*
X959239Y404500D02*
D03*
X959239Y521450D02*
D03*
D104*
X601600Y535000D02*
D03*
X293300Y422981D02*
D03*
X484000Y664000D02*
D03*
D105*
X950000Y50000D02*
D03*
Y950000D02*
D03*
X49000Y50000D02*
D03*
X49000Y950000D02*
D03*
D107*
X577641Y436000D02*
D03*
X564359D02*
D03*
D108*
X581741Y387000D02*
D03*
X598259D02*
D03*
M02*
