G04*
G04 #@! TF.GenerationSoftware,Altium Limited,Altium Designer,22.2.1 (43)*
G04*
G04 Layer_Color=16711935*
%FSLAX44Y44*%
%MOMM*%
G71*
G04*
G04 #@! TF.SameCoordinates,A9A70369-3CB5-4260-8086-E324CD68B5AB*
G04*
G04*
G04 #@! TF.FilePolarity,Positive*
G04*
G01*
G75*
%ADD100C,0.2540*%
G36*
X804655Y472249D02*
X804706Y472241D01*
X804773Y472234D01*
X804847Y472219D01*
X804928Y472197D01*
X805098Y472145D01*
X805194Y472108D01*
X805283Y472057D01*
X805379Y472005D01*
X805468Y471946D01*
X805556Y471872D01*
X805645Y471791D01*
X805653Y471783D01*
X805667Y471768D01*
X805689Y471746D01*
X805712Y471709D01*
X805749Y471657D01*
X805786Y471606D01*
X805823Y471539D01*
X805867Y471465D01*
X805911Y471384D01*
X805948Y471288D01*
X805985Y471185D01*
X806022Y471081D01*
X806044Y470963D01*
X806067Y470837D01*
X806081Y470711D01*
X806089Y470571D01*
Y470497D01*
X806081Y470445D01*
X806074Y470379D01*
X806067Y470305D01*
X806052Y470224D01*
X806030Y470135D01*
X805978Y469935D01*
X805941Y469832D01*
X805904Y469736D01*
X805852Y469632D01*
X805793Y469529D01*
X805726Y469433D01*
X805645Y469344D01*
X805638Y469337D01*
X805623Y469322D01*
X805601Y469300D01*
X805564Y469270D01*
X805519Y469240D01*
X805468Y469196D01*
X805409Y469159D01*
X805335Y469115D01*
X805261Y469071D01*
X805172Y469034D01*
X804987Y468960D01*
X804876Y468930D01*
X804766Y468908D01*
X804647Y468893D01*
X804529Y468886D01*
X804522D01*
X804507D01*
X804477D01*
X804448Y468893D01*
X804403D01*
X804352Y468900D01*
X804233Y468915D01*
X804100Y468945D01*
X803967Y468989D01*
X803827Y469056D01*
X803694Y469137D01*
X803687D01*
X803679Y469152D01*
X803642Y469181D01*
X803583Y469240D01*
X803509Y469322D01*
X803435Y469425D01*
X803354Y469551D01*
X803287Y469691D01*
X803236Y469861D01*
Y469854D01*
X803228Y469847D01*
X803221Y469824D01*
X803206Y469795D01*
X803176Y469728D01*
X803132Y469640D01*
X803073Y469544D01*
X802999Y469448D01*
X802918Y469359D01*
X802829Y469277D01*
X802814Y469270D01*
X802785Y469248D01*
X802726Y469218D01*
X802652Y469189D01*
X802556Y469152D01*
X802445Y469122D01*
X802319Y469100D01*
X802186Y469093D01*
X802179D01*
X802164D01*
X802134D01*
X802090Y469100D01*
X802046Y469108D01*
X801986Y469115D01*
X801861Y469144D01*
X801713Y469189D01*
X801558Y469263D01*
X801477Y469307D01*
X801395Y469359D01*
X801321Y469425D01*
X801247Y469492D01*
X801240Y469499D01*
X801233Y469514D01*
X801210Y469536D01*
X801188Y469566D01*
X801159Y469603D01*
X801129Y469654D01*
X801092Y469714D01*
X801055Y469773D01*
X801018Y469847D01*
X800981Y469928D01*
X800952Y470017D01*
X800922Y470113D01*
X800878Y470320D01*
X800870Y470438D01*
X800863Y470556D01*
Y470623D01*
X800870Y470667D01*
X800878Y470726D01*
X800885Y470793D01*
X800892Y470867D01*
X800915Y470941D01*
X800959Y471118D01*
X801026Y471295D01*
X801070Y471384D01*
X801122Y471473D01*
X801188Y471554D01*
X801255Y471635D01*
X801262Y471643D01*
X801270Y471650D01*
X801292Y471672D01*
X801321Y471702D01*
X801366Y471731D01*
X801410Y471768D01*
X801521Y471842D01*
X801661Y471916D01*
X801824Y471983D01*
X802009Y472034D01*
X802105Y472042D01*
X802208Y472049D01*
X802216D01*
X802223D01*
X802267D01*
X802334Y472042D01*
X802415Y472027D01*
X802519Y472005D01*
X802622Y471968D01*
X802726Y471924D01*
X802829Y471857D01*
X802844Y471850D01*
X802873Y471820D01*
X802918Y471776D01*
X802977Y471717D01*
X803043Y471635D01*
X803110Y471539D01*
X803176Y471428D01*
X803236Y471295D01*
Y471303D01*
X803243Y471317D01*
X803250Y471340D01*
X803265Y471369D01*
X803302Y471458D01*
X803354Y471561D01*
X803428Y471672D01*
X803509Y471791D01*
X803613Y471901D01*
X803731Y472005D01*
X803738D01*
X803746Y472012D01*
X803790Y472042D01*
X803864Y472086D01*
X803960Y472131D01*
X804078Y472175D01*
X804219Y472219D01*
X804374Y472249D01*
X804544Y472256D01*
X804551D01*
X804573D01*
X804610D01*
X804655Y472249D01*
D02*
G37*
G36*
X804034Y468013D02*
X804108D01*
X804196Y468006D01*
X804285Y467999D01*
X804485Y467977D01*
X804692Y467947D01*
X804891Y467903D01*
X804987Y467873D01*
X805076Y467844D01*
X805083D01*
X805098Y467836D01*
X805120Y467821D01*
X805150Y467807D01*
X805231Y467762D01*
X805335Y467696D01*
X805453Y467607D01*
X805571Y467504D01*
X805697Y467370D01*
X805808Y467208D01*
Y467201D01*
X805823Y467186D01*
X805830Y467164D01*
X805852Y467127D01*
X805874Y467082D01*
X805897Y467023D01*
X805919Y466964D01*
X805948Y466890D01*
X805978Y466809D01*
X806000Y466720D01*
X806022Y466624D01*
X806044Y466513D01*
X806059Y466402D01*
X806074Y466284D01*
X806089Y466018D01*
Y465951D01*
X806081Y465900D01*
Y465840D01*
X806074Y465767D01*
X806067Y465685D01*
X806059Y465604D01*
X806030Y465419D01*
X805985Y465220D01*
X805926Y465027D01*
X805845Y464843D01*
Y464835D01*
X805830Y464821D01*
X805815Y464798D01*
X805800Y464769D01*
X805741Y464687D01*
X805660Y464591D01*
X805556Y464481D01*
X805438Y464377D01*
X805290Y464273D01*
X805128Y464192D01*
X805120D01*
X805106Y464185D01*
X805076Y464177D01*
X805039Y464163D01*
X804995Y464148D01*
X804936Y464133D01*
X804869Y464111D01*
X804788Y464096D01*
X804699Y464081D01*
X804603Y464059D01*
X804500Y464044D01*
X804389Y464030D01*
X804263Y464015D01*
X804130Y464007D01*
X803989Y464000D01*
X803842D01*
X800885D01*
Y464680D01*
X803842D01*
X803849D01*
X803871D01*
X803908D01*
X803953D01*
X804004Y464687D01*
X804071D01*
X804211Y464695D01*
X804374Y464710D01*
X804537Y464732D01*
X804692Y464761D01*
X804758Y464776D01*
X804825Y464798D01*
X804839Y464806D01*
X804876Y464821D01*
X804928Y464857D01*
X805002Y464902D01*
X805076Y464953D01*
X805157Y465027D01*
X805239Y465116D01*
X805305Y465220D01*
X805313Y465234D01*
X805335Y465271D01*
X805357Y465338D01*
X805387Y465427D01*
X805424Y465530D01*
X805446Y465663D01*
X805468Y465803D01*
X805475Y465959D01*
Y466033D01*
X805468Y466077D01*
Y466143D01*
X805460Y466210D01*
X805431Y466373D01*
X805394Y466550D01*
X805335Y466720D01*
X805254Y466883D01*
X805202Y466957D01*
X805143Y467023D01*
X805135Y467030D01*
X805128Y467038D01*
X805106Y467053D01*
X805076Y467075D01*
X805032Y467097D01*
X804987Y467127D01*
X804921Y467156D01*
X804854Y467186D01*
X804773Y467215D01*
X804677Y467237D01*
X804566Y467267D01*
X804448Y467289D01*
X804315Y467311D01*
X804174Y467326D01*
X804012Y467341D01*
X803842D01*
X800885D01*
Y468021D01*
X803842D01*
X803849D01*
X803879D01*
X803916D01*
X803967D01*
X804034Y468013D01*
D02*
G37*
G36*
X503445Y41000D02*
X502817D01*
Y44999D01*
X502810Y44991D01*
X502773Y44962D01*
X502728Y44917D01*
X502654Y44866D01*
X502573Y44799D01*
X502470Y44725D01*
X502351Y44644D01*
X502218Y44563D01*
X502211D01*
X502203Y44555D01*
X502159Y44526D01*
X502085Y44489D01*
X501997Y44444D01*
X501893Y44393D01*
X501782Y44341D01*
X501671Y44289D01*
X501561Y44245D01*
Y44851D01*
X501568D01*
X501583Y44866D01*
X501612Y44873D01*
X501649Y44895D01*
X501693Y44917D01*
X501745Y44947D01*
X501871Y45021D01*
X502019Y45102D01*
X502167Y45206D01*
X502322Y45324D01*
X502477Y45450D01*
X502484Y45457D01*
X502492Y45464D01*
X502514Y45487D01*
X502543Y45509D01*
X502610Y45583D01*
X502699Y45671D01*
X502788Y45775D01*
X502884Y45893D01*
X502965Y46011D01*
X503039Y46137D01*
X503445D01*
Y41000D01*
D02*
G37*
G36*
X500459Y45509D02*
X497680D01*
Y43927D01*
X500082D01*
Y43321D01*
X497680D01*
Y41000D01*
X497000D01*
Y46115D01*
X500459D01*
Y45509D01*
D02*
G37*
G36*
X501898Y960130D02*
X501958Y960122D01*
X502031Y960115D01*
X502113Y960100D01*
X502194Y960085D01*
X502386Y960033D01*
X502578Y959960D01*
X502674Y959915D01*
X502771Y959864D01*
X502859Y959797D01*
X502940Y959723D01*
X502948Y959716D01*
X502963Y959708D01*
X502977Y959679D01*
X503007Y959649D01*
X503044Y959612D01*
X503081Y959560D01*
X503118Y959509D01*
X503162Y959442D01*
X503236Y959302D01*
X503310Y959124D01*
X503340Y959036D01*
X503354Y958932D01*
X503369Y958829D01*
X503377Y958718D01*
Y958703D01*
Y958666D01*
X503369Y958607D01*
X503362Y958526D01*
X503347Y958437D01*
X503317Y958334D01*
X503288Y958223D01*
X503244Y958112D01*
X503236Y958097D01*
X503221Y958060D01*
X503192Y958001D01*
X503148Y957920D01*
X503088Y957831D01*
X503014Y957720D01*
X502926Y957609D01*
X502822Y957484D01*
X502808Y957469D01*
X502771Y957424D01*
X502734Y957387D01*
X502697Y957350D01*
X502652Y957306D01*
X502593Y957247D01*
X502534Y957188D01*
X502460Y957121D01*
X502386Y957047D01*
X502298Y956966D01*
X502201Y956885D01*
X502098Y956789D01*
X501980Y956693D01*
X501861Y956589D01*
X501854Y956582D01*
X501839Y956567D01*
X501810Y956545D01*
X501773Y956515D01*
X501728Y956471D01*
X501677Y956426D01*
X501558Y956330D01*
X501433Y956220D01*
X501314Y956109D01*
X501211Y956013D01*
X501167Y955976D01*
X501130Y955939D01*
X501122Y955931D01*
X501100Y955909D01*
X501071Y955880D01*
X501034Y955835D01*
X500997Y955783D01*
X500952Y955732D01*
X500863Y955606D01*
X503384D01*
Y955000D01*
X499991D01*
Y955007D01*
Y955037D01*
Y955081D01*
X499999Y955140D01*
X500006Y955207D01*
X500021Y955281D01*
X500036Y955355D01*
X500065Y955436D01*
Y955443D01*
X500073Y955451D01*
X500087Y955495D01*
X500117Y955562D01*
X500161Y955650D01*
X500220Y955754D01*
X500294Y955872D01*
X500376Y955990D01*
X500479Y956116D01*
Y956124D01*
X500494Y956131D01*
X500531Y956175D01*
X500597Y956242D01*
X500694Y956338D01*
X500804Y956449D01*
X500945Y956582D01*
X501115Y956730D01*
X501300Y956885D01*
X501307Y956892D01*
X501337Y956914D01*
X501381Y956951D01*
X501433Y956996D01*
X501499Y957055D01*
X501581Y957121D01*
X501662Y957195D01*
X501758Y957277D01*
X501943Y957454D01*
X502127Y957631D01*
X502216Y957720D01*
X502298Y957809D01*
X502371Y957890D01*
X502430Y957971D01*
Y957979D01*
X502445Y957986D01*
X502460Y958008D01*
X502475Y958038D01*
X502527Y958119D01*
X502586Y958215D01*
X502637Y958334D01*
X502689Y958459D01*
X502719Y958600D01*
X502734Y958733D01*
Y958740D01*
Y958747D01*
X502726Y958792D01*
X502719Y958866D01*
X502697Y958947D01*
X502667Y959051D01*
X502615Y959154D01*
X502549Y959257D01*
X502460Y959361D01*
X502445Y959376D01*
X502408Y959405D01*
X502357Y959442D01*
X502275Y959494D01*
X502172Y959538D01*
X502054Y959583D01*
X501913Y959612D01*
X501758Y959620D01*
X501714D01*
X501684Y959612D01*
X501595Y959605D01*
X501492Y959583D01*
X501381Y959553D01*
X501255Y959501D01*
X501137Y959435D01*
X501026Y959346D01*
X501011Y959331D01*
X500982Y959294D01*
X500938Y959235D01*
X500893Y959147D01*
X500841Y959043D01*
X500797Y958910D01*
X500768Y958762D01*
X500753Y958592D01*
X500110Y958659D01*
Y958666D01*
X500117Y958688D01*
Y958725D01*
X500124Y958777D01*
X500139Y958836D01*
X500154Y958903D01*
X500176Y958984D01*
X500198Y959065D01*
X500257Y959243D01*
X500346Y959420D01*
X500398Y959509D01*
X500464Y959597D01*
X500531Y959679D01*
X500605Y959753D01*
X500612Y959760D01*
X500627Y959767D01*
X500649Y959790D01*
X500686Y959812D01*
X500731Y959841D01*
X500782Y959871D01*
X500841Y959908D01*
X500915Y959945D01*
X500997Y959982D01*
X501085Y960019D01*
X501181Y960048D01*
X501285Y960078D01*
X501396Y960100D01*
X501514Y960122D01*
X501640Y960130D01*
X501773Y960137D01*
X501847D01*
X501898Y960130D01*
D02*
G37*
G36*
X499459Y959509D02*
X496680D01*
Y957927D01*
X499082D01*
Y957321D01*
X496680D01*
Y955000D01*
X496000D01*
Y960115D01*
X499459D01*
Y959509D01*
D02*
G37*
G36*
X989514Y58229D02*
X989573Y58221D01*
X989640Y58206D01*
X989714Y58191D01*
X989795Y58177D01*
X989973Y58118D01*
X990069Y58073D01*
X990157Y58029D01*
X990253Y57970D01*
X990350Y57903D01*
X990446Y57829D01*
X990534Y57741D01*
X990542Y57733D01*
X990556Y57719D01*
X990579Y57689D01*
X990608Y57652D01*
X990645Y57608D01*
X990682Y57548D01*
X990726Y57482D01*
X990763Y57401D01*
X990808Y57319D01*
X990852Y57223D01*
X990889Y57127D01*
X990926Y57016D01*
X990956Y56898D01*
X990978Y56772D01*
X990993Y56647D01*
X991000Y56506D01*
Y56440D01*
X990993Y56395D01*
X990985Y56336D01*
X990978Y56270D01*
X990963Y56196D01*
X990948Y56115D01*
X990904Y55937D01*
X990830Y55752D01*
X990786Y55656D01*
X990734Y55568D01*
X990667Y55479D01*
X990601Y55390D01*
X990593Y55383D01*
X990579Y55368D01*
X990556Y55346D01*
X990527Y55324D01*
X990490Y55287D01*
X990438Y55250D01*
X990387Y55205D01*
X990320Y55161D01*
X990246Y55117D01*
X990172Y55072D01*
X989995Y54991D01*
X989788Y54925D01*
X989677Y54902D01*
X989559Y54887D01*
X989477Y55516D01*
X989485D01*
X989500Y55523D01*
X989529Y55531D01*
X989566Y55538D01*
X989610Y55545D01*
X989662Y55560D01*
X989773Y55597D01*
X989906Y55649D01*
X990032Y55715D01*
X990150Y55789D01*
X990253Y55878D01*
X990261Y55893D01*
X990290Y55922D01*
X990327Y55981D01*
X990364Y56055D01*
X990409Y56144D01*
X990446Y56255D01*
X990475Y56381D01*
X990483Y56514D01*
Y56558D01*
X990475Y56588D01*
X990468Y56669D01*
X990446Y56772D01*
X990409Y56891D01*
X990357Y57016D01*
X990283Y57142D01*
X990180Y57260D01*
X990165Y57275D01*
X990120Y57312D01*
X990054Y57356D01*
X989965Y57415D01*
X989854Y57474D01*
X989729Y57519D01*
X989581Y57556D01*
X989418Y57571D01*
X989411D01*
X989396D01*
X989374D01*
X989344Y57563D01*
X989263Y57556D01*
X989167Y57534D01*
X989049Y57504D01*
X988930Y57452D01*
X988812Y57378D01*
X988701Y57282D01*
X988687Y57268D01*
X988657Y57231D01*
X988613Y57172D01*
X988561Y57090D01*
X988509Y56987D01*
X988465Y56861D01*
X988435Y56721D01*
X988420Y56565D01*
Y56499D01*
X988428Y56447D01*
X988435Y56381D01*
X988450Y56307D01*
X988465Y56218D01*
X988487Y56122D01*
X987933Y56196D01*
Y56233D01*
X987940Y56262D01*
Y56358D01*
X987925Y56440D01*
X987910Y56536D01*
X987888Y56647D01*
X987851Y56772D01*
X987800Y56891D01*
X987733Y57016D01*
Y57024D01*
X987726Y57031D01*
X987696Y57068D01*
X987644Y57120D01*
X987578Y57179D01*
X987482Y57238D01*
X987371Y57290D01*
X987245Y57327D01*
X987171Y57341D01*
X987090D01*
X987083D01*
X987075D01*
X987031D01*
X986972Y57327D01*
X986890Y57312D01*
X986802Y57282D01*
X986706Y57245D01*
X986609Y57186D01*
X986521Y57105D01*
X986513Y57098D01*
X986484Y57061D01*
X986447Y57009D01*
X986403Y56942D01*
X986366Y56854D01*
X986329Y56750D01*
X986299Y56632D01*
X986292Y56499D01*
Y56440D01*
X986306Y56373D01*
X986321Y56284D01*
X986351Y56188D01*
X986388Y56092D01*
X986447Y55989D01*
X986521Y55893D01*
X986528Y55885D01*
X986565Y55856D01*
X986617Y55812D01*
X986691Y55760D01*
X986787Y55708D01*
X986905Y55656D01*
X987046Y55612D01*
X987208Y55582D01*
X987097Y54954D01*
X987090D01*
X987068Y54962D01*
X987038Y54969D01*
X986994Y54976D01*
X986942Y54991D01*
X986883Y55013D01*
X986742Y55058D01*
X986580Y55132D01*
X986417Y55220D01*
X986262Y55331D01*
X986122Y55472D01*
X986114Y55479D01*
X986107Y55494D01*
X986092Y55516D01*
X986070Y55545D01*
X986040Y55582D01*
X986011Y55634D01*
X985981Y55686D01*
X985944Y55752D01*
X985885Y55900D01*
X985826Y56070D01*
X985789Y56270D01*
X985774Y56373D01*
Y56558D01*
X985782Y56639D01*
X985796Y56735D01*
X985819Y56854D01*
X985856Y56987D01*
X985900Y57120D01*
X985959Y57253D01*
Y57260D01*
X985966Y57268D01*
X985989Y57312D01*
X986033Y57378D01*
X986085Y57452D01*
X986159Y57541D01*
X986240Y57630D01*
X986336Y57719D01*
X986447Y57792D01*
X986462Y57800D01*
X986499Y57822D01*
X986565Y57852D01*
X986646Y57888D01*
X986742Y57925D01*
X986853Y57955D01*
X986979Y57977D01*
X987105Y57984D01*
X987120D01*
X987164D01*
X987223Y57977D01*
X987304Y57962D01*
X987400Y57940D01*
X987504Y57903D01*
X987607Y57859D01*
X987711Y57800D01*
X987726Y57792D01*
X987755Y57770D01*
X987807Y57726D01*
X987866Y57667D01*
X987933Y57593D01*
X988007Y57504D01*
X988073Y57401D01*
X988139Y57275D01*
Y57282D01*
X988147Y57297D01*
X988154Y57319D01*
X988162Y57349D01*
X988191Y57430D01*
X988236Y57534D01*
X988295Y57652D01*
X988369Y57770D01*
X988465Y57881D01*
X988576Y57984D01*
X988590Y57992D01*
X988635Y58021D01*
X988709Y58066D01*
X988805Y58110D01*
X988923Y58155D01*
X989063Y58199D01*
X989226Y58229D01*
X989403Y58236D01*
X989411D01*
X989433D01*
X989470D01*
X989514Y58229D01*
D02*
G37*
G36*
X990911Y53328D02*
X988502D01*
Y50682D01*
X990911D01*
Y50002D01*
X985796D01*
Y50682D01*
X987896D01*
Y53328D01*
X985796D01*
Y54008D01*
X990911D01*
Y53328D01*
D02*
G37*
G36*
Y48228D02*
X986632D01*
X990911Y46735D01*
Y46129D01*
X986558Y44651D01*
X990911D01*
Y44000D01*
X985796D01*
Y45013D01*
X989426Y46225D01*
X989433D01*
X989448Y46232D01*
X989470Y46240D01*
X989507Y46254D01*
X989596Y46284D01*
X989706Y46321D01*
X989832Y46358D01*
X989958Y46402D01*
X990076Y46439D01*
X990180Y46469D01*
X990165Y46476D01*
X990128Y46483D01*
X990061Y46506D01*
X989973Y46535D01*
X989854Y46572D01*
X989714Y46624D01*
X989551Y46676D01*
X989359Y46742D01*
X985796Y47969D01*
Y48878D01*
X990911D01*
Y48228D01*
D02*
G37*
G36*
X87839Y489218D02*
X87935Y489203D01*
X88054Y489181D01*
X88187Y489144D01*
X88320Y489100D01*
X88453Y489041D01*
X88460D01*
X88468Y489034D01*
X88512Y489011D01*
X88578Y488967D01*
X88652Y488915D01*
X88741Y488841D01*
X88830Y488760D01*
X88918Y488664D01*
X88992Y488553D01*
X89000Y488538D01*
X89022Y488501D01*
X89051Y488435D01*
X89088Y488354D01*
X89125Y488257D01*
X89155Y488147D01*
X89177Y488021D01*
X89184Y487895D01*
Y487881D01*
Y487836D01*
X89177Y487777D01*
X89162Y487696D01*
X89140Y487600D01*
X89103Y487496D01*
X89059Y487393D01*
X89000Y487289D01*
X88992Y487274D01*
X88970Y487245D01*
X88926Y487193D01*
X88867Y487134D01*
X88793Y487067D01*
X88704Y486993D01*
X88601Y486927D01*
X88475Y486861D01*
X88482D01*
X88497Y486853D01*
X88519Y486846D01*
X88549Y486838D01*
X88630Y486809D01*
X88734Y486764D01*
X88852Y486705D01*
X88970Y486631D01*
X89081Y486535D01*
X89184Y486424D01*
X89192Y486410D01*
X89221Y486365D01*
X89266Y486291D01*
X89310Y486195D01*
X89354Y486077D01*
X89399Y485937D01*
X89428Y485774D01*
X89436Y485597D01*
Y485589D01*
Y485567D01*
Y485530D01*
X89428Y485486D01*
X89421Y485426D01*
X89406Y485360D01*
X89391Y485286D01*
X89377Y485205D01*
X89318Y485027D01*
X89273Y484931D01*
X89229Y484843D01*
X89170Y484747D01*
X89103Y484650D01*
X89029Y484554D01*
X88940Y484466D01*
X88933Y484458D01*
X88918Y484444D01*
X88889Y484421D01*
X88852Y484392D01*
X88807Y484355D01*
X88748Y484318D01*
X88682Y484273D01*
X88601Y484236D01*
X88519Y484192D01*
X88423Y484148D01*
X88327Y484111D01*
X88216Y484074D01*
X88098Y484044D01*
X87972Y484022D01*
X87847Y484007D01*
X87706Y484000D01*
X87640D01*
X87595Y484007D01*
X87536Y484015D01*
X87470Y484022D01*
X87396Y484037D01*
X87314Y484052D01*
X87137Y484096D01*
X86952Y484170D01*
X86856Y484214D01*
X86767Y484266D01*
X86679Y484333D01*
X86590Y484399D01*
X86583Y484407D01*
X86568Y484421D01*
X86546Y484444D01*
X86524Y484473D01*
X86487Y484510D01*
X86450Y484562D01*
X86405Y484613D01*
X86361Y484680D01*
X86317Y484754D01*
X86272Y484828D01*
X86191Y485005D01*
X86124Y485212D01*
X86102Y485323D01*
X86087Y485441D01*
X86716Y485523D01*
Y485515D01*
X86723Y485500D01*
X86730Y485471D01*
X86738Y485434D01*
X86745Y485390D01*
X86760Y485338D01*
X86797Y485227D01*
X86849Y485094D01*
X86915Y484968D01*
X86989Y484850D01*
X87078Y484747D01*
X87093Y484739D01*
X87122Y484710D01*
X87181Y484673D01*
X87255Y484636D01*
X87344Y484591D01*
X87455Y484554D01*
X87580Y484525D01*
X87713Y484517D01*
X87758D01*
X87788Y484525D01*
X87869Y484532D01*
X87972Y484554D01*
X88090Y484591D01*
X88216Y484643D01*
X88342Y484717D01*
X88460Y484820D01*
X88475Y484835D01*
X88512Y484880D01*
X88556Y484946D01*
X88615Y485035D01*
X88674Y485146D01*
X88719Y485271D01*
X88756Y485419D01*
X88771Y485582D01*
Y485589D01*
Y485604D01*
Y485626D01*
X88763Y485656D01*
X88756Y485737D01*
X88734Y485833D01*
X88704Y485951D01*
X88652Y486070D01*
X88578Y486188D01*
X88482Y486299D01*
X88468Y486314D01*
X88431Y486343D01*
X88371Y486387D01*
X88290Y486439D01*
X88187Y486491D01*
X88061Y486535D01*
X87921Y486565D01*
X87765Y486580D01*
X87699D01*
X87647Y486572D01*
X87580Y486565D01*
X87507Y486550D01*
X87418Y486535D01*
X87322Y486513D01*
X87396Y487067D01*
X87433D01*
X87462Y487060D01*
X87558D01*
X87640Y487075D01*
X87736Y487090D01*
X87847Y487112D01*
X87972Y487149D01*
X88090Y487201D01*
X88216Y487267D01*
X88223D01*
X88231Y487274D01*
X88268Y487304D01*
X88320Y487356D01*
X88379Y487422D01*
X88438Y487518D01*
X88490Y487629D01*
X88527Y487755D01*
X88541Y487829D01*
Y487910D01*
Y487917D01*
Y487925D01*
Y487969D01*
X88527Y488028D01*
X88512Y488110D01*
X88482Y488198D01*
X88445Y488294D01*
X88386Y488391D01*
X88305Y488479D01*
X88298Y488487D01*
X88260Y488516D01*
X88209Y488553D01*
X88142Y488597D01*
X88054Y488634D01*
X87950Y488671D01*
X87832Y488701D01*
X87699Y488708D01*
X87640D01*
X87573Y488694D01*
X87484Y488679D01*
X87388Y488649D01*
X87292Y488612D01*
X87189Y488553D01*
X87093Y488479D01*
X87085Y488472D01*
X87056Y488435D01*
X87011Y488383D01*
X86960Y488309D01*
X86908Y488213D01*
X86856Y488095D01*
X86812Y487954D01*
X86782Y487792D01*
X86154Y487903D01*
Y487910D01*
X86161Y487932D01*
X86169Y487962D01*
X86176Y488006D01*
X86191Y488058D01*
X86213Y488117D01*
X86257Y488257D01*
X86331Y488420D01*
X86420Y488583D01*
X86531Y488738D01*
X86671Y488878D01*
X86679Y488886D01*
X86693Y488893D01*
X86716Y488908D01*
X86745Y488930D01*
X86782Y488960D01*
X86834Y488989D01*
X86886Y489019D01*
X86952Y489056D01*
X87100Y489115D01*
X87270Y489174D01*
X87470Y489211D01*
X87573Y489226D01*
X87758D01*
X87839Y489218D01*
D02*
G37*
G36*
X85459Y488597D02*
X82680D01*
Y487016D01*
X85082D01*
Y486410D01*
X82680D01*
Y484089D01*
X82000D01*
Y489203D01*
X85459D01*
Y488597D01*
D02*
G37*
G36*
X988000Y957792D02*
X987993D01*
X987963D01*
X987919D01*
X987860Y957799D01*
X987793Y957806D01*
X987719Y957821D01*
X987645Y957836D01*
X987564Y957865D01*
X987557D01*
X987549Y957873D01*
X987505Y957887D01*
X987438Y957917D01*
X987350Y957962D01*
X987246Y958021D01*
X987128Y958094D01*
X987010Y958176D01*
X986884Y958279D01*
X986877D01*
X986869Y958294D01*
X986825Y958331D01*
X986758Y958398D01*
X986662Y958494D01*
X986551Y958605D01*
X986418Y958745D01*
X986270Y958915D01*
X986115Y959100D01*
X986108Y959107D01*
X986086Y959137D01*
X986049Y959181D01*
X986004Y959233D01*
X985945Y959299D01*
X985879Y959381D01*
X985805Y959462D01*
X985723Y959558D01*
X985546Y959743D01*
X985369Y959928D01*
X985280Y960016D01*
X985191Y960098D01*
X985110Y960172D01*
X985029Y960231D01*
X985021D01*
X985014Y960245D01*
X984992Y960260D01*
X984962Y960275D01*
X984881Y960327D01*
X984785Y960386D01*
X984667Y960438D01*
X984541Y960489D01*
X984400Y960519D01*
X984267Y960534D01*
X984260D01*
X984253D01*
X984208Y960526D01*
X984134Y960519D01*
X984053Y960497D01*
X983950Y960467D01*
X983846Y960415D01*
X983743Y960349D01*
X983639Y960260D01*
X983624Y960245D01*
X983595Y960208D01*
X983558Y960157D01*
X983506Y960075D01*
X983462Y959972D01*
X983417Y959854D01*
X983388Y959713D01*
X983380Y959558D01*
Y959514D01*
X983388Y959484D01*
X983395Y959395D01*
X983417Y959292D01*
X983447Y959181D01*
X983499Y959055D01*
X983565Y958937D01*
X983654Y958826D01*
X983669Y958811D01*
X983706Y958782D01*
X983765Y958738D01*
X983853Y958693D01*
X983957Y958642D01*
X984090Y958597D01*
X984238Y958568D01*
X984408Y958553D01*
X984341Y957910D01*
X984334D01*
X984312Y957917D01*
X984275D01*
X984223Y957924D01*
X984164Y957939D01*
X984097Y957954D01*
X984016Y957976D01*
X983935Y957998D01*
X983757Y958057D01*
X983580Y958146D01*
X983491Y958198D01*
X983403Y958264D01*
X983321Y958331D01*
X983247Y958405D01*
X983240Y958412D01*
X983233Y958427D01*
X983210Y958449D01*
X983188Y958486D01*
X983159Y958531D01*
X983129Y958582D01*
X983092Y958642D01*
X983055Y958715D01*
X983018Y958797D01*
X982981Y958885D01*
X982952Y958981D01*
X982922Y959085D01*
X982900Y959196D01*
X982878Y959314D01*
X982870Y959440D01*
X982863Y959573D01*
Y959647D01*
X982870Y959698D01*
X982878Y959758D01*
X982885Y959831D01*
X982900Y959913D01*
X982915Y959994D01*
X982967Y960186D01*
X983040Y960378D01*
X983085Y960474D01*
X983137Y960571D01*
X983203Y960659D01*
X983277Y960741D01*
X983284Y960748D01*
X983292Y960763D01*
X983321Y960778D01*
X983351Y960807D01*
X983388Y960844D01*
X983439Y960881D01*
X983491Y960918D01*
X983558Y960962D01*
X983698Y961036D01*
X983876Y961110D01*
X983964Y961140D01*
X984068Y961154D01*
X984171Y961169D01*
X984282Y961177D01*
X984297D01*
X984334D01*
X984393Y961169D01*
X984474Y961162D01*
X984563Y961147D01*
X984667Y961118D01*
X984777Y961088D01*
X984888Y961044D01*
X984903Y961036D01*
X984940Y961021D01*
X984999Y960992D01*
X985080Y960948D01*
X985169Y960889D01*
X985280Y960815D01*
X985391Y960726D01*
X985517Y960622D01*
X985531Y960608D01*
X985576Y960571D01*
X985613Y960534D01*
X985649Y960497D01*
X985694Y960452D01*
X985753Y960393D01*
X985812Y960334D01*
X985879Y960260D01*
X985953Y960186D01*
X986034Y960098D01*
X986115Y960002D01*
X986211Y959898D01*
X986307Y959780D01*
X986411Y959661D01*
X986418Y959654D01*
X986433Y959639D01*
X986455Y959610D01*
X986485Y959573D01*
X986529Y959528D01*
X986573Y959477D01*
X986670Y959358D01*
X986780Y959233D01*
X986891Y959115D01*
X986987Y959011D01*
X987024Y958967D01*
X987061Y958930D01*
X987069Y958922D01*
X987091Y958900D01*
X987120Y958871D01*
X987165Y958834D01*
X987216Y958797D01*
X987268Y958752D01*
X987394Y958664D01*
Y961184D01*
X988000D01*
Y957792D01*
D02*
G37*
G36*
Y956328D02*
X985590D01*
Y953682D01*
X988000D01*
Y953002D01*
X982885D01*
Y953682D01*
X984984D01*
Y956328D01*
X982885D01*
Y957008D01*
X988000D01*
Y956328D01*
D02*
G37*
G36*
Y951228D02*
X983720D01*
X988000Y949735D01*
Y949129D01*
X983646Y947651D01*
X988000D01*
Y947000D01*
X982885D01*
Y948013D01*
X986514Y949225D01*
X986522D01*
X986536Y949232D01*
X986559Y949240D01*
X986596Y949254D01*
X986684Y949284D01*
X986795Y949321D01*
X986921Y949358D01*
X987047Y949402D01*
X987165Y949439D01*
X987268Y949469D01*
X987253Y949476D01*
X987216Y949483D01*
X987150Y949506D01*
X987061Y949535D01*
X986943Y949572D01*
X986803Y949624D01*
X986640Y949676D01*
X986448Y949742D01*
X982885Y950969D01*
Y951878D01*
X988000D01*
Y951228D01*
D02*
G37*
G36*
X15773Y55519D02*
X17000D01*
Y54891D01*
X15773D01*
Y52666D01*
X15196D01*
X11885Y55009D01*
Y55519D01*
X15196D01*
Y56214D01*
X15773D01*
Y55519D01*
D02*
G37*
G36*
X17000Y51328D02*
X14590D01*
Y48682D01*
X17000D01*
Y48002D01*
X11885D01*
Y48682D01*
X13984D01*
Y51328D01*
X11885D01*
Y52008D01*
X17000D01*
Y51328D01*
D02*
G37*
G36*
Y46228D02*
X12720D01*
X17000Y44735D01*
Y44129D01*
X12646Y42650D01*
X17000D01*
Y42000D01*
X11885D01*
Y43013D01*
X15514Y44225D01*
X15522D01*
X15537Y44232D01*
X15559Y44240D01*
X15596Y44254D01*
X15684Y44284D01*
X15795Y44321D01*
X15921Y44358D01*
X16047Y44402D01*
X16165Y44439D01*
X16268Y44469D01*
X16253Y44476D01*
X16216Y44483D01*
X16150Y44506D01*
X16061Y44535D01*
X15943Y44572D01*
X15803Y44624D01*
X15640Y44676D01*
X15448Y44742D01*
X11885Y45969D01*
Y46878D01*
X17000D01*
Y46228D01*
D02*
G37*
G36*
X16000Y957617D02*
X12001D01*
X12009Y957610D01*
X12038Y957573D01*
X12083Y957528D01*
X12134Y957455D01*
X12201Y957373D01*
X12275Y957270D01*
X12356Y957151D01*
X12437Y957018D01*
Y957011D01*
X12445Y957004D01*
X12474Y956959D01*
X12511Y956885D01*
X12556Y956797D01*
X12607Y956693D01*
X12659Y956582D01*
X12711Y956471D01*
X12755Y956361D01*
X12149D01*
Y956368D01*
X12134Y956383D01*
X12127Y956412D01*
X12105Y956449D01*
X12083Y956494D01*
X12053Y956545D01*
X11979Y956671D01*
X11898Y956819D01*
X11794Y956967D01*
X11676Y957122D01*
X11550Y957277D01*
X11543Y957284D01*
X11536Y957292D01*
X11513Y957314D01*
X11491Y957344D01*
X11417Y957410D01*
X11329Y957499D01*
X11225Y957588D01*
X11107Y957684D01*
X10989Y957765D01*
X10863Y957839D01*
Y958245D01*
X16000D01*
Y957617D01*
D02*
G37*
G36*
Y954328D02*
X13590D01*
Y951682D01*
X16000D01*
Y951002D01*
X10885D01*
Y951682D01*
X12984D01*
Y954328D01*
X10885D01*
Y955008D01*
X16000D01*
Y954328D01*
D02*
G37*
G36*
Y949228D02*
X11720D01*
X16000Y947735D01*
Y947129D01*
X11646Y945650D01*
X16000D01*
Y945000D01*
X10885D01*
Y946013D01*
X14514Y947225D01*
X14522D01*
X14536Y947232D01*
X14559Y947240D01*
X14596Y947254D01*
X14684Y947284D01*
X14795Y947321D01*
X14921Y947358D01*
X15046Y947402D01*
X15165Y947439D01*
X15268Y947469D01*
X15253Y947476D01*
X15216Y947484D01*
X15150Y947506D01*
X15061Y947535D01*
X14943Y947572D01*
X14803Y947624D01*
X14640Y947676D01*
X14448Y947742D01*
X10885Y948969D01*
Y949878D01*
X16000D01*
Y949228D01*
D02*
G37*
%LPC*%
G36*
X802201Y471406D02*
X802193D01*
X802186D01*
X802142D01*
X802075Y471391D01*
X801994Y471377D01*
X801905Y471347D01*
X801809Y471303D01*
X801713Y471244D01*
X801617Y471162D01*
X801609Y471155D01*
X801580Y471118D01*
X801543Y471066D01*
X801499Y471000D01*
X801454Y470911D01*
X801417Y470815D01*
X801388Y470697D01*
X801380Y470571D01*
Y470512D01*
X801395Y470445D01*
X801410Y470357D01*
X801440Y470261D01*
X801477Y470157D01*
X801536Y470061D01*
X801617Y469965D01*
X801624Y469958D01*
X801654Y469928D01*
X801706Y469891D01*
X801772Y469854D01*
X801853Y469810D01*
X801949Y469773D01*
X802053Y469743D01*
X802171Y469736D01*
X802179D01*
X802186D01*
X802230Y469743D01*
X802297Y469751D01*
X802378Y469765D01*
X802474Y469795D01*
X802570Y469832D01*
X802674Y469891D01*
X802763Y469965D01*
X802770Y469972D01*
X802800Y470009D01*
X802837Y470061D01*
X802873Y470127D01*
X802918Y470216D01*
X802955Y470320D01*
X802984Y470438D01*
X802992Y470571D01*
Y470586D01*
X802984Y470630D01*
X802977Y470697D01*
X802962Y470785D01*
X802933Y470881D01*
X802896Y470978D01*
X802837Y471081D01*
X802763Y471170D01*
X802755Y471177D01*
X802718Y471207D01*
X802674Y471244D01*
X802607Y471288D01*
X802526Y471332D01*
X802430Y471369D01*
X802319Y471399D01*
X802201Y471406D01*
D02*
G37*
G36*
X804551Y471613D02*
X804544D01*
X804529D01*
X804507D01*
X804477Y471606D01*
X804396Y471598D01*
X804285Y471576D01*
X804174Y471539D01*
X804049Y471488D01*
X803923Y471414D01*
X803805Y471310D01*
X803790Y471295D01*
X803760Y471258D01*
X803709Y471192D01*
X803650Y471103D01*
X803598Y470992D01*
X803546Y470859D01*
X803516Y470711D01*
X803502Y470549D01*
Y470504D01*
X803509Y470475D01*
X803516Y470394D01*
X803539Y470290D01*
X803576Y470172D01*
X803627Y470054D01*
X803701Y469928D01*
X803797Y469817D01*
X803812Y469802D01*
X803849Y469773D01*
X803916Y469728D01*
X803997Y469677D01*
X804108Y469618D01*
X804233Y469573D01*
X804374Y469544D01*
X804529Y469529D01*
X804544D01*
X804573D01*
X804625Y469536D01*
X804692Y469544D01*
X804773Y469558D01*
X804862Y469580D01*
X804950Y469610D01*
X805046Y469647D01*
X805054Y469654D01*
X805091Y469669D01*
X805135Y469699D01*
X805187Y469743D01*
X805254Y469795D01*
X805320Y469861D01*
X805379Y469935D01*
X805438Y470024D01*
X805446Y470039D01*
X805460Y470068D01*
X805483Y470120D01*
X805505Y470187D01*
X805527Y470268D01*
X805549Y470364D01*
X805564Y470467D01*
X805571Y470571D01*
Y470615D01*
X805564Y470645D01*
X805556Y470734D01*
X805534Y470837D01*
X805497Y470955D01*
X805453Y471081D01*
X805379Y471199D01*
X805283Y471317D01*
X805268Y471332D01*
X805231Y471362D01*
X805165Y471414D01*
X805083Y471465D01*
X804980Y471517D01*
X804854Y471569D01*
X804706Y471598D01*
X804551Y471613D01*
D02*
G37*
G36*
X15196Y54891D02*
X12905D01*
X15196Y53279D01*
Y54891D01*
D02*
G37*
%LPD*%
D100*
X-0Y1000000D02*
X1000000D01*
Y-0D02*
Y1000000D01*
X-0Y-0D02*
X1000000D01*
X-0D02*
Y1000000D01*
M02*
