M48
;Layer_Color=9474304
;FILE_FORMAT=4:4
METRIC,LZ
;TYPE=PLATED
T1F00S00C0.2000
T2F00S00C0.3000
T3F00S00C0.7620
T4F00S00C0.9000
T5F00S00C1.0200
T6F00S00C2.7000
%
T01
X0039675Y00525
Y00535
X00582Y004395
Y004285
X0038675Y00525
Y00535
T02
X00814Y00383
X00801Y00423
X00788Y00549
X00651Y00618
X00561
X00519Y00591
X00412Y00548
X00428Y00444
X00433995Y00419005
X00405Y00424
X00398354Y00430431
X0047601Y00415129
X00527Y00413
X00544Y00410899
X0057501Y00402987
X00597Y004015
X00614Y0042825
X00614Y00438
X00613Y00448646
X00643Y004295
Y004185
X00657Y00419
X00656Y0043
X00649Y00465
X00579667Y00466795
X00578469Y00499326
X00553Y00457
X00559Y004365
X00579Y00726
X00314Y00591
X00299Y00583
X0029517Y00600373
X00297Y00509
X00385Y00508
X00385Y00439
T03
X00631Y00502
T04
X00717Y001276
Y00153
X00959239Y00164499
Y00189899
Y00215299
Y00240699
X00961Y002862
Y003116
Y00337
Y003624
X00959239Y004045
Y004299
Y004553
Y004807
X00959Y005242
Y005496
Y00575
Y006004
X006524Y00535
X00627
X006016
X00484Y00664
X004586
X00168Y00445
Y004196
T05
X00407111Y00285356
X00701Y0037
X00778728Y00153241
X00866Y0044
X00856Y005528
X00727Y00581
X0073Y00495
Y00460229
X00631Y00477
X00562Y00525
X00501Y00447
X00506Y00397
X00333Y0043
T06
X00049Y0005
X0095
X00049Y0095
X0095
M30
